<svg xmlns="http://www.w3.org/2000/svg" xmlns:xlink="http://www.w3.org/1999/xlink" width="828" height="650" viewBox="0 0 828 650">
    <defs>
        <path id="a" d="M0 .979h1072.561v1053.095H0z"/>
    </defs>
    <g fill="none" fill-rule="evenodd">
        <g transform="translate(0 -223.986)">
            <mask id="b" fill="#fff">
                <use xlink:href="#a"/>
            </mask>
            <path fill="#00BDF2" d="M408.975 112.693c-3.21 0-6.231-1.25-8.5-3.52-2.424-2.424-3.527-6.627-3.527-9.508l-.01-27.053a2.166 2.166 0 0 1 4.332-.002l.01 27.055c0 2.059.844 5.033 2.257 6.446 2.905 2.905 7.976 2.901 10.876.002a2.165 2.165 0 0 1 3.06-.004c.845.847.845 2.218.002 3.063a11.928 11.928 0 0 1-8.5 3.52zm-16.373-94.03h1.446c1.194 0 2.164.968 2.166 2.164l.014 80.315c0 2.895 1.082 7.101 3.463 9.488a11.764 11.764 0 0 0 8.353 3.457c3.145 0 6.11-1.229 8.351-3.46a11.78 11.78 0 0 0 3.453-8.363v-4.852a2.578 2.578 0 0 1-.25.014h-4.737a2.166 2.166 0 1 1 0-4.33h4.736c.086 0 .17.004.251.014v-9.12c-.081.01-.165.014-.25.014h-4.737a2.165 2.165 0 1 1 0-4.33h4.736c.086 0 .17.006.251.016v-9.122a2.07 2.07 0 0 1-.25.016h-4.737a2.165 2.165 0 0 1 0-4.33h4.736c.086 0 .17.004.251.014v-9.12a2.578 2.578 0 0 1-.25.014h-4.737a2.166 2.166 0 1 1 0-4.33h4.736c.086 0 .17.004.251.014v-9.12c-.081.01-.165.013-.25.013h-4.737a2.165 2.165 0 1 1 0-4.33h4.736c.086 0 .17.007.251.015V20.827c0-1.196.97-2.164 2.166-2.164h1.449v-4.525h-30.861v4.525zm15.442 99.754h-.014a16.055 16.055 0 0 1-11.4-4.724c-3.271-3.284-4.734-8.668-4.734-12.551l-.012-78.15h-1.448a2.167 2.167 0 0 1-2.166-2.165v-8.853c0-1.196.972-2.166 2.166-2.166h35.19c1.196 0 2.167.97 2.167 2.166v8.853c0 1.197-.97 2.166-2.166 2.166h-1.447v79.27c0 4.31-1.68 8.367-4.724 11.426-3.063 3.05-7.116 4.728-11.412 4.728zM657.087 9.766h2.237V5.309h-71.812v4.457h2.238c.187-.054.388-.084.595-.084h66.144c.207 0 .408.03.598.084zm-64.542 4.33c.79 25.931 15.235 39.431 30.865 53.29 15.644-13.853 30.092-27.357 30.88-53.29h-61.745zm30.865 112.626h30.88c-.786-26.047-15.22-39.594-30.872-53.464-15.652 13.87-30.088 27.417-30.873 53.464h30.865zm-35.898 8.873h71.812v-4.457h-71.812v4.457zm73.978 4.33h-76.144a2.165 2.165 0 0 1-2.166-2.164v-8.789c0-1.195.97-2.164 2.166-2.164h2.861c.74-27.814 16.27-42.613 31.892-56.49-15.596-13.836-31.117-28.587-31.888-56.222h-2.865a2.165 2.165 0 0 1-2.166-2.164v-8.79c0-1.195.97-2.163 2.166-2.163h76.144c1.194 0 2.164.968 2.164 2.164v8.789c0 1.196-.97 2.164-2.164 2.164h-2.867c-.771 27.639-16.295 42.39-31.893 56.228 15.626 13.86 31.158 28.652 31.897 56.484h2.863c1.194 0 2.164.969 2.164 2.164v8.79c0 1.195-.97 2.163-2.164 2.163zm104.846-64.934c7.123 1.726 14.603 4.292 22.163 7.6 7.694-3.382 15.18-5.938 22.188-7.64-5.374-15.548-13.392-25.614-22.17-25.614-8.787 0-16.81 10.084-22.181 25.654zm38.86 16.062c3.777 2.18 7.392 4.45 10.825 6.783-.94-6.695-2.294-12.976-3.98-18.653-5.76 1.381-11.88 3.352-18.15 5.887 3.774 1.819 7.556 3.82 11.304 5.983zm-40.183-11.93c-1.696 5.697-3.055 11.998-3.997 18.721 3.46-2.357 7.08-4.63 10.821-6.79a173.556 173.556 0 0 1 11.346-6.012c-6.21-2.529-12.324-4.521-18.17-5.918zm55.85 22.134c6.765 4.968 12.714 10.166 17.688 15.379 10.778-12.428 15.486-24.403 11.099-32.005-4.388-7.6-17.11-9.508-33.263-6.388 2.029 6.916 3.555 14.665 4.476 23.014zm-73.61-24.467c-9.845 0-16.911 2.734-19.858 7.841-3.654 6.325-1 16.301 7.279 27.372a86.722 86.722 0 0 0 3.796 4.707c5.063-5.322 11.04-10.533 17.702-15.437.922-8.377 2.457-16.152 4.493-23.086a84.393 84.393 0 0 0-5.93-.926 63.373 63.373 0 0 0-7.482-.47zm74.15 30.371c.305 4.139.464 8.399.464 12.76 0 4.365-.16 8.633-.464 12.775 5.326-4.162 10.086-8.47 14.161-12.768-4.075-4.298-8.833-8.606-14.161-12.767zm-80.02 12.767c4.142 4.383 8.94 8.697 14.255 12.824a173.397 173.397 0 0 1-.469-12.83c0-4.382.16-8.662.469-12.82-5.315 4.128-10.113 8.442-14.255 12.826zm18.935 16.317c4.3 3.082 8.883 6.037 13.683 8.81a161.93 161.93 0 0 0 14.516 7.433 162.17 162.17 0 0 0 14.514-7.434c4.832-2.791 9.411-5.76 13.691-8.845.53-5.248.813-10.704.813-16.287 0-5.577-.283-11.03-.813-16.276a162.578 162.578 0 0 0-13.69-8.845 166.668 166.668 0 0 0-14.485-7.452 162.378 162.378 0 0 0-14.546 7.452 166.502 166.502 0 0 0-13.683 8.81 162.282 162.282 0 0 0-.817 16.31c0 5.598.285 11.066.817 16.324zm.698 5.766c.94 6.696 2.293 12.976 3.979 18.653 5.756-1.379 11.868-3.346 18.134-5.878a175.323 175.323 0 0 1-11.292-5.982 172.012 172.012 0 0 1-10.821-6.793zm32.887 12.775c6.265 2.532 12.382 4.501 18.139 5.88 1.685-5.675 3.036-11.953 3.977-18.645a175.65 175.65 0 0 1-22.116 12.765zm-55.433-31.64a85.927 85.927 0 0 0-3.796 4.704c-8.28 11.073-10.933 21.05-7.281 27.374 4.386 7.598 17.11 9.503 33.256 6.383-2.028-6.92-3.557-14.672-4.477-23.025-6.661-4.903-12.64-10.114-17.702-15.436zm77.917 38.46c16.15 3.123 28.877 1.214 33.265-6.382 4.385-7.603-.323-19.579-11.101-32.005-4.974 5.213-10.923 10.412-17.688 15.381-.92 8.343-2.45 16.094-4.476 23.007zm-50.035 3.292c5.372 15.546 13.386 25.61 22.165 25.61 8.778 0 16.794-10.066 22.168-25.61-7.004-1.701-14.478-4.252-22.168-7.627-7.69 3.373-15.165 5.926-22.165 7.627zm22.165 29.94c-10.933 0-20.477-11.243-26.523-28.98-18.382 3.631-32.89.989-38.351-8.468-4.627-8.012-1.943-19.423 7.564-32.132a89.029 89.029 0 0 1 4.326-5.33 89.666 89.666 0 0 1-4.326-5.33c-9.507-12.71-12.19-24.12-7.562-32.133 4.62-8.008 15.84-11.383 31.604-9.504 2.192.26 4.438.621 6.73 1.072 6.043-17.762 15.597-29.026 26.538-29.026 10.932 0 20.48 11.246 26.525 28.982 18.378-3.633 32.894-.988 38.358 8.476 5.463 9.469.5 23.36-11.836 37.463 12.336 14.101 17.3 27.991 11.838 37.462-5.464 9.459-19.98 12.101-38.362 8.47-6.045 17.733-15.591 28.979-26.523 28.979zM462.08 155.313c2.72 1.086 6.07.434 8.201-1.702 2.077-2.068 2.756-5.194 1.742-7.968a2.163 2.163 0 0 1 1.24-2.758c1.147-.452 2.43-.604 3.733-.576 3.246.052 6.429 1.224 6.907 1.403.283.11.542.28.757.494l10.206 10.218 9.87-9.863c.483-1.409.978-3.497.978-5.21-3.65.51-7.397-.708-10.051-3.358-4.653-4.667-4.653-12.246 0-16.9a11.937 11.937 0 0 1 9.598-3.428 11.88 11.88 0 0 1 7.307 3.439c2.658 2.646 3.868 6.396 3.361 10.048.271 0 .548-.014.833-.035.74-.062 1.509-.19 2.226-.347a20.524 20.524 0 0 0 2.142-.6l9.877-9.877-32.969-32.967-.002-.004a4.454 4.454 0 0 0-3.17-1.317h-.002a4.46 4.46 0 0 0-3.182 1.32l-32.95 32.958 10.23 10.226c.218.215.385.474.495.761.25.661 2.417 6.585.819 10.616a2.16 2.16 0 0 1-2.75 1.238l-.036-.012a.429.429 0 0 0-.054-.02c-2.76-.976-5.854-.291-7.902 1.76-2.967 2.968-2.967 7.802.002 10.775a7.578 7.578 0 0 0 2.544 1.686zm62.129 28.44l9.877 9.885 32.947-32.967c.002-.002.004-.002.004-.004a4.444 4.444 0 0 0 1.32-3.172 4.44 4.44 0 0 0-1.32-3.17l-32.961-32.972-10.226 10.218-.01.012-.002.002a2.194 2.194 0 0 1-.76.494c-.66.252-6.573 2.42-10.62.82a2.166 2.166 0 0 1-1.235-2.76c1.02-2.78.343-5.908-1.724-7.973a7.559 7.559 0 0 0-3.95-2.092 7.628 7.628 0 0 0-6.813 2.09c-2.957 2.957-2.951 7.785.02 10.76 2.064 2.075 5.186 2.754 7.96 1.738a2.164 2.164 0 0 1 2.76 1.233c1.6 4.035-.568 9.951-.821 10.613a2.12 2.12 0 0 1-.49.759l-10.227 10.224 9.892 9.893c.757.259 1.707.52 2.692.707.838.158 1.697.261 2.48.261h.008c-.502-3.654.706-7.406 3.36-10.05a11.862 11.862 0 0 1 8.444-3.5c.584-.031 1.276.05 1.9.15a11.804 11.804 0 0 1 6.56 3.344 11.862 11.862 0 0 1 3.502 8.456 11.872 11.872 0 0 1-3.471 8.413l-.036.036c-.034.034-.066.066-.102.098 0 0 0 .002-.002.002a11.932 11.932 0 0 1-9.939 3.25c0 1.711.496 3.795.983 5.202zm-43.464 9.537c2.496 2.088 6.037 2.323 8.77.699a7.646 7.646 0 0 0 1.485-1.162 7.524 7.524 0 0 0 2.23-5.364 7.567 7.567 0 0 0-2.234-5.394c-1.942-1.942-4.82-2.668-7.462-1.915a7.874 7.874 0 0 0-.492.162 2.392 2.392 0 0 1-.157.05 2.168 2.168 0 0 1-2.625-1.284c-1.588-4.033.578-9.945.831-10.606.108-.285.277-.544.49-.76l.016-.015h.002l10.204-10.204-9.895-9.89c-1.4-.48-3.47-.97-5.18-.976.494 3.659-.712 7.413-3.358 10.057a11.873 11.873 0 0 1-8.45 3.497h-.005c-1.436 0-2.835-.251-4.144-.735a11.874 11.874 0 0 1-4.308-2.762 11.847 11.847 0 0 1-3.501-8.437 11.877 11.877 0 0 1 3.501-8.462c2.656-2.652 6.41-3.86 10.049-3.358.002-1.707-.493-3.794-.975-5.202l-9.877-9.878-32.955 32.952a4.47 4.47 0 0 0-1.32 3.182c0 1.201.467 2.33 1.318 3.176l32.967 32.97 10.216-10.219c.002 0 .002-.002.002-.002l.012-.014c.217-.215.476-.382.759-.492.664-.253 6.583-2.419 10.624-.809a2.163 2.163 0 0 1 1.23 2.758c-1.014 2.772-.337 5.902 1.727 7.976l.088.086h.002l.01.012c.132.127.265.247.405.363zm-22.014 3.41l32.969 32.958v.002a4.465 4.465 0 0 0 3.176 1.32c1.201 0 2.33-.471 3.18-1.32l32.96-32.947-10.243-10.238a2.188 2.188 0 0 1-.492-.761c-.25-.662-2.419-6.586-.817-10.619a2.166 2.166 0 0 1 2.736-1.241l.048.018.098.034c2.7.94 5.728.289 7.773-1.682l.095-.092.028-.03c2.93-2.973 2.92-7.78-.036-10.736a7.571 7.571 0 0 0-4.154-2.134c-.397-.061-.8-.045-1.216-.093a7.583 7.583 0 0 0-5.382 2.235c-2.072 2.067-2.755 5.195-1.747 7.97.4 1.1-.148 2.318-1.234 2.752-2.165.863-4.877.632-7.023.2a23.886 23.886 0 0 1-3.617-1.026 2.162 2.162 0 0 1-.757-.493l-10.208-10.216-9.867 9.862c-.487 1.41-.983 3.5-.979 5.214 3.635-.496 7.397.706 10.049 3.35a11.865 11.865 0 0 1 3.505 8.46 11.87 11.87 0 0 1-3.501 8.44 11.885 11.885 0 0 1-1.85 1.511c-1.936 1.295-4.21 1.92-6.599 1.99a11.864 11.864 0 0 1-8.205-3.263l-.01-.01-.02-.018-.002-.002c-.07-.068-.14-.135-.21-.205 0 0-.003-.006-.003-.004-2.656-2.654-3.866-6.404-3.366-10.049-1.771.002-3.923.54-5.202.979l-9.877 9.885zm36.145 38.609h-.002a8.76 8.76 0 0 1-6.237-2.588l-34.5-34.488a2.534 2.534 0 0 1-.12-.133l-34.375-34.376a8.753 8.753 0 0 1-2.586-6.24 8.78 8.78 0 0 1 2.586-6.244l34.496-34.49c.024-.021.043-.043.067-.065l34.414-34.42a8.769 8.769 0 0 1 6.245-2.59h.004a8.746 8.746 0 0 1 6.235 2.592l34.39 34.388c.04.034.077.07.115.108l34.488 34.495a8.737 8.737 0 0 1 2.59 6.237 8.74 8.74 0 0 1-2.594 6.24l-34.396 34.416c-.024.028-.052.056-.076.082l-34.501 34.488a8.77 8.77 0 0 1-6.243 2.588zm262.596 24.72h-38.4a2.166 2.166 0 1 1 0-4.33h38.4a2.165 2.165 0 1 1 0 4.33zm-148.069-6.835l-1.715 7.383 7.259-.042 1.713-7.384-7.257.043zm-5.746 17.338a2.166 2.166 0 0 1-2.11-2.656l.681-2.935-3.098.018h-.014c-1.19 0-2.158-.96-2.166-2.152a2.166 2.166 0 0 1 2.152-2.178l4.134-.024 1.716-7.385-2.618.016h-.014c-1.19 0-2.158-.96-2.166-2.152a2.166 2.166 0 0 1 2.152-2.178l3.652-.022.917-3.95a2.165 2.165 0 0 1 4.22.98l-.685 2.945 7.255-.044.914-3.942a2.175 2.175 0 0 1 2.598-1.62 2.168 2.168 0 0 1 1.622 2.599l-.681 2.937 3.1-.018h.014a2.165 2.165 0 0 1 .014 4.33l-4.134.024-1.712 7.384 2.612-.016h.014a2.165 2.165 0 0 1 .014 4.33l-3.646.02-.915 3.945a2.161 2.161 0 0 1-2.598 1.62 2.168 2.168 0 0 1-1.622-2.598l.681-2.94-7.26.045-.915 3.941a2.168 2.168 0 0 1-2.108 1.676zm214.411 14.777h-98.995a2.166 2.166 0 1 1 0-4.33h98.995c1.194 0 2.166.968 2.166 2.164a2.167 2.167 0 0 1-2.166 2.166zm0 13.302h-98.995a2.165 2.165 0 0 1 0-4.33h98.995c1.194 0 2.166.969 2.166 2.164a2.168 2.168 0 0 1-2.166 2.166zm0 13.295h-98.995a2.165 2.165 0 1 1 0-4.33h98.995c1.194 0 2.166.97 2.166 2.166a2.166 2.166 0 0 1-2.166 2.164zm-264.098-37.23a2.166 2.166 0 0 1 2.166 2.164l.008 21.618c.006 1.52.65 3.81 1.677 4.844a5.74 5.74 0 0 0 4.047 1.67 5.732 5.732 0 0 0 4.033-1.68 2.163 2.163 0 0 1 3.521.697 9.012 9.012 0 0 0 .684-3.457v-3.425h-3.543a2.165 2.165 0 0 1 0-4.33h3.543v-6.394h-3.543a2.165 2.165 0 1 1 0-4.33h3.543v-6.396h-3.543a2.165 2.165 0 0 1 0-4.33h3.543v-6.392h-3.543a2.165 2.165 0 0 1 0-4.33h3.543v-6.386h-3.543a2.166 2.166 0 1 1 0-4.33h3.543v-14.41c0-1.196.972-2.167 2.166-2.167h.725v-2.74h-23.78v2.74h.718c1.195 0 2.166.97 2.166 2.166l.004 40.26a2.166 2.166 0 0 1 1.865-1.062zm-1.556 27.502c.4 1.761 1.185 3.573 2.335 4.724 2.397 2.4 6.105 3.22 9.236 2.17-.688.15-1.395.225-2.117.23a10.06 10.06 0 0 1-7.11-2.938c-1.093-1.1-1.864-2.632-2.344-4.186zm8.701 11.69h-.016a13.26 13.26 0 0 1-9.415-3.905c-2.698-2.71-3.907-7.143-3.907-10.338l-.006-61.983h-.72a2.165 2.165 0 0 1-2.165-2.164v-7.071c0-1.196.97-2.164 2.166-2.164h28.11c1.196 0 2.167.968 2.167 2.164v7.071c0 1.196-.97 2.164-2.166 2.164h-.725v62.89c0 3.557-1.383 6.904-3.896 9.427a13.245 13.245 0 0 1-9.427 3.91zm400.012 11.081h2.511v-71.856h-2.51v71.856zm4.631 4.33h-6.755c-1.195 0-2.207-1.012-2.207-2.21V250.97c0-1.196 1.012-2.208 2.207-2.208h6.755c1.194 0 2.21 1.012 2.21 2.208v76.098c0 1.198-1.016 2.21-2.21 2.21zm10.403-88.815l.638 2.25 17.553-4.968-.638-2.254-17.553 4.972zm1.82 6.416l.372 1.315 17.553-4.971-.375-1.312-17.55 4.968zm-69.723 2.417h20.618v-13.279h-20.618v13.279zm71.275 3.065l.25.884 17.55-4.977-.25-.879-17.55 4.972zm-71.275 5.3h20.618v-4.035h-20.618v4.035zm72.708-.251l1.095 3.877 17.555-4.97-1.102-3.883-17.548 4.976zm-72.708 56.264h20.618v-51.683h-20.618v51.683zm74.985-48.22l14.092 49.733 17.554-4.978-14.091-49.727-17.555 4.972zm-50.036 52.44h17.37V241.6h-17.37v76.295zm-24.949 4.143h20.618v-4.033h-20.618v4.033zm90.258-2.684l1.098 3.876 17.555-4.974-1.098-3.88-17.555 4.978zm2.28 8.042l.253.893 17.554-4.976-.253-.892-17.554 4.975zm-67.589 1.638h17.37v-6.809h-17.37v6.809zm69.02 3.421l.376 1.323 17.555-4.977-.375-1.323-17.557 4.977zm-93.969 7.191h20.618v-13.278h-20.618v13.278zm24.95 0h17.369v-6.282h-17.37v6.282zm21.699 0h14.954v-101.25h-14.954v101.25zm48.878-1.701l.63 2.23 17.558-4.972-.634-2.238-17.554 4.98zm-.803 7.05a2.246 2.246 0 0 1-2.168-1.644l-22.293-78.687-.036-.114-.026-.111-2.218-7.82c-.01-.035-.022-.071-.032-.109a1.194 1.194 0 0 1-.03-.114l-1.39-4.91c-.004-.01-.006-.02-.008-.03l-.01-.027-.578-2.046v92.386c0 1.195-1.016 2.207-2.21 2.207H906.135c-1.195 0-2.21-1.012-2.21-2.207v-107.87c0-1.196 1.015-2.21 2.21-2.21h24.862c1.195 0 2.21 1.014 2.21 2.21v3.37h17.369v-.996c0-1.197 1.012-2.207 2.207-2.207h19.199c1.194 0 2.21 1.01 2.21 2.207v.251l20.384-5.774a2.219 2.219 0 0 1 1.69.22c.506.288.898.784 1.048 1.346l24.584 86.743c.008.032.02.066.028.098.01.034.02.065.028.1l4.762 16.805c.138.494.1 1.038-.107 1.504-.24.536-.716.977-1.266 1.176l-21.79 6.175a2.128 2.128 0 0 1-.572.078zM122.354 254.7h1.698l-.845-2.782-.853 2.782zm-5.563 11.68h12.838l-2.937-7.35h-6.96l-2.941 7.35zm-1.032 53.29h14.902v-48.96H115.76v48.96zm0 11.162h14.902V324H115.76v6.832zm0 4.33v9.853c0 1.989.777 3.868 2.192 5.293 2.8 2.78 7.727 2.787 10.536-.008a7.456 7.456 0 0 0 2.172-5.285v-9.853h-14.9zm7.458 21.636a11.726 11.726 0 0 1-8.327-3.43c-2.236-2.25-3.463-5.212-3.463-8.353v-76.47c0-.302.062-.59.175-.852l9.6-23.992a2.16 2.16 0 0 1 .294-.522c.001-.002-.006-.002.005-.006.002-.002.004-.002.004-.008.166-.21.365-.389.59-.524h.002c.002-.002.01.004.01-.008.004-.002.01-.004.01-.006.008 0 .008-.002.01-.004.004-.002.006-.002.01-.006h.002c.303-.176.65-.277 1.016-.287h.01c.004-.002.01-.002.01-.002h.084c.877.018 1.65.56 1.97 1.367l9.589 24.004c.094.218.151.455.167.702v.01c.004.05.006.1.006.147v76.457c0 3.147-1.221 6.11-3.439 8.343a11.73 11.73 0 0 1-8.335 3.44zm319.303-87.61h.773v-1.726h-48.16v1.726h.772c.164-.04.335-.06.51-.06h45.595c.175 0 .346.02.51.06zm-43.889 4.33c.762 16.897 10.23 25.973 20.58 35.165 10.355-9.188 19.822-18.266 20.585-35.165h-41.165zm20.578 76.296h20.587c-.763-16.98-10.224-26.083-20.583-35.285-10.36 9.202-19.82 18.306-20.582 35.285h20.578zm-24.077 6.123h48.161v-1.726h-48.16v1.726zm50.327 4.33h-52.493a2.165 2.165 0 0 1-2.165-2.164v-6.056c0-1.197.97-2.166 2.165-2.166h1.326c.719-18.702 11.06-28.864 21.621-38.275-10.545-9.385-20.872-19.507-21.62-38.088h-1.327a2.166 2.166 0 0 1-2.165-2.166v-6.056c0-1.195.97-2.164 2.165-2.164h52.493c1.193 0 2.164.969 2.164 2.164v6.056c0 1.197-.97 2.166-2.164 2.166h-1.325c-.747 18.583-11.079 28.705-21.624 38.09 10.565 9.399 20.907 19.549 21.626 38.273h1.323c1.193 0 2.164.969 2.164 2.166v6.056c0 1.195-.97 2.164-2.164 2.164zm304.94-124.513h39.431l-19.716-15.257-19.715 15.257zm84.416 34.833v38.626l30.972-14.646-30.972-23.98zm-160.38 23.98l30.98 14.65v-38.64l-30.98 23.99zm55.63 26.302h80.096l20.322-9.61v-44.434a2.176 2.176 0 0 1 0-1.515v-25.226h-34.296c-.012 0-.032.002-.05 0h-52.044a.299.299 0 0 0-.052 0h-34.294v25.256c.167.474.163.988 0 1.45v44.473l20.318 9.606zm9.158 4.33l30.89 14.606 30.89-14.606h-61.78zm35.472 17.228l93.041 55.976v-99.968l-34.083 16.116a2.402 2.402 0 0 1-.161.078l-58.797 27.798zm-102.212-43.992v99.968l93.05-55.976-36.825-17.41c-.038-.015-.072-.033-.11-.05l-21.496-10.163a2.185 2.185 0 0 1-.848-.403l-33.77-15.966zm4.526 102.299h186.206l-93.101-56.007-93.105 56.007zm192.893 4.33H670.317a2.166 2.166 0 0 1-2.165-2.164V295.036c0-.046 0-.094.004-.14v-.004c0-.002 0-.006.002-.01v-.012c.007-.103.021-.203.043-.303v-.006l.002-.008c.098-.446.337-.864.706-1.181h.002l.016-.014.002-.002c.024-.02.045-.038.07-.056l36.416-28.199v-27.183c0-1.195.972-2.164 2.166-2.164h35.745l25.463-19.708a2.165 2.165 0 0 1 2.65 0l25.465 19.708h35.745c1.195 0 2.166.969 2.166 2.164v27.193l36.4 28.185c.04.03.08.062.116.094.006.004.006.004.006.006a2.145 2.145 0 0 1 .683 1.165v.004c.022.1.034.202.042.305v.012a.022.022 0 0 1 .002.01v.004c.004.046.004.094.004.14V402.9c0 1.195-.97 2.164-2.166 2.164zM45.85 424.134a2.167 2.167 0 0 1-2.166-2.165v-38.971c0-1.196.97-2.164 2.166-2.164h65.197c1.196 0 2.166.968 2.166 2.164v38.937c0 1.195-.97 2.166-2.166 2.166a2.166 2.166 0 0 1-2.164-2.166v-36.771H48.015v36.805a2.168 2.168 0 0 1-2.166 2.166zm747.353 4.466c.317 0 .633.07.928.21l96.605 45.884v-1.245l-97.533-46.333-97.521 46.333v1.245l96.592-45.885c.295-.14.612-.209.929-.209zm-.006 34.16c25.784 0 51.885 5.36 51.885 15.605v20.3l30.584-14.677c.032-.016.067-.034.103-.05l12.11-5.81-94.676-44.967-94.664 44.967 42.787 20.535v-20.298c0-10.244 26.095-15.604 51.87-15.604zm0 47.608c19.453 0 39.084 3.048 47.553 8.942v-16.935a2.443 2.443 0 0 1 0-.526v-23.484c0-4.597-18.523-11.274-47.553-11.274-29.02 0-47.54 6.677-47.54 11.274v40.945c8.467-5.894 28.094-8.942 47.54-8.942zm83.455 17.76a1.946 1.946 0 0 0-1.943 1.944c0 1.068.871 1.937 1.943 1.937a1.944 1.944 0 0 0 1.947-1.937 1.948 1.948 0 0 0-1.947-1.945zm-130.994-2.166c0 4.596 18.519 11.274 47.539 11.274 29.03 0 47.553-6.678 47.553-11.274 0-4.593-18.523-11.265-47.553-11.265-29.02 0-47.54 6.672-47.54 11.265zm47.539 15.603c-25.776 0-51.871-5.36-51.871-15.603v-22.497l-48.707-23.377a2.13 2.13 0 0 1-.797-.621c-.004-.004-.006-.004-.006-.006a2.17 2.17 0 0 1-.466-1.268v-.033-6.08c0-.835.482-1.596 1.238-1.955l99.686-47.361a2.165 2.165 0 0 1 1.857 0l99.699 47.361a2.166 2.166 0 0 1 1.237 1.955V478.193c-.02.493-.199.943-.492 1.3l-.004.004a2.023 2.023 0 0 1-.33.322 2.16 2.16 0 0 1-.447.273l-14.976 7.188v36.902a6.284 6.284 0 0 1 4.11 5.89c0 3.455-2.815 6.267-6.276 6.267-3.457 0-6.273-2.812-6.273-6.267a6.29 6.29 0 0 1 4.107-5.89v-34.826l-29.404 14.111v22.495c0 10.243-26.101 15.603-51.885 15.603zm153.498-10.835l9.618 9.612c17.264-16.449 33.119-18.075 48.466-19.647 15.697-1.606 30.524-3.126 47.202-19.8 10.838-10.84 16.253-25.077 16.253-39.316 0-14.237-5.415-28.476-16.253-39.315a56.2 56.2 0 0 0-5.486-4.812c-14.312-10.983-32.783-14.058-49.421-9.224l-.08.024a55.187 55.187 0 0 0-22.417 12.834l-.137.13c-.365.346-.73.701-1.088 1.06-16.674 16.674-18.192 31.5-19.798 47.196-1.573 15.349-3.197 31.204-19.645 48.47l12.786 12.788zm-19.208-12.065c-.63 0-1.26.239-1.74.719a2.464 2.464 0 0 0 .006 3.477l25.639 25.639a2.458 2.458 0 0 0 3.465-.008h.002a2.461 2.461 0 0 0 .723-1.736 2.424 2.424 0 0 0-.715-1.731l-12.874-12.875c-.006-.006-.01-.01-.016-.013l-12.63-12.63c-.005-.003-.01-.01-.015-.013-.02-.024-.044-.046-.066-.07l-.042-.042a2.45 2.45 0 0 0-1.737-.717zm-6.534 6.531c-.656 0-1.27.255-1.734.72a2.473 2.473 0 0 0 .004 3.485l25.637 25.628c.95.955 2.503.957 3.465.004.953-.968.957-2.522.008-3.469l-25.646-25.646a2.426 2.426 0 0 0-1.734-.722zm16.913 35.915l.456.456a2.456 2.456 0 0 0 3.465.002 2.47 2.47 0 0 0 .008-3.481l-25.64-25.63a2.421 2.421 0 0 0-1.732-.728h-.002a2.461 2.461 0 0 0-1.736 4.198l.405.405c.086.074.166.153.237.239l24.394 24.395c.05.044.097.094.145.144zm-27.583-9.553l12.406 12.408 9.389-2.519L912.8 542.17l-2.518 9.39zm11.76 16.987a2.17 2.17 0 0 1-1.53-.634l-14.178-14.177a2.167 2.167 0 0 1-.56-2.09l3.498-13.034c-2.288-2.668-2.17-6.699.348-9.215a6.728 6.728 0 0 1 4.56-1.99 6.74 6.74 0 0 1 1.976-4.548 6.719 6.719 0 0 1 4.553-1.987 6.766 6.766 0 0 1 1.977-4.55 6.803 6.803 0 0 1 7.946-1.214c15.556-16.242 17.042-30.746 18.613-46.074 1.614-15.76 3.281-32.055 21.043-49.817 23.363-23.367 61.382-23.377 84.755-.012 22.103 22.112 23.293 57.345 3.56 80.867a59.677 59.677 0 0 1-3.56 3.885c-17.768 17.764-34.064 19.434-49.825 21.048-15.33 1.57-29.833 3.057-46.07 18.619.502.96.765 2.034.763 3.148a6.757 6.757 0 0 1-1.993 4.784h-.002a6.763 6.763 0 0 1-4.553 1.979 6.785 6.785 0 0 1-1.964 4.549l-.012.012a6.767 6.767 0 0 1-4.557 1.974 6.784 6.784 0 0 1-1.977 4.558v.003c-2.52 2.521-6.558 2.637-9.218.347l-13.031 3.495c-.185.05-.375.074-.562.074zM249.897 438.238l9.72 9.726v-19.075a153.804 153.804 0 0 0-9.72 9.35zm14.052-9.447v19.175l9.895-9.893c-3.977-4.087-7.476-7.23-9.895-9.282zm-30.373 29.596l26.041 26.047V454.09l-12.669-12.679c-4.29 4.737-8.958 10.45-13.372 16.977zm30.373-4.298v30.345l26.314-26.314c-4.338-6.4-8.993-12.067-13.444-16.9l-12.87 12.87zm0 36.47v30.343l38.863-38.86c-2.746-7.302-6.26-14.065-10.128-20.218l-28.735 28.735zm-43.008-8.333l38.676 38.676V490.56l-28.46-28.468c-3.858 6.12-7.414 12.868-10.216 20.135zm43.008 44.8v30.354l44.773-44.775c-.11-9.217-1.725-17.925-4.326-26.025l-40.447 40.446zm-49.117-14.43l44.785 44.784v-30.354l-40.294-40.294c-2.682 8.091-4.374 16.765-4.491 25.863zm93.583 6.44l-41.204 41.204c21.558-2.493 38.712-19.649 41.204-41.205zm-93.278-.013c2.488 21.564 19.65 38.724 41.216 41.217l-41.216-41.217zm46.646 76.434a2.167 2.167 0 0 1-2.166-2.166v-28.452c-27.278-1.14-49.121-23.684-49.121-51.231 0-52.07 47.758-89.376 49.958-91.065a2.155 2.155 0 0 1 1.494-.449h.008c.425.034.815.192 1.136.435.5.374 7.289 5.49 15.807 14.57 15.582 16.59 34.159 43.332 34.159 76.509 0 27.547-21.837 50.091-49.109 51.23v28.453a2.168 2.168 0 0 1-2.166 2.166zm-152.875 88.016h9.216V537.084h-9.216v146.389zm11.34 4.33h-13.464c-1.195 0-2.207-1.01-2.207-2.206V534.96c0-1.196 1.012-2.206 2.207-2.206h13.464c1.194 0 2.208 1.01 2.208 2.206v150.637c0 1.196-1.014 2.206-2.208 2.206zm17.905-175.038l2.417 8.526 38.798-11-2.415-8.517-38.8 10.99zm3.597 12.69l1.897 6.69 38.796-11.002-1.895-6.685-38.798 10.997zM4.332 533.81H49.36v-30.508H4.332v30.508zm140.495 2.501l1.647 5.812 38.796-10.999-1.648-5.816-38.795 11.003zM4.332 550.363H49.36V538.14H4.332v12.223zm143.324-4.073l3.328 11.75 38.8-10.999-3.332-11.75-38.796 10.999zM4.332 661.17H49.36V554.69H4.332v106.48zm147.833-98.965l29.038 102.45 38.8-11.001-29.038-102.449-38.8 11zM53.69 669.519h38.59V514.343H53.69v155.176zM4.332 677.72H49.36V665.5H4.332v12.22zm178.053-8.899l3.331 11.759 38.802-10.997-3.334-11.763-38.8 11.001zm4.513 15.925l1.652 5.828 38.801-10.995-1.652-5.832-38.801 11zm-133.208 6.81h38.59V673.85H53.69v17.708zm136.041 3.185l1.9 6.697 38.8-10.993-1.9-6.701-38.8 10.997zm-185.4 17.816h45.03V682.05H4.33v30.507zm49.359 0h38.59v-16.67H53.69v16.67zm42.922 0h33.816v-204.55H96.612v204.55zm96.198-6.953l2.407 8.49 38.8-10.996-2.406-8.489-38.801 10.995zm.97 13.315c-.93 0-1.819-.6-2.122-1.509l-6.667-23.522-.014-.05c-.006-.018-.01-.036-.016-.052l-37.53-132.418c-.008-.022-.014-.044-.02-.064-.006-.022-.012-.044-.016-.066l-7.3-25.754c-.009-.026-.017-.05-.023-.076-.008-.026-.016-.05-.022-.075l-3.004-10.605a2.458 2.458 0 0 1-.1-.349l-2.186-7.719v198.017c0 1.195-1.012 2.21-2.208 2.21H94.488a.147.147 0 0 0-.042 0H2.21c-1.194 0-2.21-1.015-2.21-2.21V501.182c0-1.196 1.016-2.208 2.21-2.208h49.27c1.196 0 2.21 1.012 2.21 2.208v8.83h38.59v-4.126c0-1.195 1.013-2.21 2.208-2.21h38.064c1.196 0 2.208 1.015 2.208 2.21v3.348c.078-.03.158-.056.237-.076l42.815-12.129c1.092-.309 2.293.307 2.68 1.373l9.518 33.583.012.042.012.044L229.24 670.37a.818.818 0 0 1 .034.113c.012.04.022.078.03.116l2.776 9.781.028.1c.01.034.02.068.027.1l6.626 23.379c.01.027.016.055.024.085.133.562.034 1.19-.271 1.68a2.236 2.236 0 0 1-1.38.988l-42.776 12.127c-.191.054-.384.08-.578.08zm829.668-134.354v13.867l7.142-7.142a119.076 119.076 0 0 0-7.142-6.725zm-11.337 6.863l7.005 7.006v-13.771a128.293 128.293 0 0 0-7.005 6.765zm11.337 13.129v23.715l20.62-20.623c-3.394-4.977-7.02-9.405-10.501-13.213l-10.119 10.12zm-24.732 3.311l20.4 20.404v-23.715l-9.955-9.955c-3.363 3.734-6.995 8.195-10.445 13.266zm24.732 26.528v23.711l30.933-30.942c-2.16-5.69-4.89-10.976-7.897-15.81l-23.036 23.04zm-35.119-7.074l30.787 30.787v-23.713L996.3 611.575c-2.998 4.806-5.766 10.086-7.97 15.747zm35.12 36.91v23.712l35.832-35.832c-.104-7.205-1.335-14.028-3.326-20.398l-32.507 32.519zM983.271 652.1l35.844 35.844v-23.711l-32.395-32.394c-2.048 6.36-3.34 13.15-3.45 20.26zm75.612 6.531l-32.068 32.069c16.534-2.423 29.641-15.532 32.068-32.069zm-75.218-.014c2.421 16.543 15.539 29.658 32.083 32.083l-32.083-32.083zm37.616 61.822a2.166 2.166 0 0 1-2.166-2.166v-22.896c-22.348-1.13-40.182-19.667-40.182-42.29 0-42.706 39.067-73.3 41.011-74.792.361-.283.811-.455 1.303-.463H1021.318c.476.008.917.17 1.271.44.427.318 5.992 4.512 12.98 11.956 12.796 13.63 28.05 35.598 28.05 62.858 0 22.622-17.83 41.157-40.17 42.29v22.897c0 1.198-.971 2.166-2.167 2.166zm-70.832-99.39h1.387v-2.851h-57.942v2.851h1.389c.171-.043.352-.067.54-.067h54.086c.185 0 .367.024.54.067zm-52.42 4.33c.774 20.63 12.302 31.537 24.833 42.66 12.537-11.121 24.066-22.03 24.84-42.66h-49.674zm24.833 91.314h24.84c-.772-20.723-12.289-31.668-24.836-42.798-12.55 11.13-24.066 22.075-24.838 42.798h24.834zm-28.968 7.247h57.942v-2.85h-57.942v2.85zm60.108 4.33h-62.274a2.166 2.166 0 0 1-2.166-2.164v-7.18c0-1.195.972-2.165 2.166-2.165h1.965c.73-22.468 13.214-34.543 25.867-45.796-12.635-11.224-25.106-23.26-25.865-45.586h-1.967a2.167 2.167 0 0 1-2.166-2.166v-7.18c0-1.196.972-2.165 2.166-2.165h62.274c1.195 0 2.166.969 2.166 2.164v7.181c0 1.198-.97 2.166-2.166 2.166h-1.965c-.759 22.327-13.234 34.362-25.867 45.588 12.654 11.247 25.138 23.316 25.87 45.794h1.962c1.195 0 2.166.97 2.166 2.166v7.18c0 1.195-.97 2.163-2.166 2.163zM311.125 627.982c7.307 1.771 15.11 4.435 23.138 7.966 7.885-3.453 15.686-6.13 23.114-7.923-5.593-16.247-13.962-26.776-23.13-26.776-9.162 0-17.527 10.511-23.122 26.733zm-1.36 4.246c-1.78 5.97-3.2 12.58-4.187 19.633a181.777 181.777 0 0 1 23.29-13.434c-6.602-2.676-13.044-4.753-19.104-6.2zm41.75 12.487a177.91 177.91 0 0 1 11.393 7.16c-.986-7.082-2.417-13.725-4.204-19.715-6.153 1.465-12.591 3.565-19.127 6.237a180.98 180.98 0 0 1 11.938 6.318zm-60.373-14.934c-9.872 0-17.262 2.642-20.448 8.157-3.808 6.596-1.048 16.985 7.574 28.51a90.27 90.27 0 0 0 3.975 4.926c5.19-5.45 11.411-10.89 18.493-16.088.956-8.71 2.55-16.796 4.669-24-5.133-.997-9.935-1.505-14.263-1.505zm76.61 25.527c6.95 5.117 13.183 10.55 18.458 16.102a88.925 88.925 0 0 0 4.009-4.962c8.62-11.525 11.38-21.914 7.57-28.51-3.804-6.599-14.182-9.406-28.474-7.699a87.81 87.81 0 0 0-6.253.98c2.128 7.23 3.73 15.345 4.69 24.089zm.536 5.828c.327 4.372.498 8.877.498 13.488 0 4.615-.17 9.124-.498 13.496 5.603-4.34 10.655-8.877 15.008-13.492-4.353-4.613-9.405-9.152-15.008-13.492zm-83.052 13.544c4.345 4.597 9.38 9.118 14.96 13.442a181.318 181.318 0 0 1-.498-13.498c0-4.591.17-9.078.494-13.43-5.637 4.393-10.664 8.945-14.956 13.486zm19.648 16.935a172.834 172.834 0 0 0 14.247 9.173 172.81 172.81 0 0 0 15.078 7.757 168.33 168.33 0 0 0 15.142-7.757 172.406 172.406 0 0 0 14.25-9.175c.559-5.472.854-11.165.854-16.99 0-5.82-.295-11.51-.853-16.98a172.42 172.42 0 0 0-14.251-9.178 168.33 168.33 0 0 0-15.142-7.757 172.81 172.81 0 0 0-15.078 7.757 167.746 167.746 0 0 0-14.25 9.214 167.03 167.03 0 0 0-.851 16.945c0 5.824.295 11.517.854 16.99zm.694 5.768c.984 7.054 2.407 13.67 4.186 19.64 6.062-1.446 12.5-3.52 19.103-6.196a178.671 178.671 0 0 1-11.9-6.29 179.434 179.434 0 0 1-11.39-7.154zm34 13.474c6.535 2.672 12.971 4.772 19.124 6.237 1.787-5.99 3.218-12.631 4.204-19.713a176.943 176.943 0 0 1-11.391 7.155 181.02 181.02 0 0 1-11.938 6.32zm-57.257-32.963c-11.274 12.967-16.208 25.48-11.627 33.42 4.583 7.93 17.873 9.918 34.71 6.654-2.118-7.21-3.714-15.305-4.67-24.02-6.93-5.1-13.147-10.519-18.413-16.054zm80.739 40.14c2.128.409 4.214.737 6.255.98 14.294 1.706 24.67-1.101 28.471-7.699 3.812-6.595 1.053-16.987-7.567-28.508a88.925 88.925 0 0 0-4.01-4.961c-5.274 5.553-11.507 10.987-18.457 16.102-.96 8.743-2.564 16.857-4.692 24.086zm-51.933 3.236c5.593 16.222 13.958 26.73 23.12 26.73 9.166 0 17.537-10.528 23.128-26.774-7.426-1.793-15.23-4.47-23.112-7.92-8.028 3.53-15.829 6.193-23.136 7.964zm23.12 31.06c-11.332 0-21.227-11.68-27.491-30.095-19.08 3.787-34.141 1.058-39.81-8.756-5.671-9.82-.486-24.246 12.358-38.889a92.436 92.436 0 0 1-4.503-5.55c-9.85-13.164-12.641-24.98-7.857-33.267 5.669-9.814 20.73-12.544 39.812-8.754 6.262-18.421 16.16-30.1 27.491-30.1 11.34 0 21.241 11.7 27.502 30.146a94.387 94.387 0 0 1 7.051-1.126c16.328-1.955 27.958 1.544 32.739 9.836 4.786 8.283 1.998 20.099-7.853 33.266a93.143 93.143 0 0 1-4.537 5.587 93.749 93.749 0 0 1 4.537 5.585c9.851 13.167 12.639 24.981 7.85 33.266-4.78 8.29-16.404 11.778-32.736 9.835a93.444 93.444 0 0 1-7.053-1.127c-6.261 18.443-16.16 30.143-27.5 30.143zM137.89 751.14v1.69l2.776-.841-2.776-.85zm-11.686-5.563v12.83l7.355-2.94v-6.951l-7.355-2.94zm-78.647-1.033c-1.983 0-3.86.778-5.284 2.188a7.445 7.445 0 0 0-2.156 5.263c0 1.996.769 3.867 2.168 5.272a7.453 7.453 0 0 0 5.272 2.17h9.86v-14.893h-9.86zm14.191 14.893h6.833v-14.895h-6.833v14.895zm11.166 0h48.958v-14.895H72.914v14.895zm51.124 4.33H47.557c-3.138 0-6.097-1.22-8.331-3.435a11.725 11.725 0 0 1-3.441-8.337c0-3.139 1.217-6.096 3.427-8.323 2.256-2.236 5.215-3.457 8.345-3.457h11.935l.09-.002h64.456c.319 0 .622.07.897.193l23.966 9.58c.008.002.016.006.026.008 0 .002.002.002.002.002l.004.002a2.149 2.149 0 0 1 .433.241c0 .002.006.004.008.006.004.002.008.004.008.006a.027.027 0 0 1 .008.006h.002c.243.181.444.413.591.674.002.004.004.006.004.01.002-.002 0 0 .006.006a.013.013 0 0 1 .004.01c-.002 0 .004.004.004.008l.018.03c.136.26.22.551.24.856v.008l.001.01c-.002.002-.002.006 0 .01-.002.002-.002.004 0 .01-.002.002-.006.006.002.01-.002.004-.002.004 0 .012-.002.002-.002.004 0 .01v.012c-.002.002-.002.002 0 .01V751.964c.002.004.002.006.002.01v.046c-.004.004-.004.008-.002.012-.002.004-.002.008 0 .01V752.085l-.004.056v.012l-.002.008c-.002.004-.002.006 0 .012-.002 0-.004.006-.002.01v.014l-.002.008v.01l-.002.01v.01l-.002.008v.008l-.008.06c-.033.239-.11.466-.217.673v.002c-.004.004-.002.004-.006.01l-.004.01-.002.002c-.002.006-.002.008-.004.008l-.004.008c-.002 0-.002.002-.002.002l-.004.008-.006.01a2.131 2.131 0 0 1-.488.598c-.002.002.01 0-.01.008l-.008.005c-.002.006-.006.006-.006.008-.004.002-.006.002-.01.008-.171.14-.364.253-.574.337l-24.01 9.586a2.218 2.218 0 0 1-.727.17h-.008c-.038.002-.074.002-.112.002zm458.437 31.293h7.255l1.755-7.374h-7.259l-1.751 7.374zm7.633 9.93a2.163 2.163 0 0 1-2.106-2.666l.695-2.934h-7.25l-.937 3.936a2.164 2.164 0 1 1-4.21-1l.695-2.936h-3.1a2.165 2.165 0 1 1 0-4.33h4.13l1.752-7.374h-2.609a2.166 2.166 0 0 1-2.166-2.164c0-1.198.973-2.166 2.166-2.166h3.637l.938-3.943a2.165 2.165 0 0 1 4.21 1.002l-.697 2.94h7.257l.94-3.942a2.16 2.16 0 0 1 2.609-1.606 2.165 2.165 0 0 1 1.602 2.608l-.697 2.94h3.104a2.166 2.166 0 1 1 0 4.33h-4.136l-1.756 7.375h2.618c1.194 0 2.166.969 2.166 2.166a2.166 2.166 0 0 1-2.166 2.164h-3.646l-.939 3.936a2.164 2.164 0 0 1-2.104 1.663zm-245.587-6.724h7.253l1.757-7.376h-7.253l-1.757 7.376zm-4.075 9.937a2.166 2.166 0 0 1-2.106-2.668l.7-2.939h-3.113a2.166 2.166 0 1 1 0-4.33h4.144l1.756-7.376h-2.616a2.167 2.167 0 0 1-2.166-2.166c0-1.196.972-2.164 2.166-2.164h3.646l.939-3.935a2.163 2.163 0 1 1 4.21 1.004l-.696 2.93h7.25l.938-3.932a2.163 2.163 0 1 1 4.21 1.002l-.695 2.93h3.102a2.165 2.165 0 1 1 0 4.33h-4.134l-1.756 7.377h2.617c1.193 0 2.165.969 2.165 2.164a2.167 2.167 0 0 1-2.165 2.166h-3.647l-.94 3.944a2.16 2.16 0 0 1-2.609 1.606 2.165 2.165 0 0 1-1.602-2.609l.698-2.94h-7.251l-.94 3.943a2.164 2.164 0 0 1-2.105 1.663zm352.218-63.29c.07.002.138.008.211.002a9.092 9.092 0 0 0 6.464-2.688c2.537-2.527 3.34-6.197 2.107-9.588a2.162 2.162 0 0 1 1.239-2.754c1.506-.594 3.254-.721 4.94-.614 3.419.21 6.617 1.387 7.123 1.58.285.108.544.275.76.493l12.062 12.06 11.717-11.714c.611-1.76 1.247-4.471 1.165-6.605-4.236.7-8.64-.656-11.718-3.74-5.227-5.225-5.259-13.71-.094-18.975 0 0-.014-.004.004-.004l.088-.09.072-.07a13.47 13.47 0 0 1 10.12-3.86 13.425 13.425 0 0 1 8.89 3.928c3.091 3.082 4.446 7.484 3.74 11.722 1.88.072 4.128-.392 5.85-.914.256-.08.5-.16.728-.24l11.76-11.754-38.41-38.395c0-.002-.002-.004-.004-.006a5.486 5.486 0 0 0-3.908-1.624h-.008a5.518 5.518 0 0 0-3.927 1.628l-38.387 38.387 12.09 12.097c.214.215.381.474.491.757.287.752 2.762 7.48.952 12.044a2.163 2.163 0 0 1-2.755 1.233c-3.342-1.225-7.108-.41-9.6 2.08a9.09 9.09 0 0 0-2.685 6.478c0 2.445.955 4.746 2.686 6.476a9.12 9.12 0 0 0 6.237 2.67zm68.573 32.16l11.726 11.729 38.387-38.397c.002 0 .002-.002.002-.002a5.492 5.492 0 0 0 1.628-3.918 5.523 5.523 0 0 0-1.63-3.923l-38.395-38.401-12.077 12.077a2.19 2.19 0 0 1-.757.492 26.51 26.51 0 0 1-1.339.456c-2.347.728-7.185 1.9-10.722.496a2.164 2.164 0 0 1-1.233-2.755c1.221-3.342.408-7.108-2.075-9.593a9.129 9.129 0 0 0-5.408-2.614 9.17 9.17 0 0 0-7.55 2.616l-.001.002c-3.551 3.561-3.541 9.366.025 12.938 2.495 2.491 6.255 3.31 9.583 2.092a2.165 2.165 0 0 1 2.757 1.238c1.794 4.549-.66 11.276-.946 12.027a2.115 2.115 0 0 1-.492.761l-12.081 12.081 11.75 11.744c1.473.513 3.615 1.04 5.525 1.15.361.02.71.026 1.055.01-.706-4.234.643-8.636 3.72-11.72a13.427 13.427 0 0 1 5.619-3.362c1.269-.388 2.6-.587 3.963-.587h.006c3.593 0 6.97 1.4 9.505 3.94a13.386 13.386 0 0 1 3.955 9.53 13.383 13.383 0 0 1-2.425 7.727c-.448.643-.96 1.257-1.532 1.829a13.21 13.21 0 0 1-2.4 1.895 13.537 13.537 0 0 1-9.319 1.829c-.093 2.313.688 5.195 1.176 6.613zm-48.089 12.448c3.361 1.476 7.436.845 10.19-1.897.092-.094.181-.19.271-.285l.006-.008.01-.008c3.272-3.579 3.17-9.168-.299-12.647a9.122 9.122 0 0 0-2.556-1.803 9.236 9.236 0 0 0-4.83-.801 9.446 9.446 0 0 0-2.202.518 2.165 2.165 0 0 1-2.758-1.231c-1.807-4.553.666-11.29.954-12.044.11-.283.277-.542.49-.757l12.076-12.073-11.753-11.75c-1.576-.546-3.917-1.112-5.925-1.164a13.894 13.894 0 0 0-.646.004c.701 4.248-.652 8.654-3.732 11.73a13.466 13.466 0 0 1-8.83 3.92c-.25.014-.551.016-.754.02a13.38 13.38 0 0 1-9.511-3.93 13.405 13.405 0 0 1-3.951-9.552 13.374 13.374 0 0 1 3.95-9.528c3.083-3.09 7.487-4.45 11.73-3.742.093-2.312-.688-5.195-1.176-6.612l-11.725-11.724-38.39 38.39c-.003 0-.003.003-.005.003a5.488 5.488 0 0 0-1.628 3.92c0 1.478.578 2.869 1.628 3.913l38.41 38.41 12.06-12.068c.062-.062.128-.12.2-.174.173-.141.372-.255.583-.337.756-.286 7.495-2.745 12.04-.946a2.166 2.166 0 0 1 1.237 2.756c-1.24 3.397-.44 7.075 2.084 9.6a9.205 9.205 0 0 0 2.752 1.897zm-27.896 2.341l38.407 38.407a5.549 5.549 0 0 0 7.837 0l38.397-38.397-12.093-12.085a2.18 2.18 0 0 1-.493-.759c-.286-.753-2.757-7.492-.942-12.045a2.168 2.168 0 0 1 2.778-1.224c.14.05.277.098.416.142a9.242 9.242 0 0 0 7.151-.721 8.991 8.991 0 0 0 2.005-1.51c.48-.481.9-1.005 1.26-1.563 2.243-3.539 1.825-8.301-1.258-11.39-2.244-2.237-5.372-3.064-8.265-2.5a9.109 9.109 0 0 0-4.663 2.51c-2.497 2.493-3.32 6.253-2.098 9.579a2.167 2.167 0 0 1-1.231 2.76c-1.658.657-3.605.75-5.434.583-3.232-.283-6.157-1.36-6.64-1.546a2.217 2.217 0 0 1-.753-.49l-12.07-12.067-11.71 11.718c-.617 1.762-1.254 4.477-1.169 6.612 4.24-.702 8.638.647 11.715 3.732a13.384 13.384 0 0 1 3.957 9.526c0 3.59-1.393 6.97-3.928 9.519l-.001.002-.028.032a13.376 13.376 0 0 1-9.523 3.947h-.006c-2.19.002-4.3-.518-6.189-1.495a13.46 13.46 0 0 1-3.361-2.452c-3.089-3.087-4.444-7.49-3.734-11.729-2.3-.093-5.183.678-6.604 1.166l-11.73 11.738zm42.326 44.355a9.84 9.84 0 0 1-6.982-2.887l-39.935-39.936c-.04-.04-.076-.08-.114-.121l-39.823-39.826a9.787 9.787 0 0 1-2.9-6.978c0-2.64 1.03-5.12 2.904-6.986l39.797-39.798c.038-.043.076-.085.118-.127l39.93-39.927a9.816 9.816 0 0 1 6.991-2.898h.01a9.783 9.783 0 0 1 6.974 2.902l39.94 39.923c.04.042.08.084.115.127l39.812 39.816a9.826 9.826 0 0 1 2.895 6.982 9.807 9.807 0 0 1-2.895 6.984l-39.927 39.935a.047.047 0 0 0-.014.014l-39.916 39.914a9.839 9.839 0 0 1-6.98 2.887zM415.815 862.49c-3.234-.012-6.252-1.265-8.516-3.529-2.42-2.42-3.523-6.62-3.523-9.496l-.014-27.062a2.165 2.165 0 0 1 4.332-.002l.012 27.064c0 2.054.843 5.023 2.256 6.436a7.702 7.702 0 0 0 5.453 2.26 7.663 7.663 0 0 0 5.42-2.258 2.163 2.163 0 1 1 3.063 3.058 11.967 11.967 0 0 1-8.483 3.53zm208.071-66.289h8.527l-1.887-4.728h-4.745l-1.895 4.728zm-1.032 41.306h10.587v-36.976h-10.587v36.976zm0 8.66h10.587v-4.33h-10.587v4.33zm0 4.33v7.145c0 1.413.552 2.75 1.558 3.762 1.995 1.965 5.484 1.98 7.487-.01a5.292 5.292 0 0 0 1.542-3.752v-7.145h-10.587zm5.304 16.771a9.628 9.628 0 0 1-6.8-2.797c-1.833-1.845-2.836-4.264-2.836-6.829v-59.265c0-.042.002-.082.004-.122v-.004c.014-.259.072-.506.17-.735l7.45-18.605a2.13 2.13 0 0 1 .35-.587v-.002c.003-.002.003 0 .009-.008 0-.004.002-.006.008-.01l.008-.01a2.17 2.17 0 0 1 1.637-.75h.002c.148 0 .295.016.439.046l.016.002.01.002c.695.156 1.279.644 1.546 1.317l7.43 18.61a2.208 2.208 0 0 1 .168.724c.002.044.004.088.004.132v59.265a9.603 9.603 0 0 1-9.615 9.626zM399.426 768.45h1.455c1.196 0 2.166.969 2.166 2.166l.008 80.313c0 2.903 1.084 7.112 3.467 9.485a11.713 11.713 0 0 0 8.349 3.463c3.152 0 6.115-1.227 8.343-3.46a11.696 11.696 0 0 0 3.463-8.354v-4.862c-.08.008-.162.014-.245.014h-4.737a2.166 2.166 0 1 1 0-4.33h4.737c.083 0 .165.004.245.014v-9.11c-.08.01-.162.014-.245.014h-4.737a2.165 2.165 0 1 1 0-4.33h4.737c.083 0 .165.006.245.014v-9.13c-.08.008-.162.014-.245.014h-4.737a2.165 2.165 0 0 1 0-4.33h4.737c.083 0 .165.004.245.014v-9.11c-.08.008-.162.014-.245.014h-4.737a2.165 2.165 0 0 1 0-4.33h4.737c.083 0 .165.004.245.014v-9.12c-.08.008-.162.014-.245.014h-4.737a2.165 2.165 0 1 1 0-4.33h4.737c.083 0 .165.006.245.014v-18.605c0-1.197.97-2.166 2.166-2.166h1.452v-4.515h-30.869v4.515zm15.445 99.757h-.014a16.016 16.016 0 0 1-11.396-4.73c-3.27-3.26-4.738-8.652-4.738-12.548l-.004-78.149h-1.459a2.165 2.165 0 0 1-2.165-2.164v-8.845c0-1.197.97-2.166 2.165-2.166h35.201c1.196 0 2.166.969 2.166 2.166v8.845c0 1.196-.97 2.164-2.166 2.164h-1.452v79.283c0 4.326-1.682 8.38-4.735 11.417a16.012 16.012 0 0 1-11.403 4.727zm442.083 7.908h4.936v-38.863h-13.163v3.892h6.061c1.196 0 2.166.968 2.166 2.164v32.807zm7.102 4.33h-9.268a2.168 2.168 0 0 1-2.166-2.166v-32.805h-6.06a2.167 2.167 0 0 1-2.167-2.166v-8.222c0-1.195.973-2.164 2.166-2.164h17.495c1.193 0 2.166.969 2.166 2.164v43.193a2.168 2.168 0 0 1-2.166 2.166zm-6.95-70.627c-25.322 0-45.921 20.6-45.921 45.921 0 25.324 20.6 45.927 45.92 45.927 25.328 0 45.934-20.603 45.934-45.927 0-25.321-20.606-45.92-45.933-45.92zm0 96.178c-27.709 0-50.253-22.546-50.253-50.257 0-27.709 22.544-50.25 50.253-50.25 27.717 0 50.265 22.541 50.265 50.25 0 27.711-22.548 50.257-50.265 50.257zM230.75 765.802l65.209 65.213c-2.569-34.782-30.429-62.644-65.21-65.213zM97.51 834.1h33.184l-17.178-17.188c-7.516 7.249-12.975 13.516-16.006 17.188zm39.305 0h47.956l-41.416-41.414c-10.186 6.837-19.14 14.233-26.693 21.249l20.153 20.165zm54.081 0h47.95l-59.892-59.885c-11.574 4.294-22.25 9.89-31.897 16.046l43.839 43.839zm54.073 0h47.953l-68.485-68.487c-14.564.122-28.269 2.76-40.957 7.004L244.97 834.1zm-147.358 4.33c3.095 3.622 8.61 9.76 16.166 16.913l16.915-16.913h-33.08zm19.336 19.862c7.381 6.745 16.411 14.163 26.813 21.135l41.009-40.997h-47.954l-19.868 19.862zm30.513 23.558c9.592 6.133 20.252 11.796 31.777 16.186l59.608-59.606h-47.949l-43.436 43.42zm148.499-40.336l-65.215 65.22c34.782-2.567 62.646-30.433 65.215-65.22zm-112.226 58.15c12.674 4.367 26.33 7.125 40.7 7.257l68.489-68.491H244.97l-61.236 61.234zm41.766 11.59c-16.351 0-31.797-3.303-45.985-8.512a2.157 2.157 0 0 1-.998-.37c-12.816-4.804-24.588-11.149-35.063-17.99a2.18 2.18 0 0 1-1.212-.796c-11.56-7.664-21.49-15.893-29.436-23.244a2.192 2.192 0 0 1-.893-.83c-12.734-11.9-20.119-21.301-20.587-21.905a2.145 2.145 0 0 1-.462-1.224v-.01a2.655 2.655 0 0 1 .002-.253 2.14 2.14 0 0 1 .434-1.163c.482-.65 8.014-10.683 21.47-23.31h-.002c24.467-22.976 63.884-50.368 112.732-50.368 40.623 0 73.803 32.471 74.953 72.82h43.19a2.165 2.165 0 1 1 0 4.33h-43.19c-1.15 40.352-34.33 72.826-74.953 72.826zm631.606-111.847c-31.06 0-56.326 25.27-56.326 56.332 0 31.06 25.265 56.329 56.326 56.329 31.064 0 56.336-25.268 56.336-56.329 0-31.062-25.272-56.332-56.336-56.332zm0 116.99c-33.448 0-60.658-27.21-60.658-60.658 0-33.45 27.21-60.662 60.658-60.662 33.451 0 60.668 27.213 60.668 60.662 0 33.448-27.217 60.658-60.668 60.658zm-7.349 9.609a4.374 4.374 0 0 1 3.706 2.018l3.645 5.623 3.656-5.63c.702-1.12 1.897-1.856 3.266-1.993a4.433 4.433 0 0 1 3.599 1.309l4.676 4.806 2.471-6.223c.542-1.28 1.564-2.208 2.821-2.596a4.475 4.475 0 0 1 3.814.6l5.508 3.783 1.221-6.583a4.486 4.486 0 0 1 2.256-3.095 4.417 4.417 0 0 1 3.834-.167l6.16 2.65-.09-6.703c-.033-1.317.549-2.59 1.595-3.465 1.076-.87 2.437-1.196 3.744-.915l6.55 1.395-1.39-6.55a4.348 4.348 0 0 1 .915-3.744c.823-1.01 2.083-1.602 3.436-1.602l6.733.09-2.65-6.16c-.527-1.192-.48-2.58.135-3.787.675-1.247 1.813-2.066 3.14-2.297l6.572-1.222-3.798-5.517a4.415 4.415 0 0 1-.594-3.788 4.384 4.384 0 0 1 2.58-2.82l6.241-2.484-4.798-4.673a4.38 4.38 0 0 1-1.321-3.604 4.431 4.431 0 0 1 1.97-3.27l5.646-3.66-5.625-3.647a4.438 4.438 0 0 1-1.991-3.268 4.359 4.359 0 0 1 1.337-3.616l4.782-4.657-6.229-2.48a4.454 4.454 0 0 1-2.596-2.848 4.45 4.45 0 0 1 .6-3.774l3.794-5.514-6.594-1.22c-1.293-.224-2.425-1.04-3.082-2.233-.65-1.271-.698-2.662-.162-3.873l2.643-6.142-6.703.09c-1.421-.018-2.635-.588-3.476-1.606a4.387 4.387 0 0 1-.902-3.748l1.387-6.542-6.55 1.393a4.385 4.385 0 0 1-3.73-.9 4.434 4.434 0 0 1-1.608-3.505l.09-6.677-6.152 2.65a4.43 4.43 0 0 1-3.841-.156 4.476 4.476 0 0 1-2.256-3.096l-1.223-6.592-5.524 3.796a4.417 4.417 0 0 1-3.796.588 4.5 4.5 0 0 1-2.803-2.539l-2.493-6.282-4.67 4.802c-.98 1.002-2.316 1.474-3.657 1.305a4.37 4.37 0 0 1-3.228-2.008l-3.646-5.6-3.643 5.623a4.388 4.388 0 0 1-3.277 1.993c-1.278.161-2.647-.329-3.601-1.323l-4.667-4.794-2.48 6.235a4.436 4.436 0 0 1-2.82 2.588 4.408 4.408 0 0 1-3.796-.586l-5.517-3.796-1.22 6.58a4.437 4.437 0 0 1-2.257 3.1 4.414 4.414 0 0 1-3.832.164l-6.165-2.652.096 6.703a4.5 4.5 0 0 1-1.59 3.465 4.415 4.415 0 0 1-3.754.914l-6.55-1.393 1.395 6.548a4.385 4.385 0 0 1-.91 3.734c-.838 1.022-2.05 1.596-3.41 1.614l-6.765-.09 2.65 6.16a4.392 4.392 0 0 1-.161 3.833 4.45 4.45 0 0 1-3.125 2.26l-6.563 1.215 3.796 5.514a4.384 4.384 0 0 1 .564 3.841c-.361 1.236-1.304 2.276-2.565 2.78l-6.225 2.479 4.8 4.674a4.377 4.377 0 0 1 1.314 3.601 4.415 4.415 0 0 1-2.007 3.274l-5.601 3.64 5.619 3.649a4.43 4.43 0 0 1 1.989 3.287 4.402 4.402 0 0 1-1.308 3.593l-4.804 4.68 6.223 2.477a4.375 4.375 0 0 1 2.585 2.842c.4 1.215.19 2.65-.584 3.774l-3.798 5.515 6.59 1.226a4.348 4.348 0 0 1 3.102 2.265 4.369 4.369 0 0 1 .157 3.818l-2.648 6.157 6.707-.09c1.405.016 2.652.612 3.477 1.634a4.384 4.384 0 0 1 .897 3.73l-1.391 6.532 6.546-1.395a4.467 4.467 0 0 1 3.704.875c1.086.923 1.662 2.182 1.644 3.507l-.096 6.701 6.159-2.648a4.4 4.4 0 0 1 3.832.167c1.16.608 2.012 1.766 2.261 3.083l1.222 6.591 5.513-3.792a4.45 4.45 0 0 1 3.774-.6 4.444 4.444 0 0 1 2.838 2.591l2.486 6.24 4.679-4.801a4.433 4.433 0 0 1 3.166-1.333zm7.349 13.784a2.167 2.167 0 0 1-1.817-.988l-5.464-8.43-7.138 7.18a2.164 2.164 0 0 1-3.563-.71l-3.713-9.326-8.403 5.643a2.17 2.17 0 0 1-2.056.217 2.17 2.17 0 0 1-1.302-1.606l-1.827-9.863-9.355 3.895a2.162 2.162 0 0 1-3.019-2.018l.146-10.039-9.93 2.005a2.152 2.152 0 0 1-1.982-.588 2.162 2.162 0 0 1-.586-1.98l2.093-9.812-10.127.02c-.72-.026-1.42-.353-1.829-.963a2.17 2.17 0 0 1-.19-2.058l3.966-9.228-9.941-1.944a2.162 2.162 0 0 1-1.604-1.303 2.16 2.16 0 0 1 .217-2.055l5.689-8.263-9.363-3.848a2.163 2.163 0 0 1-.707-3.563l7.189-7.001-8.429-5.617a2.166 2.166 0 0 1 0-3.63l8.407-5.465.024-.014a.076.076 0 0 0 .024-.05l-7.216-7.071a2.161 2.161 0 0 1-.613-1.973 2.161 2.161 0 0 1 1.32-1.59l9.324-3.714-5.649-8.405a2.164 2.164 0 0 1 1.387-3.357l9.867-1.827-3.891-9.345a2.17 2.17 0 0 1 .189-2.059c.409-.612 1.1-1.024 1.83-.962l10.04.135-2.007-9.927a2.162 2.162 0 0 1 .586-1.98 2.158 2.158 0 0 1 1.983-.588l9.811 2.088-.028-10.124c-.01-.734.351-1.423.96-1.831a2.174 2.174 0 0 1 2.061-.19l9.228 3.967 1.952-9.93a2.168 2.168 0 0 1 3.357-1.39l8.262 5.683 3.856-9.369a2.168 2.168 0 0 1 1.59-1.323 2.158 2.158 0 0 1 1.972.614l7.006 7.197 5.586-8.436a2.171 2.171 0 0 1 1.817-.989h.002c.731 0 1.413.37 1.813.985l5.484 8.422 7.14-7.179a2.163 2.163 0 0 1 3.563.711l3.701 9.338 8.417-5.655a2.165 2.165 0 0 1 3.353 1.39l1.827 9.862 9.35-3.898a2.17 2.17 0 0 1 2.058.19 2.16 2.16 0 0 1 .96 1.829l-.135 10.04 9.919-2.002a2.163 2.163 0 0 1 2.568 2.566l-2.082 9.812 10.126-.018c.734-.054 1.423.35 1.83.962.406.61.478 1.385.187 2.059l-3.967 9.225 9.937 1.947a2.165 2.165 0 0 1 1.389 3.356l-5.685 8.263 9.36 3.857a2.163 2.163 0 0 1 .71 3.563l-7.19 7.002 8.431 5.597a2.162 2.162 0 0 1 0 3.632l-8.426 5.464 7.185 7.154a2.163 2.163 0 0 1-.71 3.562l-9.329 3.712 5.653 8.401a2.165 2.165 0 0 1-1.388 3.356l-9.874 1.835 3.904 9.337c.29.674.219 1.449-.187 2.058-.409.61-1.106.929-1.83.963l-10.038-.136 1.994 9.93a2.163 2.163 0 0 1-.588 1.98 2.151 2.151 0 0 1-1.98.586l-9.812-2.09.028 10.126a2.155 2.155 0 0 1-.96 1.829 2.17 2.17 0 0 1-2.058.187l-9.218-3.963-1.959 9.931a2.164 2.164 0 0 1-3.353 1.39l-8.274-5.684-3.845 9.365a2.163 2.163 0 0 1-1.588 1.325 2.144 2.144 0 0 1-1.975-.613l-7.004-7.196-5.607 8.447c-.4.616-1.082.986-1.817.986zm-24.746 41.62c-.038 0-.08 0-.12-.003a2.168 2.168 0 0 1-1.855-1.275l-9.37-20.84a2.168 2.168 0 0 1 .099-1.967l7.448-12.948-7.578 12.799a2.16 2.16 0 0 1-1.751 1.081l-23.817 1.38a2.139 2.139 0 0 1-1.955-1.007 2.161 2.161 0 0 1-.066-2.198l15.636-28.442a2.164 2.164 0 0 1 2.94-.855 2.168 2.168 0 0 1 .856 2.941l-13.753 25.011 18.74-1.084 6.823-11.875c1.233-2.119 3.94-2.846 6.05-1.626 2.093 1.205 2.83 3.905 1.637 6.02l-6.906 12.002 7.203 16.02 19.966-33.817a2.164 2.164 0 1 1 3.728 2.202l-22.09 37.416a2.167 2.167 0 0 1-1.865 1.064zm49.502 0a2.163 2.163 0 0 1-1.863-1.065l-22.1-37.416a2.164 2.164 0 1 1 3.728-2.202l19.974 33.818 7.304-16.248-6.762-11.762c-1.208-2.132-.467-4.836 1.64-6.037a4.36 4.36 0 0 1 3.325-.443 4.406 4.406 0 0 1 2.7 2.067l6.839 11.897 18.49 1.07-13.742-25.013a2.166 2.166 0 0 1 3.794-2.086l15.63 28.442a2.166 2.166 0 0 1-.066 2.198 2.144 2.144 0 0 1-1.957 1.006l-23.568-1.36a2.166 2.166 0 0 1-1.754-1.083l-7.416-12.907 7.153 12.812c.345.602.383 1.333.098 1.966l-9.473 21.068a2.165 2.165 0 0 1-1.853 1.275c-.042.002-.082.002-.121.002zM640.6 893.173h1.383v-2.85h-57.93v2.85h1.39c.17-.044.351-.068.537-.068h54.084c.183 0 .365.024.536.068zm-52.415 4.33c.775 20.627 12.3 31.536 24.834 42.659 12.537-11.12 24.064-22.034 24.837-42.66h-49.67zm24.834 91.314h24.837c-.77-20.723-12.288-31.668-24.835-42.797-12.547 11.129-24.065 22.074-24.836 42.797h24.834zm-28.966 7.249h57.93v-2.852h-57.93v2.852zm60.096 4.33h-62.262a2.167 2.167 0 0 1-2.166-2.166v-7.182c0-1.195.972-2.164 2.166-2.164h1.963c.73-22.47 13.212-34.543 25.865-45.793-12.635-11.226-25.104-23.261-25.863-45.588h-1.965a2.168 2.168 0 0 1-2.166-2.166v-7.18c0-1.195.972-2.163 2.166-2.163h62.262c1.195 0 2.166.968 2.166 2.164v7.179c0 1.195-.97 2.166-2.166 2.166h-1.957c-.759 22.327-13.232 34.364-25.865 45.59 12.654 11.246 25.136 23.315 25.867 45.791h1.955c1.195 0 2.166.969 2.166 2.164v7.182c0 1.197-.97 2.166-2.166 2.166zm44.333-52.539l6.97 6.97 10.539-10.539-6.97-6.968a7.43 7.43 0 0 0-10.54 0 7.44 7.44 0 0 0-2.195 5.267 7.517 7.517 0 0 0 2.196 5.27zm10.034 10.03l4.834 4.83 10.537-10.536-4.836-4.832-10.535 10.539zm7.897 7.891l34.617 34.625 10.539-10.538-34.617-34.623-10.539 10.536zm38.409 36.957l7.279 3.124 4.922-4.923-3.125-7.28-9.076 9.079zm12.21 4.316l2.559 1.367-1.365-2.563-1.193 1.196zm7.813 8.795a2.17 2.17 0 0 1-.342-.028c-.006 0-.01 0-.016-.002h-.002l-.016-.002c-.012-.004-.032-.004-.034-.008a.04.04 0 0 1-.018-.004c-.002.002-.002.002-.016-.002l-.006-.002a2.246 2.246 0 0 1-.349-.103l-.012-.006c-.004-.002.024.002-.012-.006-.004-.002-.02-.024-.013-.006l-.018-.006-23.814-10.216c0-.002-.002-.002-.002-.002-.004-.002-.002.004-.016-.006l-.016-.006-.014-.008-.017-.008c-.002-.004-.01-.004-.016-.008 0-.002-.008-.004-.014-.006v-.002c-.012-.004-.024-.01-.036-.016l-.012-.006a2.137 2.137 0 0 1-.375-.247c-.004-.004-.012 0-.012-.01a.016.016 0 0 1-.008-.008c-.004-.002-.008-.004-.012-.008-.002 0-.002-.002-.004-.004-.004-.002-.006-.006-.01-.01l-.012-.01c-.002-.002-.01-.006-.01-.01-.006-.002-.006-.006-.011-.008l-.036-.034a829.53 829.53 0 0 0-.044-.044l-37.664-37.67-.012-.013-7.9-7.89c-.002 0-.002 0-.002-.003l-8.503-8.498c0-.002-.002-.004-.004-.006a11.844 11.844 0 0 1-3.46-8.321 11.77 11.77 0 0 1 3.464-8.335 11.747 11.747 0 0 1 8.32-3.46c3.171.01 6.13 1.24 8.348 3.462l16.393 16.389h.002v.002l37.67 37.675c.026.026.052.052.074.078l.01.01c.175.195.31.413.402.644l10.196 23.77c.004.001.004.007.004.007l.002.004c.126.297.18.614.17.925v.012c-.003.002-.003.006-.003.008v.02c-.03.486-.22.958-.562 1.333l-.006.008c.004.002 0 .004-.006.008-.001.002-.007.012-.007.008-.002.002 0 .006-.008.008-.002.002-.006.003-.006.007-.002.002-.008.006-.008.008-.004.004-.008.006-.01.01-.004 0-.002.004-.008.006 0 .002.002.002-.008.008 0 .002 0 .004-.004.004-.004.004-.006.008-.01.01 0 0-.008.006-.01.01 0 .004-.006.006-.008.01l-.002.002-.008.006c.004.004-.006.006-.01.01 0 0-.002 0-.002.002-.002.002-.006.004-.008.008-.01.006-.008.006-.012.01a.035.035 0 0 1-.01.008l-.01.01h-.002c-.002.004-.006.006-.008.008-.012-.002-.006.008-.008.01l-.004.002c-.002.004-.008.006-.01.01a.03.03 0 0 1-.012.008c-.002.004-.008.006-.01.01-.002.002-.004.008-.012.008l-.012.01-.012.008c-.002.006-.008.006-.01.01l-.002.002a2.18 2.18 0 0 1-.777.389h-.002c-.006.001-.008.003-.014.003-.004.002-.012.002-.012.004-.004 0-.01.004-.014.002-.004.004-.005.004-.011.004h-.002a2.14 2.14 0 0 1-.505.06zm-356.8-124.678c.316 0 .635.07.928.21l142.413 67.66v-4.027l-143.342-68.095-143.342 68.095v4.027l142.414-67.66c.295-.14.611-.21.928-.21zm-.019 49.865c36.23 0 74.732 7.635 74.732 21.784v31.216l46.039-22.091c.07-.038.143-.074.217-.106l19.513-9.363-140.483-66.742-140.484 66.742 65.755 31.556v-31.212c0-14.149 38.494-21.784 74.711-21.784zm0 69.495c28.953 0 59.355 4.87 70.4 14.04v-26.9a3 3 0 0 1 0-.379v-34.472c0-7.133-25.068-17.455-70.4-17.455-45.317 0-70.38 10.322-70.38 17.455v61.749c11.043-9.168 41.438-14.038 70.38-14.038zm121.813 23.925a3.831 3.831 0 0 0 0 7.661 3.834 3.834 0 0 0 3.83-3.83 3.834 3.834 0 0 0-3.83-3.831zm-192.193-2.166c0 7.135 25.063 17.457 70.38 17.457 45.332 0 70.4-10.322 70.4-17.457 0-7.124-25.068-17.43-70.4-17.43-45.317 0-70.38 10.306-70.38 17.43zm70.38 21.787c-36.217 0-74.711-7.636-74.711-21.787v-33.456l-71.673-34.396a2.143 2.143 0 0 1-.407-.24c-.002-.003-.002-.005-.004-.005a2.209 2.209 0 0 1-.39-.38l-.006-.006a2.206 2.206 0 0 1-.465-1.248V962.52v-8.876c0-.836.482-1.597 1.238-1.956l145.508-69.123a2.165 2.165 0 0 1 1.857 0l145.506 69.123a2.168 2.168 0 0 1 1.24 1.957V962.528c-.019.52-.216.992-.533 1.357l-.008.007a2.069 2.069 0 0 1-.279.265c-.002.002-.002 0-.006.006a2.27 2.27 0 0 1-.446.273l-22.442 10.77v55.209c3.453.95 5.995 4.118 5.995 7.87 0 4.5-3.662 8.16-8.161 8.16-4.496 0-8.154-3.66-8.154-8.16 0-3.75 2.543-6.918 5.988-7.87v-53.132l-44.915 21.553v33.452c0 14.151-38.503 21.787-74.732 21.787z" mask="url(#b)"/>
        </g>
        <path fill="#00BDF2" d="M503.488-177.599a2.165 2.165 0 0 1-1.532-.634l-6.566-6.567-6.567 6.567a2.165 2.165 0 1 1-3.063-3.06l6.568-6.57-6.568-6.567a2.165 2.165 0 1 1 3.063-3.06l6.567 6.567 6.566-6.568a2.166 2.166 0 0 1 3.064 3.06l-6.57 6.568 6.57 6.57a2.168 2.168 0 0 1 0 3.06 2.165 2.165 0 0 1-1.532.634zm178.39 30.614a2.166 2.166 0 0 1-2.166-2.164v-3.848c0-1.082.799-1.996 1.87-2.144.246-.04 2.543-.446 2.543-2.203 0-1.274-.444-1.764-.78-2.023-1.547-1.187-5.267-.72-6.827-.307a2.167 2.167 0 0 1-1.122-4.184c.7-.187 6.928-1.748 10.578 1.052 1.132.869 2.483 2.52 2.483 5.462 0 3.351-2.335 5.168-4.413 5.987v2.208c0 1.196-.97 2.164-2.166 2.164zm0 8.696a2.166 2.166 0 0 1-2.166-2.164v-1.54a2.167 2.167 0 0 1 4.332 0v1.54c0 1.195-.97 2.164-2.166 2.164zm-121.701-20.883a5.476 5.476 0 0 0-5.472 5.466c0 3.01 2.455 5.462 5.472 5.462 3.013 0 5.46-2.451 5.46-5.462a5.468 5.468 0 0 0-5.46-5.466zm.93 24.4c-10.44 0-18.937-8.495-18.937-18.934 0-10.443 8.496-18.937 18.937-18.937 10.192 0 18.531 8.095 18.922 18.194.01.082.016.165.016.25v.493c0 .11-.01.221-.026.327-.3 5.003-3.346 8.811-7.181 8.811-2.045 0-3.862-1.082-5.16-2.851a9.776 9.776 0 0 1-7.501 3.505c-5.406 0-9.804-4.392-9.804-9.792 0-5.402 4.398-9.795 9.804-9.795 5.087 0 9.28 3.901 9.748 8.869.027.141.043.284.043.434 0 3.035 1.515 5.3 2.87 5.3 1.325 0 2.803-2.16 2.873-5.085-.147-7.926-6.641-14.33-14.604-14.33-8.054 0-14.605 6.553-14.605 14.607 0 8.052 6.551 14.604 14.605 14.604 3.683 0 7.204-1.38 9.915-3.884a2.166 2.166 0 0 1 2.938 3.182 18.896 18.896 0 0 1-12.853 5.032zm227.573 25.244a5.47 5.47 0 0 0-5.464 5.465c0 3.017 2.45 5.472 5.464 5.472a5.47 5.47 0 0 0 0-10.937zm.928 24.4c-10.439 0-18.93-8.494-18.93-18.935 0-10.44 8.491-18.937 18.93-18.937 10.194 0 18.533 8.096 18.922 18.196.01.082.016.165.016.251v.49c0 .11-.01.22-.026.325-.299 5.007-3.344 8.82-7.175 8.82-2.043 0-3.864-1.083-5.161-2.852a9.777 9.777 0 0 1-7.504 3.509c-5.402 0-9.796-4.398-9.796-9.802 0-5.402 4.394-9.795 9.796-9.795 5.089 0 9.281 3.903 9.748 8.873.027.14.043.283.043.432 0 3.037 1.519 5.304 2.874 5.304 1.32 0 2.797-2.162 2.867-5.089-.147-7.928-6.641-14.332-14.604-14.332-8.05 0-14.597 6.553-14.597 14.607 0 8.054 6.547 14.606 14.597 14.606 3.687 0 7.212-1.38 9.921-3.884a2.166 2.166 0 0 1 2.94 3.182 18.912 18.912 0 0 1-12.86 5.032zM911.997-42.03a2.162 2.162 0 0 1-1.533-.633l-6.567-6.568-6.568 6.568a2.165 2.165 0 1 1-3.062-3.063l6.567-6.566-6.567-6.565a2.165 2.165 0 0 1 3.062-3.063l6.568 6.568 6.567-6.568a2.165 2.165 0 0 1 3.063 3.063l-6.568 6.565 6.568 6.566a2.167 2.167 0 0 1-1.53 3.696zM604-16.7a2.166 2.166 0 0 1-2.166-2.164v-9.286h-9.284a2.166 2.166 0 0 1-2.166-2.163c0-1.198.973-2.166 2.166-2.166h9.284v-9.29a2.166 2.166 0 0 1 4.332 0v9.29h9.285a2.166 2.166 0 1 1 0 4.33h-9.285v9.285c0 1.195-.97 2.164-2.166 2.164zM855.136 2.482a2.165 2.165 0 0 1-2.164-2.164v-6.015c0-1.08.8-1.997 1.87-2.144.195-.028 5.003-.783 5.003-4.637 0-1.897-.556-3.246-1.7-4.125-3.017-2.315-9.465-1.279-11.692-.685a2.166 2.166 0 0 1-1.122-4.182c1.026-.277 10.204-2.589 15.444 1.428 1.55 1.188 3.402 3.465 3.402 7.564 0 4.995-3.826 7.512-6.875 8.49V.318c0 1.196-.97 2.164-2.166 2.164zm0 13.576a2.165 2.165 0 0 1-2.164-2.164v-2.411a2.165 2.165 0 1 1 4.33 0v2.41c0 1.196-.97 2.165-2.166 2.165zm-340.545 55.43a2.168 2.168 0 0 1-2.166-2.153l-.058-9.285-9.29.054h-.013a2.165 2.165 0 0 1-.014-4.33l9.289-.054-.058-9.285a2.168 2.168 0 0 1 2.152-2.18h.014c1.19 0 2.158.96 2.166 2.152l.058 9.287 9.281-.056h.014a2.165 2.165 0 0 1 .014 4.33l-9.281.054.058 9.287a2.166 2.166 0 0 1-2.152 2.178h-.014zm125.907 24.534a2.162 2.162 0 0 1-1.533-.634l-6.567-6.567-6.568 6.567a2.165 2.165 0 0 1-3.062-3.06l6.57-6.57-6.57-6.567a2.167 2.167 0 0 1 0-3.063 2.167 2.167 0 0 1 3.062 0l6.568 6.57 6.567-6.57a2.167 2.167 0 0 1 3.063 0 2.167 2.167 0 0 1 0 3.063l-6.57 6.567 6.57 6.57a2.165 2.165 0 0 1-1.53 3.694zM60.743 82.516a5.468 5.468 0 0 0-5.464 5.464 5.468 5.468 0 0 0 5.464 5.462c3.015 0 5.47-2.451 5.47-5.462a5.474 5.474 0 0 0-5.47-5.464zm.93 24.4c-10.443 0-18.937-8.495-18.937-18.936 0-10.443 8.494-18.938 18.938-18.938 10.194 0 18.53 8.096 18.921 18.197.01.081.014.165.014.25v.49c0 .11-.008.22-.024.326-.3 5.005-3.343 8.815-7.173 8.815-2.043 0-3.862-1.084-5.161-2.855a9.78 9.78 0 0 1-7.508 3.506c-5.4 0-9.796-4.391-9.796-9.791s4.396-9.794 9.796-9.794c5.091 0 9.291 3.902 9.756 8.871.03.14.045.283.045.433 0 3.034 1.513 5.3 2.868 5.3 1.32 0 2.793-2.16 2.865-5.085-.15-7.929-6.641-14.333-14.603-14.333-8.055 0-14.608 6.554-14.608 14.608s6.553 14.606 14.608 14.606a14.55 14.55 0 0 0 9.919-3.89 2.164 2.164 0 1 1 2.943 3.174 18.862 18.862 0 0 1-12.862 5.045zm944.993 52.621a2.157 2.157 0 0 1-1.53-.633l-6.568-6.568-6.565 6.568a2.165 2.165 0 0 1-3.063-3.06l6.568-6.57-6.568-6.568a2.167 2.167 0 0 1 0-3.062 2.167 2.167 0 0 1 3.063 0l6.565 6.567 6.568-6.567a2.167 2.167 0 0 1 3.062 0 2.167 2.167 0 0 1 0 3.062l-6.567 6.568 6.567 6.57a2.165 2.165 0 0 1-1.532 3.693zm-914.642 1.64c-.462 0-.928-.147-1.323-.452l-12.252-9.487-12.254 9.487a2.165 2.165 0 1 1-2.65-3.425l13.579-10.513a2.165 2.165 0 0 1 2.65.002l13.578 10.513a2.164 2.164 0 0 1-1.328 3.875zm-20.168 10.386h-20.01a2.165 2.165 0 1 1 0-4.33h20.01c1.193 0 2.166.968 2.166 2.166a2.166 2.166 0 0 1-2.166 2.164zm864.532 2.233a2.165 2.165 0 0 1-2.166-2.164v-27.26a2.165 2.165 0 0 1 4.332 0v27.26a2.166 2.166 0 0 1-2.166 2.164zm-832.944 10.952H51.846a2.165 2.165 0 1 1 0-4.33h51.598a2.165 2.165 0 0 1 0 4.33zm832.944 4.068a2.165 2.165 0 0 1-2.166-2.164v-3.062a2.167 2.167 0 0 1 4.332 0v3.062a2.166 2.166 0 0 1-2.166 2.164zm-735.69 1.278a2.165 2.165 0 0 1-1.533-.634l-6.571-6.572-6.57 6.572a2.165 2.165 0 0 1-3.062-3.06l6.57-6.572-6.57-6.566a2.167 2.167 0 0 1 0-3.062 2.167 2.167 0 0 1 3.062 0l6.568 6.565 6.563-6.565a2.165 2.165 0 1 1 3.063 3.06l-6.563 6.566 6.575 6.571a2.17 2.17 0 0 1 0 3.063 2.162 2.162 0 0 1-1.532.634zm-97.254 1.58H51.846a2.165 2.165 0 1 1 0-4.33h51.598a2.165 2.165 0 0 1 0 4.33zm245.577-9.21a5.473 5.473 0 0 0-5.465 5.466 5.475 5.475 0 0 0 5.465 5.47 5.478 5.478 0 0 0 5.472-5.47 5.476 5.476 0 0 0-5.472-5.466zm.939 24.4c-10.443 0-18.942-8.493-18.942-18.934s8.499-18.938 18.942-18.938c10.186 0 18.52 8.098 18.91 18.196.01.082.015.166.015.252v.49c0 .11-.01.219-.024.324-.3 5.006-3.341 8.816-7.17 8.816-2.043 0-3.86-1.082-5.158-2.852a9.783 9.783 0 0 1-7.512 3.511c-5.4 0-9.797-4.395-9.797-9.8 0-5.401 4.397-9.795 9.797-9.795 5.093 0 9.294 3.904 9.758 8.873.03.14.044.285.044.433 0 3.034 1.512 5.3 2.867 5.3 1.321 0 2.792-2.16 2.861-5.085-.145-7.929-6.635-14.333-14.591-14.333-8.056 0-14.61 6.554-14.61 14.608 0 8.052 6.554 14.603 14.61 14.603 3.682 0 7.203-1.379 9.915-3.883a2.166 2.166 0 0 1 2.937 3.182 18.893 18.893 0 0 1-12.852 5.031zm562.037 6.782a2.162 2.162 0 0 1-1.533-.634l-6.567-6.567-6.568 6.567a2.164 2.164 0 0 1-3.062 0 2.167 2.167 0 0 1 0-3.062l6.567-6.566-6.567-6.567a2.165 2.165 0 0 1 3.062-3.063l6.568 6.568 6.567-6.568a2.165 2.165 0 0 1 3.063 3.063l-6.568 6.567 6.568 6.566a2.167 2.167 0 0 1-1.53 3.696zm-751.44 11.511a2.165 2.165 0 0 1-2.166-2.164v-27.25c0-1.196.97-2.166 2.166-2.166 1.194 0 2.164.97 2.164 2.166v27.25c0 1.196-.97 2.164-2.164 2.164zm0 15.03a2.166 2.166 0 0 1-2.166-2.166v-3.053c0-1.195.97-2.165 2.166-2.165 1.194 0 2.164.97 2.164 2.165v3.053c0 1.198-.97 2.166-2.164 2.166zm-93.59-34.65l11.482 5.429 11.481-5.43H66.968zm16.063 8.051l45.27 27.235v-48.64l-45.27 21.405zm-54.433-21.404v48.639l45.273-27.235-45.273-21.404zm5.057 50.65h89.588L78.45 215.887l-44.795 26.945zm96.811 4.33H26.431a2.166 2.166 0 0 1-2.166-2.167v-56.211c0-.051.002-.103.006-.155v-.01c.008-.107.024-.215.044-.32l.004-.013c0-.002.004-.002.002-.008.103-.448.348-.866.729-1.18v-.001c.008-.004.008-.008.012-.01.002-.004.006-.006.01-.008l.034-.028L44.6 171.965a2.164 2.164 0 1 1 2.65 3.425l-16.704 12.928 19.402 9.172a2.167 2.167 0 0 1 1.897-3.21h51.598a2.165 2.165 0 0 1 0 4.33H52.318l5.492 2.596h41.278l27.26-12.888-16.703-12.928a2.167 2.167 0 0 1-.389-3.038 2.17 2.17 0 0 1 3.039-.387l19.495 15.088.032.026c.006.002.006.006.01.008s.004.006.008.008c.526.432.797 1.062.791 1.697v56.205c0 1.198-.97 2.166-2.166 2.166zm879.957 3.568a2.167 2.167 0 0 1-2.166-2.166v-9.294h-9.291a2.167 2.167 0 0 1-2.166-2.165c0-1.196.972-2.164 2.166-2.164h9.291v-9.288a2.166 2.166 0 0 1 4.332 0v9.288h9.287a2.165 2.165 0 1 1 0 4.33h-9.287v9.293c0 1.197-.97 2.166-2.166 2.166zm-666.846 2.758a2.157 2.157 0 0 1-1.53-.634l-6.568-6.568-6.566 6.568a2.165 2.165 0 1 1-3.063-3.06l6.568-6.568-6.567-6.568a2.165 2.165 0 1 1 3.062-3.06l6.566 6.565 6.567-6.565a2.164 2.164 0 0 1 3.063 0 2.168 2.168 0 0 1 0 3.06l-6.568 6.568 6.568 6.567a2.168 2.168 0 0 1 0 3.06 2.165 2.165 0 0 1-1.532.635zm11.905 49.28a2.162 2.162 0 0 1-1.532-.634l-6.566-6.567-6.565 6.567a2.165 2.165 0 0 1-3.063-3.06l6.568-6.568-6.568-6.567a2.165 2.165 0 0 1 3.063-3.06l6.565 6.565 6.566-6.566a2.165 2.165 0 1 1 3.063 3.06l-6.568 6.568 6.568 6.568a2.165 2.165 0 0 1-1.53 3.694zm498.48 72.887a2.165 2.165 0 0 1-2.166-2.164v-9.288h-9.286a2.165 2.165 0 1 1 0-4.33h9.286v-9.285a2.167 2.167 0 0 1 4.332 0v9.285h9.285c1.194 0 2.166.97 2.166 2.166a2.166 2.166 0 0 1-2.166 2.164h-9.285v9.288a2.166 2.166 0 0 1-2.166 2.164zm-146.003 16.27a2.166 2.166 0 0 1-2.165-2.163v-6.004c0-1.082.799-1.996 1.869-2.146.193-.028 5.017-.79 5.017-4.648 0-1.895-.556-3.244-1.702-4.125-3.024-2.315-9.624-1.243-11.698-.683a2.164 2.164 0 0 1-2.652-1.529 2.164 2.164 0 0 1 1.526-2.654c1.032-.277 10.212-2.59 15.458 1.43 1.55 1.188 3.4 3.466 3.4 7.56 0 5-3.836 7.52-6.887 8.503v4.296c0 1.196-.97 2.164-2.166 2.164zm0 13.574a2.166 2.166 0 0 1-2.165-2.164v-2.4c0-1.196.972-2.167 2.165-2.167 1.196 0 2.166.97 2.166 2.166v2.401c0 1.196-.97 2.164-2.166 2.164zm146.027 83.764a2.16 2.16 0 0 1-1.53-.633l-6.568-6.568-6.568 6.568a2.165 2.165 0 0 1-3.062-3.063l6.567-6.567-6.567-6.566a2.167 2.167 0 0 1 0-3.063 2.167 2.167 0 0 1 3.062 0l6.568 6.568 6.567-6.568a2.167 2.167 0 0 1 3.063 0 2.167 2.167 0 0 1 0 3.063l-6.568 6.566 6.568 6.567a2.165 2.165 0 0 1-1.532 3.696zm144.627 63.81a2.166 2.166 0 0 1-2.166-2.163v-9.288h-9.293a2.166 2.166 0 0 1-2.166-2.164c0-1.195.972-2.165 2.166-2.165h9.293v-9.286a2.167 2.167 0 0 1 4.332 0v9.286h9.287a2.165 2.165 0 0 1 0 4.33h-9.287v9.287c0 1.195-.97 2.164-2.166 2.164zM86.547 587.329a2.165 2.165 0 0 1-1.532-.633l-6.568-6.568-6.566 6.568a2.166 2.166 0 0 1-3.064-3.061l6.57-6.568-6.57-6.567a2.166 2.166 0 0 1 3.065-3.06l6.565 6.565 6.568-6.566a2.165 2.165 0 1 1 3.063 3.06l-6.568 6.568 6.567 6.568a2.165 2.165 0 0 1-1.53 3.694zm887.821-2.875a5.474 5.474 0 0 0-5.463 5.47 5.47 5.47 0 0 0 5.463 5.465 5.47 5.47 0 0 0 5.464-5.465c0-3.015-2.451-5.47-5.464-5.47zm.93 24.399c-10.436 0-18.929-8.49-18.929-18.93 0-10.445 8.493-18.943 18.93-18.943 10.188 0 18.525 8.094 18.92 18.192.01.084.015.168.015.253v.499c0 .113-.01.223-.026.33-.302 5.006-3.343 8.813-7.169 8.813-2.046 0-3.868-1.084-5.167-2.855a9.776 9.776 0 0 1-7.504 3.507c-5.402 0-9.795-4.394-9.795-9.795 0-5.402 4.393-9.8 9.795-9.8 5.085 0 9.278 3.897 9.75 8.865.03.141.044.287.044.436 0 3.041 1.518 5.313 2.877 5.313 1.32 0 2.792-2.162 2.861-5.093-.149-7.929-6.64-14.335-14.601-14.335-8.05 0-14.598 6.556-14.598 14.614 0 8.05 6.548 14.6 14.598 14.6 3.7 0 7.223-1.378 9.923-3.88a2.165 2.165 0 0 1 2.941 3.176 18.867 18.867 0 0 1-12.864 5.033zm-398.746 25.752a2.165 2.165 0 0 1-1.532-.634l-6.566-6.567-6.567 6.567a2.165 2.165 0 1 1-3.063-3.06l6.567-6.568-6.567-6.567a2.167 2.167 0 0 1 0-3.063 2.167 2.167 0 0 1 3.063 0l6.567 6.568 6.566-6.568a2.17 2.17 0 0 1 3.064 0 2.17 2.17 0 0 1 0 3.063l-6.57 6.567 6.57 6.568a2.168 2.168 0 0 1 0 3.06 2.162 2.162 0 0 1-1.532.634zm-227.066 26.067c-.554 0-1.11-.211-1.533-.634l-6.565-6.565-6.564 6.565a2.168 2.168 0 0 1-3.064 0 2.168 2.168 0 0 1 0-3.06l6.567-6.568-6.567-6.567a2.17 2.17 0 0 1 0-3.063 2.17 2.17 0 0 1 3.064 0l6.564 6.568 6.565-6.568a2.167 2.167 0 0 1 3.063 0 2.167 2.167 0 0 1 0 3.063l-6.566 6.567 6.566 6.568a2.165 2.165 0 0 1-1.53 3.694zm357.295-17.525a5.474 5.474 0 0 0-5.47 5.466 5.477 5.477 0 0 0 5.47 5.47 5.476 5.476 0 0 0 5.468-5.47 5.472 5.472 0 0 0-5.468-5.466zm.926 24.407c-10.443 0-18.939-8.498-18.939-18.941s8.496-18.938 18.94-18.938c10.19 0 18.528 8.096 18.919 18.195.01.081.016.165.016.249v.494c0 .11-.01.22-.026.325-.299 5.011-3.342 8.825-7.171 8.825-2.045 0-3.862-1.086-5.16-2.858a9.786 9.786 0 0 1-7.505 3.507c-5.404 0-9.802-4.397-9.802-9.8 0-5.401 4.398-9.795 9.802-9.795 5.09 0 9.287 3.902 9.754 8.87.03.139.043.284.043.432 0 3.04 1.513 5.314 2.868 5.314 1.32 0 2.793-2.164 2.863-5.097-.147-7.929-6.641-14.33-14.602-14.33-8.056 0-14.607 6.553-14.607 14.607 0 8.056 6.551 14.612 14.607 14.612 3.687 0 7.21-1.381 9.925-3.89a2.164 2.164 0 1 1 2.938 3.18 18.9 18.9 0 0 1-12.863 5.04zm-15.486 151.024a2.162 2.162 0 0 1-1.532-.634l-6.568-6.567-6.565 6.567a2.167 2.167 0 0 1-3.063 0 2.167 2.167 0 0 1 0-3.062l6.568-6.568-6.568-6.565a2.167 2.167 0 0 1 0-3.063 2.167 2.167 0 0 1 3.063 0l6.565 6.568 6.568-6.568a2.167 2.167 0 0 1 3.062 0 2.167 2.167 0 0 1 0 3.063l-6.567 6.565 6.567 6.568a2.167 2.167 0 0 1-1.53 3.696zm-81.646 0a2.167 2.167 0 0 1-1.53-3.696l6.567-6.568-6.567-6.565a2.167 2.167 0 0 1 0-3.063 2.167 2.167 0 0 1 3.062 0l6.568 6.566 6.564-6.566a2.167 2.167 0 0 1 3.062 0 2.167 2.167 0 0 1 0 3.063l-6.565 6.565 6.573 6.568a2.17 2.17 0 0 1 0 3.062 2.17 2.17 0 0 1-3.064 0l-6.57-6.57-6.568 6.57a2.162 2.162 0 0 1-1.532.634z"/>
        <path fill="#002561" d="M569.675 468.968H497.05c1.954 3.746 2.97 7.653 3.483 11.67h68.642c-.05-3.003 0-6.004.008-9.014a7.6 7.6 0 0 1 .492-2.656M433.69 270.912l-.373-1.53s-.211.32-.562.879c.307.219.622.438.934.651M636.46 270.912l.38-1.53s.213.32.56.879c-.313.219-.626.438-.94.651"/>
        <path fill="#002561" d="M647.203 270.65c15.096-12.89 24.696-32.045 24.696-53.41 0-31.393-20.713-58.023-49.181-66.99l.01-.016a69.962 69.962 0 0 0-12.535-2.708l-3.282-27.976-.022-.203a62.16 62.16 0 0 1-.315-2.182c-.73-5.32-1.616-11.933-7.111-13.583-5.145-1.538-9.796 2.825-13.16 6.68l-15.657 16.747-.094.127a115.464 115.464 0 0 0-33.144-4.846c-9.903 0-21.86 1.056-34.13 4.551l-15.177-16.265c-3.475-3.973-8.127-8.337-13.268-6.799-5.496 1.648-6.384 8.263-7.112 13.574-.105.77-.203 1.506-.313 2.191l-3.267 27.79c-.068.009-.132.027-.202.027-.574.06-1.14.135-1.697.211-.62.076-1.226.143-1.838.235-.5.078-.998.171-1.488.255-.66.11-1.321.23-1.977.363-.173.036-.356.06-.536.101l.008.018c-31.781 6.705-55.706 34.954-55.706 68.699 0 20.384 8.727 38.751 22.64 51.6l1.293 5.698c-9.03 16.774-26.964 57.817-13.879 100.12 11.669 37.737 38.098 62.16 53.382 73.697l3.325 14.59a12.74 12.74 0 0 0-3.517 2.35c-2.337-2.215-5.643-3.612-9.313-3.612-7.044 0-12.788 5.117-12.788 11.41v19.31c0 6.29 5.744 11.407 12.788 11.407 3.67 0 6.976-1.395 9.313-3.612 2.342 2.217 5.64 3.612 9.318 3.612 3.672 0 6.98-1.395 9.305-3.612 2.341 2.217 5.64 3.612 9.32 3.612 7.045 0 12.788-5.117 12.788-11.407V480.63h61.275v11.774c0 6.29 5.733 11.407 12.789 11.407 3.666 0 6.976-1.395 9.307-3.612 2.333 2.217 5.643 3.612 9.313 3.612 3.67 0 6.976-1.395 9.31-3.612 2.337 2.217 5.64 3.612 9.313 3.612 7.056 0 12.788-5.117 12.788-11.407v-19.31c0-6.293-5.732-11.41-12.788-11.41-3.672 0-6.976 1.389-9.313 3.613a12.525 12.525 0 0 0-3.238-2.224.08.08 0 0 1 .024.008l3.612-15.875c15.459-11.96 40.587-36.012 51.897-72.548 12.685-41.001-3.776-80.8-13.018-98.487l1.252-5.521zM459.789 492.404c0 2.046-2.361 3.77-5.153 3.77-2.782 0-5.14-1.724-5.14-3.77v-19.31c0-2.047 2.358-3.772 5.14-3.772 2.792 0 5.153 1.725 5.153 3.772v19.31zm151.055-19.31c0-2.047 2.353-3.772 5.143-3.772 2.79 0 5.15 1.725 5.15 3.772v19.31c0 2.046-2.36 3.77-5.15 3.77-2.79 0-5.143-1.724-5.143-3.77v-19.31zM662.13 217.24c0 33.347-27.13 60.478-60.475 60.478-33.341 0-60.472-27.13-60.472-60.478 0-20.78 10.542-39.149 26.555-50.042l.008.008c.424-.287.855-.566 1.293-.845.241-.161.474-.313.721-.464.439-.271.879-.534 1.317-.797.305-.178.604-.355.907-.524.432-.245.853-.483 1.287-.718.395-.203.785-.398 1.184-.601a56.6 56.6 0 0 1 1.919-.931c.43-.193.852-.398 1.295-.584.368-.16.759-.32 1.141-.48.455-.187.913-.365 1.37-.542a57.65 57.65 0 0 1 3.243-1.142c.265-.075.526-.151.79-.237a55.54 55.54 0 0 1 1.97-.558c.31-.085.626-.161.93-.237a49.276 49.276 0 0 1 1.81-.414c.289-.068.576-.128.867-.188a55.19 55.19 0 0 1 2.646-.472l.151-.026a62.84 62.84 0 0 1 2.589-.329l.793-.075c.695-.06 1.388-.12 2.088-.162.255-.01.518-.026.779-.042a57.337 57.337 0 0 1 5.573 0c.28.016.558.024.837.042.654.042 1.293.094 1.937.152.31.026.62.052.92.085.795.084 1.584.186 2.364.295.48.076.952.154 1.426.237.331.06.67.118 1.009.178.551.11 1.097.219 1.647.337.112.027.23.051.347.077 1.287.297 2.557.618 3.798.99 25.077 7.375 43.436 30.583 43.436 58.009zm-112.2 47.447v-.01l-13.298 17.026-12.829-18.295a70.347 70.347 0 0 0 12.5-20.482 70.343 70.343 0 0 0 13.627 21.76zm23.373-126.557l7.137-7.562 12.974-13.878c1.243-1.429 2.2-2.343 2.875-2.91.347 1.447.618 3.416.787 4.661.11.811.214 1.599.33 2.328l.473 4.007.313 2.224 2.354 20.02a69.637 69.637 0 0 0-25.456 5.226c-.137.05-.273.11-.408.169a59.71 59.71 0 0 0-3.637 1.64c-.153.068-.296.151-.456.229a71.58 71.58 0 0 0-3.545 1.869c-.032.024-.07.042-.09.06a66.953 66.953 0 0 0-3.225 1.968c-.212.136-.429.271-.642.417-.104.068-.211.125-.317.193l.014.01c-11.848 7.915-21.187 19.324-26.481 32.762-5.779-14.647-16.357-26.878-29.771-34.792.006-.018.018-.036.018-.044a69.676 69.676 0 0 0-32.725-9.658l1.178-10.224-.02-.018.706-5.97.617-5.388.008.026.37-3.154.053-.06.151-1.319c.118-.727.221-1.516.33-2.327.17-1.252.441-3.214.78-4.659.703.592 1.682 1.53 2.993 3.027l19.467 20.822c13.127-4.626 26.314-5.954 36.95-5.954l35.895 6.26zm-162.83 79.11c0-29.532 21.285-54.179 49.317-59.421.877-.17 1.765-.313 2.65-.439.054-.01.106-.017.165-.025a62.46 62.46 0 0 1 2.579-.305c.28-.026.56-.044.829-.068.661-.052 1.319-.112 1.98-.144.979-.043 1.96-.067 2.95-.067a59.188 59.188 0 0 1 5.718.279l.642.05c.878.093 1.749.213 2.622.338.265.042.52.086.769.128.626.101 1.253.211 1.863.329.339.067.665.133.988.2.624.138 1.242.282 1.857.435.469.108.925.235 1.383.355.53.143 1.064.295 1.59.456.429.128.853.263 1.28.407.366.117.73.245 1.095.37a56.111 56.111 0 0 1 4.906 1.955c.185.076.363.161.55.245a91.22 91.22 0 0 1 1.664.795 62.483 62.483 0 0 1 5.464 3.094c16.865 10.75 28.087 29.602 28.087 51.033 0 33.347-27.131 60.478-60.479 60.478-33.344 0-60.469-27.13-60.469-60.478zm9.619 154.526c-9.712-31.387-.247-62.9 8.042-81.86l32.44 142.743c-14.039-12.567-31.84-32.957-40.482-60.883zm58.32 120.637c0 2.046-2.363 3.77-5.144 3.77-2.792 0-5.15-1.724-5.15-3.77v-19.31c0-2.047 2.358-3.772 5.15-3.772 2.781 0 5.144 1.725 5.144 3.772v19.31zm18.623 0c0 2.046-2.361 3.77-5.143 3.77-2.791 0-5.15-1.724-5.15-3.77v-19.31c0-2.047 2.359-3.772 5.15-3.772 2.782 0 5.143 1.725 5.143 3.772v19.31zm86.85 0c0 2.046-2.353 3.77-5.14 3.77-2.794 0-5.153-1.724-5.153-3.77v-19.31c0-2.047 2.36-3.772 5.153-3.772 2.787 0 5.14 1.725 5.14 3.772v19.31zm18.63 0c0 2.046-2.358 3.77-5.15 3.77-2.791 0-5.144-1.724-5.144-3.77v-19.31c0-2.047 2.353-3.772 5.144-3.772 2.792 0 5.15 1.725 5.15 3.772v19.31zm-8.864-30.22c.01 0 .018 0 .018-.01-2.166.594-4.105 1.676-5.617 3.123-2.331-2.224-5.64-3.613-9.307-3.613-6.203 0-11.376 3.95-12.544 9.178h-61.775c.017.05.017.1.025.143-1.097-5.294-6.31-9.32-12.559-9.32-3.678 0-6.978 1.388-9.32 3.612-1.428-1.363-3.221-2.41-5.244-3.02l-41.94-184.49a69.84 69.84 0 0 0 35.554 9.694c17.517 0 33.541-6.446 45.85-17.092l19.417 27.712 20.839-26.672c12.134 10.02 27.674 16.052 44.607 16.052 12.193 0 23.662-3.12 33.659-8.612L593.65 462.184zm55.99-90.417c-8.331 26.92-25.15 46.794-38.927 59.455L642.4 291.785c8.066 19.12 16.634 49.611 7.239 79.982z"/>
        <path fill="#002561" d="M470.941 227.761c5.81 0 10.511-4.71 10.511-10.52 0-5.8-4.7-10.511-10.51-10.511-5.809 0-10.52 4.71-10.52 10.51 0 5.81 4.711 10.521 10.52 10.521M509.297 314.73c-13.273 3.578-18.862-5.972-19.47-7.104a4.886 4.886 0 0 0-6.56-2.072 4.882 4.882 0 0 0-2.098 6.58c2.629 5.108 10.282 13.158 22.503 13.158 2.528 0 5.252-.347 8.17-1.132a4.885 4.885 0 0 0 3.442-5.987 4.882 4.882 0 0 0-5.987-3.444M601.652 206.73c-5.8 0-10.513 4.71-10.513 10.51 0 5.81 4.712 10.521 10.513 10.521 5.81 0 10.52-4.71 10.52-10.52 0-5.801-4.71-10.512-10.52-10.512"/>
        <path fill="#00BDF2" d="M243.282-113.814c9.66.657 20.497 4.794 31.867 12.3 18.626 12.298 36.65 32.3 50.916 56.466l42.516-24.545c-14.048-23.243-36.153-39.865-62.471-46.917-21.034-5.633-42.793-4.627-62.828 2.696zm-14.684 6.765l51.211 88.705 42.506-24.538c-13.934-23.594-31.473-43.082-49.551-55.02-17.132-11.307-32.704-14.505-44.166-9.147zm-3.752 2.164c-10.38 7.24-15.396 22.328-14.163 42.824 1.297 21.626 9.403 46.559 22.867 70.422l42.51-24.54-51.214-88.706zm-13.213 9.347C195.278-81.85 183.534-63.51 177.9-42.484c-7.05 26.31-3.706 53.76 9.397 77.547l42.502-24.536C216.008-13.913 207.7-39.521 206.36-61.8c-.817-13.595 1.016-25.047 5.272-33.738zm116.596 54.24c23.012 40.788 29.345 82.955 17.947 106.25 16.471-13.709 28.3-32.12 33.962-53.244 7.05-26.312 3.708-53.761-9.393-77.55l-42.516 24.544zm-46.256 26.702l51.214 88.708c22.16-15.444 18.445-65.12-8.708-113.246l-42.506 24.538zm-46.26 26.707c13.937 23.594 31.48 43.081 49.562 55.019 17.13 11.308 32.7 14.51 44.16 9.146L278.223-12.43l-42.51 24.54zm-46.251 26.702c14.05 23.242 36.151 39.866 62.461 46.918 21.038 5.639 42.793 4.634 62.826-2.69-9.656-.658-20.493-4.792-31.859-12.296-18.63-12.3-36.657-32.3-50.926-56.468l-42.502 24.536zm27.763-156.901C161.428-84.541 142.53-12.073 175.21 44.542c32.684 56.6 104.891 76.477 161.85 44.943l-5.423-9.397c-24.791 13.685-53.409 17.176-80.836 9.825-28.126-7.54-51.634-25.58-66.192-50.8-14.56-25.217-18.427-54.591-10.893-82.717 7.348-27.427 24.686-50.464 48.93-65.093l-5.422-9.391zm58.908 252.659h5.77v-25.828c-1.93.044-3.851.038-5.77-.01v25.838zm-22.695 11.493h51.157v-7.163h-51.157v7.163zm53.321 4.33h-55.487a2.165 2.165 0 0 1-2.166-2.164v-11.493c0-1.196.97-2.166 2.166-2.166h20.53V108.55c-40.303-2.405-78.688-24.346-100.341-61.844-33.874-58.681-14.263-133.804 43.598-168.544l-9.896-17.138a2.164 2.164 0 0 1 .796-2.957 2.17 2.17 0 0 1 2.957.79l17.478 30.282c24.79-13.681 53.404-17.18 80.837-9.831 28.13 7.535 51.638 25.572 66.194 50.786 14.564 25.222 18.431 54.603 10.893 82.734-7.348 27.43-24.688 50.468-48.93 65.096l6.397 11.079a2.546 2.546 0 0 1 .24.418l10.842 18.778a2.168 2.168 0 0 1-.793 2.959 2.17 2.17 0 0 1-2.959-.793l-9.889-17.13c-16.811 9.32-34.924 14.316-52.99 15.34v25.996h20.523c1.196 0 2.166.97 2.166 2.166v11.493c0 1.195-.97 2.164-2.166 2.164zm27.488 290.755c-5.239 0-9.497 4.258-9.497 9.49 0 5.233 4.258 9.491 9.497 9.491 5.23 0 9.486-4.258 9.486-9.49 0-5.233-4.256-9.491-9.486-9.491zm0 23.31c-7.626 0-13.829-6.2-13.829-13.82 0-7.619 6.203-13.82 13.829-13.82 7.62 0 13.818 6.201 13.818 13.82 0 7.62-6.199 13.82-13.818 13.82zm175 177.85h11.672c.568-18.058 8.24-27.479 15.666-36.605 7.552-9.275 14.683-18.039 14.683-35.872 0-23.138-18.82-41.96-41.953-41.96-23.138 0-41.96 18.822-41.96 41.96 0 17.833 7.133 26.597 14.685 35.872 7.43 9.126 15.102 18.547 15.67 36.606h11.537zm-13.785 4.33a1.37 1.37 0 0 0-1.365 1.372c0 .749.616 1.359 1.371 1.359h27.7a1.366 1.366 0 0 0 0-2.73h-27.706zm.006 7.06a1.37 1.37 0 0 0-1.37 1.365c0 .767.601 1.37 1.37 1.37h27.7c.756 0 1.354-.603 1.358-1.37a1.368 1.368 0 0 0-1.359-1.365h-27.699zm27.165 9.798h.534c.75 0 1.36-.61 1.36-1.357-.003-.773-.6-1.377-1.36-1.377h-27.699c-.769 0-1.37.602-1.37 1.371 0 .747.615 1.359 1.372 1.363h.365c.131-.012.265-.012.396 0h26.402zm-19.724 9.734h12.816l3.12-5.406h-19.057l3.12 5.406zm14.067 4.33H501.66a2.163 2.163 0 0 1-1.875-1.082l-5.02-8.698c-2.815-.357-4.998-2.758-4.998-5.647 0-1.333.462-2.562 1.233-3.535a5.678 5.678 0 0 1-.004-7.064 5.67 5.67 0 0 1-1.23-3.524 5.71 5.71 0 0 1 3.627-5.31c-.458-16.758-7.388-25.27-14.707-34.263-7.702-9.455-15.662-19.232-15.662-38.606 0-25.525 20.767-46.29 46.292-46.29 25.52 0 46.285 20.765 46.285 46.29 0 19.374-7.96 29.151-15.655 38.606-7.321 8.992-14.251 17.503-14.706 34.264a5.706 5.706 0 0 1 3.619 5.309v.008a5.687 5.687 0 0 1-1.233 3.516 5.693 5.693 0 0 1 1.233 3.52v.017a5.707 5.707 0 0 1-1.237 3.527 5.703 5.703 0 0 1 1.237 3.527v.008a5.699 5.699 0 0 1-4.991 5.649l-5.014 8.696a2.169 2.169 0 0 1-1.877 1.082z"/>
    </g>
</svg>
