<svg xmlns="http://www.w3.org/2000/svg" width="56" height="49" viewBox="0 0 56 49">
    <path fill="#FFF" fill-rule="evenodd" d="M22.398 9.73c-3.283 1.39-5.712 3.183-7.33 5.379-1.98 2.735-3.06 6.365-3.15 10.894h8.456a2.702 2.702 0 0 1 2.699 2.69V46.31c0 1.48-1.214 2.69-2.699 2.69H2.7A2.702 2.702 0 0 1 0 46.31V32.548c0-6.68.63-11.924 1.8-15.78 1.168-3.81 3.327-7.263 6.52-10.266 2.61-2.555 5.893-4.662 9.716-6.276 1.349-.583 2.878 0 3.508 1.3l2.204 4.617c.63 1.345.045 3.004-1.35 3.587zm31.997-.037c-3.289 1.392-5.722 3.187-7.345 5.385-1.982 2.737-3.064 6.371-3.154 10.904h8.517a2.706 2.706 0 0 1 2.703 2.692v17.634A2.706 2.706 0 0 1 52.413 49h-17.71A2.706 2.706 0 0 1 32 46.308V32.533c0-6.73.585-11.981 1.757-15.75 1.172-3.814 3.38-7.269 6.58-10.32 2.658-2.512 5.902-4.621 9.688-6.237a2.699 2.699 0 0 1 3.514 1.302l2.208 4.576c.63 1.346.045 3.006-1.352 3.59z"/>
</svg>
