<svg xmlns="http://www.w3.org/2000/svg" xmlns:xlink="http://www.w3.org/1999/xlink" width="16" height="14" viewBox="0 0 16 14">
    <defs>
        <path id="a" d="M14 2.333h-2.333L10.533.6C10.4.467 10.2.333 10 .333H6c-.2 0-.4.134-.533.267L4.333 2.333H2c-1.133 0-2 .867-2 2v7.334c0 1.133.867 2 2 2h12c1.133 0 2-.867 2-2V4.333c0-1.133-.867-2-2-2zm.667 9.334c0 .4-.267.666-.667.666H2c-.4 0-.667-.266-.667-.666V4.333c0-.4.267-.666.667-.666h2.667c.2 0 .4-.134.533-.267l1.133-1.733H9.6L10.733 3.4c.2.133.4.267.6.267H14c.4 0 .667.266.667.666v7.334zM8 4.333a3.301 3.301 0 0 0-3.333 3.334A3.301 3.301 0 0 0 8 11a3.301 3.301 0 0 0 3.333-3.333A3.301 3.301 0 0 0 8 4.333zm0 5.334c-1.133 0-2-.867-2-2 0-1.134.867-2 2-2s2 .866 2 2c0 1.133-.867 2-2 2z"/>
    </defs>
    <use fill="#012461" fill-rule="evenodd" xlink:href="#a"/>
</svg>
