<svg xmlns="http://www.w3.org/2000/svg" xmlns:xlink="http://www.w3.org/1999/xlink" width="16" height="16" viewBox="0 0 16 16">
    <defs>
        <path id="a" d="M6.5.5H1.25C.8.5.5.8.5 1.25V6.5c0 .45.3.75.75.75H6.5c.45 0 .75-.3.75-.75V1.25C7.25.8 6.95.5 6.5.5zm-.75 5.25H2V2h3.75v3.75zm9-5.25H9.5c-.45 0-.75.3-.75.75V6.5c0 .45.3.75.75.75h5.25c.45 0 .75-.3.75-.75V1.25c0-.45-.3-.75-.75-.75zM14 5.75h-3.75V2H14v3.75zm.75 3H9.5c-.45 0-.75.3-.75.75v5.25c0 .45.3.75.75.75h5.25c.45 0 .75-.3.75-.75V9.5c0-.45-.3-.75-.75-.75zM14 14h-3.75v-3.75H14V14zM6.5 8.75H1.25c-.45 0-.75.3-.75.75v5.25c0 .45.3.75.75.75H6.5c.45 0 .75-.3.75-.75V9.5c0-.45-.3-.75-.75-.75zM5.75 14H2v-3.75h3.75V14z"/>
    </defs>
    <use fill="#012461" fill-rule="evenodd" xlink:href="#a"/>
</svg>
