<svg xmlns="http://www.w3.org/2000/svg" xmlns:xlink="http://www.w3.org/1999/xlink" width="18" height="18" viewBox="0 0 18 18">
    <defs>
        <path id="a" d="M9 .75A8.226 8.226 0 0 0 .75 9 8.226 8.226 0 0 0 9 17.25 8.226 8.226 0 0 0 17.25 9 8.226 8.226 0 0 0 9 .75zm6.675 7.5h-3c-.15-2.1-.825-4.05-2.025-5.775 2.7.675 4.725 3 5.025 5.775zm-8.85 1.5h4.425c-.225 2.025-.975 3.975-2.175 5.55-1.35-1.575-2.1-3.525-2.25-5.55zm0-1.5C7.05 6.225 7.8 4.275 9 2.7c1.275 1.65 2.025 3.6 2.175 5.55h-4.35zm.45-5.775a12.06 12.06 0 0 0-1.95 5.775h-3c.3-2.775 2.325-5.1 4.95-5.775zM2.325 9.75h3c.15 2.1.825 4.05 2.025 5.775-2.7-.675-4.725-3-5.025-5.775zm8.4 5.775c1.125-1.725 1.8-3.675 2.025-5.775h3c-.375 2.775-2.4 5.1-5.025 5.775z"/>
    </defs>
    <use fill="#012461" fill-rule="evenodd" xlink:href="#a"/>
</svg>
