<svg xmlns="http://www.w3.org/2000/svg" width="75" height="193" viewBox="0 0 75 193">
    <g fill="none" fill-rule="evenodd">
        <path fill="#A35485" d="M42.574 7.575C36.928-.451 25.922-2.327 17.992 3.387c-7.933 5.713-9.785 16.85-4.14 24.878"/>
        <path fill="#BF739C" d="M23.371 12.844C34.691 1.387 48.583-3.129 54.401 2.76c5.817 5.888 1.357 19.948-9.965 31.405-11.32 11.46-25.212 15.973-31.03 10.087-5.818-5.89-1.355-19.95 9.965-31.407"/>
        <path fill="#EBEB73" d="M56.192 17.55s7.193 8.333 2.608 21.814c-4.587 13.48 2.755 17.629 2.755 17.629l-7.368-2.478-.52-5.82-4.288 4.56-11.488-3.012-6.61-9.422 1.898-22.986 16.865-2.965 6.148 2.68z"/>
        <path fill="#F599AB" d="M34 187h6.975L44 158h-9.324zM29.387 187h-6.25L22 158h8z"/>
        <path fill="#ED2E69" d="M31.465 187L31 192.674 52 193v-6"/>
        <path fill="#ED2E69" d="M22.465 187L22 192.674 43 193v-6"/>
        <path fill="#F599AB" d="M24.277 58.849s-13.208 27.58-12.716 51.006c.49 23.427-9.779 17.663-11.296 7.24C-1.25 106.677 3.56 73.694 19.39 55.494l4.886 3.355zM44.313 60.275s16.172 25.968 18.27 49.306c2.098 23.338 11.67 16.487 12.026 5.962.357-10.522-8.064-42.778-25.81-59.138l-4.486 3.87zM20.07 34.175c0 9.16 7.456 16.584 16.66 16.584 9.206 0 16.667-7.423 16.667-16.584 0-9.158-7.461-16.586-16.667-16.586-9.204 0-16.66 7.428-16.66 16.586"/>
        <path fill="#1F2B5E" d="M47.818 36.383c0 .664.544 1.212 1.217 1.212a1.22 1.22 0 0 0 1.219-1.212 1.22 1.22 0 0 0-1.219-1.215c-.673 0-1.217.546-1.217 1.215M35.877 36.383c0 .664.546 1.212 1.216 1.212.671 0 1.217-.548 1.217-1.212 0-.669-.546-1.215-1.217-1.215-.67 0-1.216.546-1.216 1.215"/>
        <path fill="#1C457D" d="M20.856 165L18 111.14l2.278-20.07L49 90v20.03l-5.462 53.895h-9.697l1.754-45.702h-2.553L32.172 165z"/>
        <path fill="#1F2B5E" d="M19.113 55.44L26.275 54h16.11l6.642 2.62 1.085 28.97L56 128.488 12 130l5.708-45.448z"/>
        <path fill="#F2F5D6" d="M22.64 35L19 32.378S22.055 11 37.09 11C52.129 11 59 16.331 59 25.998c0 0-6.164-14.998-10.593-2.113l-13.724 3.21-2.145-.113L22.64 35z"/>
        <path stroke="#1C457D" stroke-linejoin="round" stroke-width=".818" d="M42.864 39H52v-7h-9.136v7zm-12.07 0h9.134v-7h-9.134v7zm0-6.155H22h8.794z"/>
        <path fill="#F599AB" d="M19 35c0 2.208.896 4 2 4 1.105 0 2-1.792 2-4 0-2.21-.895-4-2-4-1.104 0-2 1.79-2 4"/>
        <path stroke="#1C457D" stroke-linejoin="round" stroke-width=".818" d="M42 36.5h-2"/>
    </g>
</svg>
