<svg xmlns="http://www.w3.org/2000/svg" width="63" height="14" viewBox="0 0 63 14">
    <path fill="#028ED4" fill-rule="evenodd" d="M2.333 1.133c0 .636-.531 1.132-1.166 1.132C.533 2.265 0 1.77 0 1.133 0 .517.533 0 1.167 0c.635 0 1.166.517 1.166 1.133zM.35 14V4.652h1.637V14H.349zm11.035-7.038c-.211-.471-.671-.904-1.226-.904-.536 0-1.11.415-1.11.978 0 .81 1.034 1.113 2.086 1.545 1.054.432 2.088 1.053 2.088 2.54 0 1.674-1.378 2.879-3.044 2.879-1.512 0-2.7-.846-3.178-2.24l1.359-.565c.383.829.823 1.411 1.838 1.411.823 0 1.454-.545 1.454-1.354 0-1.975-4.059-1.298-4.059-4.084 0-1.487 1.226-2.501 2.681-2.501 1.035 0 1.99.715 2.394 1.637l-1.283.658zm8.797-1.06h.038c.474-.753 1.233-1.235 2.14-1.235 1.042 0 1.989.56 2.462 1.506.53-1.004 1.591-1.506 2.67-1.506 2.274 0 2.842 1.893 2.842 3.806V14h-1.515V8.724c0-1.178-.076-2.628-1.628-2.628-1.744 0-1.932 1.72-1.932 3.091V14H23.74V8.84c0-1.12-.131-2.744-1.59-2.744-1.78 0-1.97 1.835-1.97 3.208V14h-1.514V4.917h1.514v.986zm24.152 7.852h-1.591v-1.222h-.04C41.887 13.51 40.792 14 39.478 14 36.732 14 35 11.798 35 9.351c0-2.521 1.692-4.684 4.497-4.684 1.274 0 2.43.564 3.206 1.505h.039V4.91h1.591v8.844zM36.632 9.24c0 1.731 1.075 3.368 3.065 3.368 2.05 0 3.124-1.56 3.124-3.35 0-1.769-1.174-3.199-3.143-3.199-1.853 0-3.046 1.524-3.046 3.181zm14.593-3.336h.036c.506-.716.941-1.236 1.88-1.236.489 0 .888.174 1.303.422l-.688 1.412c-.288-.211-.487-.405-.867-.405-1.592 0-1.664 2.184-1.664 3.362V14h-1.447V4.917h1.447v.986zM61.467 14h-1.461V6.29h-.895V4.846h.895V1.556h1.46v3.29H63V6.29h-1.533V14z"/>
</svg>
