<svg xmlns="http://www.w3.org/2000/svg" width="40" height="40" viewBox="0 0 40 40">
    <g fill="none" fill-rule="evenodd">
        <path fill="#F0EE91" d="M20.147 30.203a.858.858 0 0 1-.24-.468l-1.313-7.874-7.873-1.31a.864.864 0 0 1-.225-1.633l18.729-8.836a.864.864 0 0 1 1.151 1.15l-8.811 18.673a.86.86 0 0 1-.193.301.866.866 0 0 1-1.223 0l-.002-.003z"/>
        <path stroke="#1F2C5E" stroke-linecap="round" stroke-linejoin="round" stroke-width=".588" d="M20.147 30.203a.858.858 0 0 1-.24-.468l-1.313-7.874-7.873-1.31a.864.864 0 0 1-.225-1.633l18.729-8.836a.864.864 0 0 1 1.151 1.15l-8.811 18.673a.86.86 0 0 1-.193.301.866.866 0 0 1-1.223 0l-.002-.003z"/>
        <path fill="#8EC6B1" d="M30.374 11.232a.864.864 0 0 0-.17-.98l-.047-.04L18.52 21.85l.074.013 1.312 7.873a.861.861 0 0 0 .24.468l.002.002a.863.863 0 0 0 1.416-.3l8.81-18.674z"/>
        <path stroke="#1F2C5E" stroke-linecap="round" stroke-linejoin="round" stroke-width=".588" d="M30.374 11.232a.864.864 0 0 0-.17-.98l-.047-.04L18.52 21.85l.074.013 1.312 7.873a.861.861 0 0 0 .24.468l.002.002a.863.863 0 0 0 1.416-.3l8.81-18.674z"/>
    </g>
</svg>
