<svg xmlns="http://www.w3.org/2000/svg" width="81" height="81" viewBox="0 0 81 81">
    <g fill="none" fill-rule="evenodd">
        <path fill="#EE2F68" d="M29.962 56.58a4.508 4.508 0 0 1-3.185 1.324 4.5 4.5 0 0 1-3.178-1.32 4.504 4.504 0 0 1-1.324-3.18 4.513 4.513 0 0 1 1.324-3.188l3.977-3.976 6.365 6.363-3.98 3.977z"/>
        <path stroke="#1F2C5E" stroke-linecap="round" stroke-linejoin="round" stroke-width=".588" d="M29.962 56.58a4.508 4.508 0 0 1-3.185 1.324 4.5 4.5 0 0 1-3.178-1.32 4.504 4.504 0 0 1-1.324-3.18 4.513 4.513 0 0 1 1.324-3.188l3.977-3.976 6.365 6.363-3.98 3.977z"/>
        <path fill="#EAEA72" d="M51.406 35.138l6.498-12.863-12.862 6.496z"/>
        <path stroke="#1F2C5E" stroke-linecap="round" stroke-linejoin="round" stroke-width=".588" d="M51.406 35.138l6.498-12.863-12.862 6.496z"/>
        <path fill="#F2665D" d="M45.043 28.772l6.362 6.367-13.77 13.77-6.364-6.363z"/>
        <path stroke="#1F2C5E" stroke-linecap="round" stroke-linejoin="round" stroke-width=".588" d="M45.043 28.772l6.362 6.367-13.77 13.77-6.364-6.363z"/>
        <path fill="#EE2F68" d="M54.92 28.18l2.985-5.904L52 25.26z"/>
        <path stroke="#1F2C5E" stroke-linecap="round" stroke-linejoin="round" stroke-width=".588" d="M54.92 28.18l2.985-5.904L52 25.26z"/>
        <path fill="#EAEA72" d="M27.577 46.24l6.365 6.364 3.693-3.695-6.366-6.365z"/>
        <path stroke="#1F2C5E" stroke-linecap="round" stroke-linejoin="round" stroke-width=".588" d="M27.577 46.24l6.365 6.364 3.693-3.695-6.366-6.365z"/>
    </g>
</svg>
