<svg xmlns="http://www.w3.org/2000/svg" width="40" height="40" viewBox="0 0 40 40">
    <g fill="none" fill-rule="evenodd">
        <path fill="#8EC6B1" d="M28.559 17.28c0 6.859-8.279 13.99-8.279 13.99S12 24.139 12 17.28a8.28 8.28 0 1 1 16.559 0"/>
        <path stroke="#1F2C5E" stroke-linecap="round" stroke-linejoin="round" stroke-width=".588" d="M28.559 17.28c0 6.859-8.279 13.99-8.279 13.99S12 24.139 12 17.28a8.28 8.28 0 1 1 16.559 0z"/>
        <path fill="#EAEA72" d="M20.28 19.651l-2.603 1.37.498-2.9-2.108-2.054 2.912-.423 1.3-2.638 1.303 2.638 2.91.423-2.105 2.054.497 2.9z"/>
        <path stroke="#1F2C5E" stroke-linecap="round" stroke-linejoin="round" stroke-width=".588" d="M20.28 19.651l-2.603 1.37.498-2.9-2.108-2.054 2.912-.423 1.3-2.638 1.303 2.638 2.91.423-2.105 2.054.497 2.9z"/>
    </g>
</svg>
