<svg xmlns="http://www.w3.org/2000/svg" xmlns:xlink="http://www.w3.org/1999/xlink" width="86" height="103" viewBox="0 0 86 103">
    <defs>
        <path id="a" d="M.521.34h43.202v63.402H.521z"/>
    </defs>
    <g fill="none" fill-rule="evenodd">
        <path fill="#212F59" d="M0 102.66h85.71V88.815H0z"/>
        <path fill="#FEFEFE" d="M53.266 8.459c-5.737 0-10.388 4.61-10.41 10.305h-.002C42.832 13.07 38.18 8.46 32.442 8.46c-5.75 0-10.41 4.632-10.41 10.346s4.66 10.345 10.41 10.345c2.914 0 5.547-1.19 7.437-3.107l.06.106 2.935 4.157 3.122-3.97.034-.096a10.407 10.407 0 0 0 7.236 2.91c5.751 0 10.412-4.631 10.412-10.345S59.018 8.459 53.266 8.459"/>
        <path fill="#148CCC" d="M0 86.545h85.71V59.574H0z"/>
        <g fill="#FEFEFE">
            <path d="M10.165 66.207c0 .703-.574 1.251-1.259 1.251a1.254 1.254 0 0 1-1.258-1.25c0-.68.574-1.251 1.258-1.251.685 0 1.259.57 1.259 1.25zM8.023 80.4H9.79V70.09H8.023V80.4zM20.761 72.481c-.242-.548-.773-1.053-1.413-1.053-.618 0-1.28.483-1.28 1.141 0 .943 1.192 1.295 2.406 1.8 1.214.503 2.407 1.228 2.407 2.96 0 1.953-1.59 3.356-3.51 3.356-1.745 0-3.113-.987-3.665-2.61l1.567-.658c.442.965.95 1.646 2.12 1.646.95 0 1.677-.637 1.677-1.58 0-2.304-4.68-1.514-4.68-4.76 0-1.733 1.413-2.917 3.09-2.917 1.192 0 2.297.833 2.76 1.907l-1.479.768zM30.232 71.209h.044c.552-.855 1.435-1.404 2.495-1.404 1.214 0 2.318.636 2.87 1.711.618-1.14 1.854-1.711 3.113-1.711 2.649 0 3.31 2.15 3.31 4.321V80.4H40.3v-5.988c0-1.339-.088-2.983-1.899-2.983-2.03 0-2.252 1.951-2.252 3.51V80.4h-1.766v-5.856c0-1.273-.154-3.115-1.854-3.115-2.076 0-2.296 2.083-2.296 3.641v5.33h-1.766V70.09h1.766v1.119zM57.982 80.4h-1.766v-1.426h-.045c-.905 1.141-2.119 1.711-3.576 1.711-3.046 0-4.967-2.566-4.967-5.418 0-2.94 1.876-5.462 4.989-5.462 1.413 0 2.694.658 3.554 1.755h.045v-1.47h1.766V80.4zm-8.544-5.265c0 2.02 1.193 3.927 3.4 3.927 2.274 0 3.466-1.82 3.466-3.904 0-2.063-1.302-3.73-3.488-3.73-2.053 0-3.378 1.777-3.378 3.707zM66.018 71.209h.044c.618-.812 1.148-1.404 2.296-1.404.596 0 1.082.198 1.59.483l-.84 1.601c-.353-.242-.595-.46-1.06-.46-1.942 0-2.03 2.478-2.03 3.816V80.4h-1.766V70.09h1.766v1.119z"/>
        </g>
        <path fill="#FEFEFE" d="M77.117 80.4h-1.766v-8.687h-1.082V70.09h1.082v-3.707h1.766v3.707h1.854v1.623h-1.854z"/>
        <path fill="#148CCC" d="M26.509 27.3l-.06-.243s-.035.051-.09.14c.05.035.1.07.15.103M25.892 27.995c-1.313 2.369-4.35 8.892-2.294 15.498 1.845 5.924 6.152 9.743 8.455 11.438l-6.161-26.936M58.812 27.3l.06-.243.089.14c-.05.035-.1.07-.15.103M59.428 27.995c1.313 2.369 4.35 8.892 2.293 15.498-1.844 5.924-6.152 9.743-8.454 11.438l6.16-26.936"/>
        <path fill="#1EBBEE" d="M31.931 8.472c.17-.008.34-.013.512-.013 5.736 0 10.389 4.61 10.41 10.305l.003.001C42.878 13.07 47.53 8.46 53.266 8.46c.279 0 .554.014.828.036-.34-.275-.695-.552-1.073-.833l.088-.007-.643-5.358S50.423 4.508 49.34 5.69a17.683 17.683 0 0 0-6.308-1.156c-1.983 0-4.263.27-6.472 1.098-1.102-1.2-3.046-3.303-3.046-3.303l-.643 5.357h.004c-.263.208-.523.422-.776.656l-.167.131M53.266 29.15c-2.813 0-5.362-1.11-7.236-2.91l-.034.095-3.122 3.97-2.935-4.157-.06-.105a10.411 10.411 0 0 1-7.437 3.107 10.41 10.41 0 0 1-6.877-2.581l7.585 33.154h19.148l7.176-31.37c.214-.549.399-1.112.555-1.686a10.404 10.404 0 0 1-6.763 2.483"/>
        <path fill="#FEFEFE" d="M31.274 62.36c0 .663-.64 1.201-1.429 1.201-.788 0-1.427-.538-1.427-1.201v-3.058c0-.663.639-1.2 1.427-1.2.79 0 1.43.537 1.43 1.2v3.058zM34.241 62.36c0 .663-.64 1.201-1.428 1.201-.79 0-1.429-.538-1.429-1.201v-3.058c0-.663.639-1.2 1.43-1.2.788 0 1.427.537 1.427 1.2v3.058zM37.208 62.36c0 .663-.64 1.201-1.429 1.201-.788 0-1.428-.538-1.428-1.201v-3.058c0-.663.64-1.2 1.428-1.2.79 0 1.43.537 1.43 1.2v3.058zM51.044 62.36c0 .663-.64 1.201-1.428 1.201-.789 0-1.429-.538-1.429-1.201v-3.058c0-.663.64-1.2 1.429-1.2s1.428.537 1.428 1.2v3.058zM54.011 62.36c0 .663-.64 1.201-1.429 1.201-.788 0-1.428-.538-1.428-1.201v-3.058c0-.663.64-1.2 1.428-1.2.79 0 1.43.537 1.43 1.2v3.058zM56.978 62.36c0 .663-.64 1.201-1.429 1.201-.788 0-1.428-.538-1.428-1.201v-3.058c0-.663.64-1.2 1.428-1.2.79 0 1.429.537 1.429 1.2v3.058z"/>
        <g transform="translate(20.732 .423)">
            <mask id="b" fill="#fff">
                <use xlink:href="#a"/>
            </mask>
            <path fill="#020203" d="M39.79 26.835c2.405-2.041 3.933-5.072 3.933-8.454 0-4.969-3.299-9.184-7.834-10.604l.001-.002a11.144 11.144 0 0 0-1.996-.43l-.522-4.428-.005-.032c-.018-.107-.033-.225-.05-.346-.114-.841-.257-1.888-1.132-2.15-.82-.243-1.56.448-2.097 1.059l-2.493 2.65-.015.02a18.488 18.488 0 0 0-5.28-.766c-1.579 0-3.484.167-5.438.72l-2.418-2.575C13.89.867 13.15.177 12.33.42c-.876.261-1.018 1.308-1.133 2.15-.017.12-.033.238-.05.346l-.52 4.4c-.011 0-.023.003-.033.004-.09.009-.18.02-.27.032-.099.012-.196.023-.293.038-.08.012-.158.026-.237.04-.106.018-.21.036-.314.058l-.086.015.002.003C4.334 8.568.52 13.039.52 18.381c0 3.226 1.39 6.134 3.607 8.167l.206.903C2.896 30.106.038 36.603 2.123 43.298c1.86 5.973 6.07 9.84 8.505 11.667l.529 2.308c-.21.096-.4.22-.56.373a2.155 2.155 0 0 0-1.484-.573c-1.123 0-2.037.81-2.037 1.806v3.057c0 .996.914 1.806 2.037 1.806.586 0 1.112-.22 1.484-.572a2.16 2.16 0 0 0 1.484.572c.585 0 1.111-.22 1.483-.572a2.16 2.16 0 0 0 1.483.572c1.124 0 2.038-.81 2.038-1.806v-1.864h9.76v1.864c0 .996.915 1.806 2.038 1.806.586 0 1.112-.22 1.484-.572.372.351.898.572 1.483.572.586 0 1.112-.22 1.484-.572.372.351.898.572 1.483.572 1.124 0 2.038-.81 2.038-1.806v-3.057c0-.995-.914-1.806-2.038-1.806-.585 0-1.111.22-1.483.572a2.051 2.051 0 0 0-.516-.352c.002 0 .003 0 .005.002l.574-2.513c2.463-1.893 6.466-5.7 8.267-11.484 2.02-6.489-.6-12.79-2.074-15.589l.2-.874zm-29.856 35.1c0 .324-.377.597-.82.597-.444 0-.82-.273-.82-.596v-3.057c0-.323.376-.596.82-.596.443 0 .82.273.82.596v3.057zm24.063-3.056c0-.323.376-.596.82-.596.444 0 .82.273.82.596v3.057c0 .323-.376.596-.82.596-.444 0-.82-.273-.82-.596v-3.057zm8.171-40.498c0 5.278-4.321 9.572-9.634 9.572-5.312 0-9.634-4.294-9.634-9.572 0-3.29 1.68-6.197 4.23-7.92h.001c.069-.046.138-.09.207-.134l.115-.074.21-.126.145-.082a6.67 6.67 0 0 1 .205-.114l.187-.095a10.335 10.335 0 0 1 .694-.316c.072-.03.145-.058.218-.085.057-.022.113-.044.17-.064a8.883 8.883 0 0 1 .788-.244l.148-.037a9.241 9.241 0 0 1 .425-.095c.14-.028.28-.054.422-.075l.025-.004c.135-.02.274-.037.411-.052.042-.005.085-.008.128-.012.11-.01.22-.018.331-.025l.124-.007a9.294 9.294 0 0 1 1.331.03l.146.013a7.844 7.844 0 0 1 .604.085l.16.029a7.991 7.991 0 0 1 .318.066c.204.045.406.096.606.155 3.994 1.168 6.92 4.842 6.92 9.183zm-17.875 7.51l-2.118 2.693-2.044-2.894a11.133 11.133 0 0 0 1.992-3.244 11.133 11.133 0 0 0 2.17 3.444zM12.355 5.652l.11-.946.1-.853.002.003.058-.497.008-.01.025-.21c.018-.115.035-.239.053-.367.027-.198.069-.51.124-.738.112.093.268.242.476.479l3.1 3.297c2.093-.733 4.193-.943 5.888-.943 1.967 0 3.898.338 5.718.99l1.138-1.196 2.066-2.198c.199-.226.35-.37.459-.46.055.228.098.54.124.739.017.128.034.252.053.367l.075.635.051.351.374 3.17a11.154 11.154 0 0 0-4.056.827l-.065.026c-.195.081-.388.167-.578.26-.025.011-.048.024-.073.036-.19.094-.38.192-.565.296l-.015.01c-.175.099-.345.203-.513.312-.034.021-.069.042-.103.065l-.05.03.003.003a11.202 11.202 0 0 0-4.22 5.185 11.197 11.197 0 0 0-4.741-5.508l.002-.007a11.146 11.146 0 0 0-5.212-1.528l.186-1.618-.002-.002zM2.077 18.38c0-4.675 3.39-8.576 7.857-9.406.14-.027.281-.05.423-.07l.024-.003a9.21 9.21 0 0 1 .413-.05l.132-.01c.105-.008.21-.017.315-.022a9.55 9.55 0 0 1 .914 0l.119.007c.117.006.232.015.347.026.035.003.07.005.103.009.14.014.28.032.418.052l.123.021c.099.016.198.034.297.053l.157.03a9.759 9.759 0 0 1 .972.262 9.759 9.759 0 0 1 1.31.533l.015.008c.293.147.579.308.855.483 2.687 1.7 4.474 4.684 4.474 8.077 0 5.278-4.322 9.572-9.635 9.572-5.312 0-9.633-4.294-9.633-9.572zm1.532 24.46c-1.547-4.968-.039-9.957 1.282-12.958l5.168 22.595c-2.236-1.99-5.073-5.216-6.45-9.637zm9.292 19.095c0 .323-.376.596-.82.596-.444 0-.82-.273-.82-.596v-3.057c0-.323.376-.596.82-.596.444 0 .82.273.82.596v3.057zm2.967 0c0 .323-.377.596-.82.596-.444 0-.82-.273-.82-.596v-3.057c0-.323.376-.596.82-.596.443 0 .82.273.82.596v3.057zm13.836 0c0 .323-.376.596-.82.596-.445 0-.82-.273-.82-.596v-3.057c0-.323.375-.596.82-.596.444 0 .82.273.82.596v3.057zm2.967 0c0 .323-.377.596-.82.596-.444 0-.82-.273-.82-.596v-3.057c0-.323.376-.596.82-.596.443 0 .82.273.82.596v3.057zm-1.411-4.784h.002a2.097 2.097 0 0 0-.895.493 2.158 2.158 0 0 0-1.484-.572c-.987 0-1.812.626-1.997 1.453h-9.84l.003.024c-.175-.84-1.005-1.477-2.002-1.477-.585 0-1.11.22-1.483.572a2.098 2.098 0 0 0-.836-.477l-6.68-29.203a11.172 11.172 0 0 0 5.662 1.534c2.79 0 5.344-1.02 7.305-2.705l3.092 4.387 3.32-4.223a11.169 11.169 0 0 0 7.107 2.541 11.18 11.18 0 0 0 5.363-1.363L31.26 57.152zm8.918-14.31c-1.327 4.259-4.007 7.406-6.201 9.409l5.048-22.07c1.286 3.026 2.65 7.853 1.153 12.66z" mask="url(#b)"/>
        </g>
        <path fill="#020203" d="M32.443 20.47a1.67 1.67 0 0 0 1.675-1.665c0-.92-.75-1.665-1.675-1.665a1.67 1.67 0 0 0-1.675 1.665c0 .92.75 1.664 1.675 1.664M38.553 34.236c-2.115.566-3.005-.946-3.101-1.124a.78.78 0 0 0-1.045-.33.772.772 0 0 0-.336 1.042c.42.81 1.64 2.083 3.587 2.083a4.98 4.98 0 0 0 1.3-.179.773.773 0 1 0-.405-1.492M53.266 17.14a1.67 1.67 0 0 0-1.676 1.665c0 .92.75 1.664 1.676 1.664a1.67 1.67 0 0 0 1.676-1.664c0-.92-.75-1.665-1.676-1.665"/>
        <path fill="#FEFEFE" d="M14.849 97.946v1.933H8.094v-1.527l3.247-3.017c.694-.64.793-1.034.793-1.39 0-.556-.372-.888-1.115-.888-.632 0-1.202.284-1.55.837l-1.82-1.01c.656-1.083 1.883-1.797 3.593-1.797 1.996 0 3.37 1.022 3.37 2.623 0 .837-.234 1.6-1.474 2.734l-1.636 1.502h3.347zM15.556 95.57c0-2.845 1.611-4.483 3.83-4.483 2.205 0 3.817 1.638 3.817 4.482 0 2.845-1.612 4.483-3.818 4.483-2.218 0-3.829-1.638-3.829-4.483m5.18 0c0-1.81-.57-2.487-1.35-2.487-.794 0-1.364.677-1.364 2.487s.57 2.488 1.363 2.488c.781 0 1.352-.677 1.352-2.488M31.585 97.453h-5.032l-1.102 2.426h-.682l3.99-8.62h.632l3.99 8.62h-.68l-1.116-2.426zm-.236-.53l-2.28-4.974-2.268 4.975h4.548z"/>
        <path fill="#FEFEFE" d="M33.593 100.014h-.98l-1.115-2.426H26.64l-1.102 2.426h-.98l4.115-8.89h.805l4.115 8.89zm-.806-.268h.384l-3.866-8.353h-.46l-3.865 8.353h.384l1.102-2.427h5.205l1.116 2.427zm-1.227-2.688h-4.969l2.478-5.433 2.491 5.433zm-4.55-.268h4.13l-2.07-4.517-2.06 4.517z"/>
        <path fill="#FEFEFE" d="M33.56 99.992h-.933l-1.115-2.425h-4.885l-1.103 2.425h-.933l4.095-8.846h.778l4.096 8.846zm-.786-.226h.43l-3.886-8.393h-.486l-3.885 8.393h.43l1.103-2.426h5.178l1.116 2.426zm-1.247-2.73h-4.902l2.444-5.36 2.458 5.36zm-4.55-.226h4.196l-2.103-4.588-2.092 4.588z"/>
        <path fill="#FEFEFE" d="M33.771 100.126h-1.23l-1.115-2.424h-4.712l-1.103 2.424H24.38l4.22-9.114h.951l.036.078 4.184 9.036zm-.91-.494h.132l-3.761-8.126h-.092l2.597 5.665h-5.322l2.583-5.665h-.08l-3.76 8.126h.132l1.103-2.426h5.352l1.116 2.426zm-5.673-2.956h3.775l-1.893-4.129-1.882 4.13zM42.021 91.26v8.62h-.52l-5.912-7.488v7.487h-.632v-8.62h.533l5.9 7.487V91.26z"/>
        <path fill="#FEFEFE" d="M42.157 100.014h-.722l-.04-.051-5.67-7.182v7.233h-.903v-8.89h.734l.04.052 5.658 7.18v-7.232h.903v8.89zm-.59-.268h.32v-8.353h-.363v7.743l-6.1-7.743h-.332v8.353h.362v-7.743l6.113 7.743z"/>
        <path fill="#FEFEFE" d="M42.135 99.992h-.69l-5.742-7.272v7.272h-.86v-8.846h.702l5.73 7.272v-7.272h.86v8.846zm-.579-.226h.351v-8.393h-.404v7.702l-6.069-7.702h-.363v8.393h.404v-7.701l6.081 7.7z"/>
        <path fill="#FEFEFE" d="M42.27 100.126h-.89l-.04-.05-5.501-6.967v7.017h-1.13v-9.114h.902l5.529 7.017v-7.017h1.13v9.114zm-.648-.494h.15v-8.126h-.134v7.958l-6.27-7.958h-.161v8.126h.133v-7.957l6.282 7.957z"/>
        <g fill="#FEFEFE">
            <path d="M44.216 95.57c0-2.5 1.921-4.373 4.511-4.373 2.578 0 4.512 1.86 4.512 4.372 0 2.513-1.934 4.372-4.512 4.372-2.59 0-4.51-1.872-4.51-4.372m8.377 0c0-2.18-1.66-3.792-3.867-3.792-2.218 0-3.879 1.612-3.879 3.792 0 2.18 1.661 3.793 3.88 3.793 2.205 0 3.866-1.613 3.866-3.793"/>
            <path d="M48.727 100.075c-2.648 0-4.646-1.937-4.646-4.506 0-2.568 1.998-4.505 4.646-4.505 2.65 0 4.647 1.937 4.647 4.505 0 2.569-1.998 4.506-4.647 4.506m0-8.743c-2.494 0-4.376 1.822-4.376 4.237s1.882 4.237 4.376 4.237c2.495 0 4.376-1.822 4.376-4.237s-1.88-4.237-4.376-4.237m0 8.165c-2.288 0-4.014-1.689-4.014-3.928s1.726-3.927 4.014-3.927c2.282 0 4.002 1.688 4.002 3.927 0 2.24-1.72 3.928-4.002 3.928m0-7.587c-2.134 0-3.743 1.573-3.743 3.659 0 2.087 1.61 3.66 3.743 3.66 2.127 0 3.732-1.573 3.732-3.66 0-2.086-1.605-3.659-3.732-3.659"/>
            <path d="M48.728 100.054c-2.637 0-4.625-1.928-4.625-4.485 0-2.556 1.988-4.484 4.625-4.484 2.636 0 4.624 1.928 4.624 4.484 0 2.557-1.988 4.485-4.624 4.485m0-8.743c-2.508 0-4.398 1.83-4.398 4.258s1.89 4.258 4.398 4.258c2.507 0 4.396-1.83 4.396-4.258 0-2.427-1.89-4.258-4.396-4.258m0 8.164c-2.277 0-3.993-1.679-3.993-3.906 0-2.227 1.716-3.906 3.993-3.906 2.269 0 3.98 1.68 3.98 3.906 0 2.227-1.711 3.906-3.98 3.906m0-7.585c-2.147 0-3.766 1.581-3.766 3.68 0 2.097 1.619 3.679 3.766 3.679 2.139 0 3.752-1.582 3.752-3.68s-1.613-3.68-3.752-3.68"/>
            <path d="M48.727 100.188c-2.713 0-4.76-1.985-4.76-4.619 0-2.633 2.047-4.619 4.76-4.619 2.714 0 4.761 1.986 4.761 4.62 0 2.633-2.047 4.618-4.76 4.618m0-8.743c-2.43 0-4.263 1.774-4.263 4.124 0 2.351 1.832 4.124 4.262 4.124 2.43 0 4.263-1.773 4.263-4.124 0-2.35-1.832-4.124-4.263-4.124m0 8.164c-2.353 0-4.128-1.736-4.128-4.04 0-2.303 1.775-4.04 4.128-4.04 2.347 0 4.116 1.737 4.116 4.04 0 2.304-1.77 4.04-4.116 4.04m0-7.585c-2.069 0-3.63 1.524-3.63 3.545s1.561 3.546 3.63 3.546c2.063 0 3.619-1.525 3.619-3.546 0-2.02-1.556-3.545-3.619-3.545M54.554 98.771l.285-.468c.595.616 1.698 1.084 2.863 1.084 1.735 0 2.503-.752 2.503-1.687 0-2.587-5.416-1.035-5.416-4.212 0-1.219.942-2.29 3.073-2.29.955 0 1.947.295 2.616.776l-.236.504a4.31 4.31 0 0 0-2.38-.726c-1.685 0-2.44.776-2.44 1.724 0 2.586 5.415 1.059 5.415 4.186 0 1.22-.979 2.279-3.123 2.279-1.289 0-2.528-.48-3.16-1.17"/>
            <path d="M57.714 100.075c-1.306 0-2.585-.476-3.26-1.214l-.069-.075.43-.702.121.126c.612.633 1.697 1.042 2.765 1.042 1.483 0 2.369-.58 2.369-1.553 0-1.12-1.11-1.39-2.397-1.701-1.415-.345-3.02-.734-3.02-2.51 0-1.172.844-2.424 3.21-2.424.974 0 2.007.306 2.694.8l.09.066-.349.75-.132-.092a4.177 4.177 0 0 0-2.304-.702c-1.443 0-2.306.594-2.306 1.59 0 1.127 1.118 1.399 2.412 1.712 1.409.344 3.005.73 3.005 2.474 0 1.114-.854 2.413-3.259 2.413zm-2.991-1.322c.635.632 1.82 1.053 2.991 1.053 2.203 0 2.988-1.107 2.988-2.144 0-1.532-1.36-1.863-2.797-2.212-1.288-.313-2.62-.637-2.62-1.974 0-.899.678-1.858 2.577-1.858.812 0 1.649.24 2.324.662l.121-.26c-.642-.426-1.566-.688-2.445-.688-2.166 0-2.937 1.115-2.937 2.156 0 1.565 1.43 1.912 2.813 2.248 1.28.31 2.602.632 2.602 1.963 0 1.14-.986 1.822-2.639 1.822-1.069 0-2.16-.39-2.835-1.004l-.143.236z"/>
            <path d="M57.714 100.054c-1.3 0-2.573-.474-3.244-1.207l-.058-.063.406-.666.103.106c.615.637 1.707 1.05 2.78 1.05 1.496 0 2.39-.589 2.39-1.575 0-1.137-1.118-1.408-2.412-1.722-1.408-.342-3.004-.73-3.004-2.49 0-1.161.838-2.402 3.188-2.402.969 0 1.996.305 2.681.797l.076.054-.331.712-.112-.076a4.184 4.184 0 0 0-2.314-.707c-1.457 0-2.328.602-2.328 1.61 0 1.144 1.18 1.43 2.429 1.734 1.4.34 2.987.726 2.987 2.454 0 1.765-1.744 2.391-3.237 2.391zm-3.018-1.299c.638.644 1.836 1.072 3.018 1.072 2.218 0 3.01-1.118 3.01-2.164 0-1.55-1.431-1.898-2.815-2.234-1.28-.31-2.601-.633-2.601-1.953 0-.888.67-1.838 2.555-1.838.815 0 1.657.245 2.331.673l.14-.3c-.647-.433-1.583-.7-2.471-.7-2.182 0-2.96 1.125-2.96 2.177 0 1.582 1.439 1.931 2.83 2.268 1.271.31 2.586.628 2.586 1.943 0 1.128-.979 1.801-2.617 1.801-1.075 0-2.17-.395-2.84-1.016l-.166.271z"/>
            <path d="M57.714 100.188c-1.336 0-2.649-.491-3.344-1.25l-.126-.138.55-.901.224.232c.591.612 1.645 1.008 2.684 1.008 1.411 0 2.254-.538 2.254-1.44 0-1.03-1.017-1.277-2.305-1.592-1.39-.336-3.111-.755-3.111-2.618 0-1.227.873-2.539 3.322-2.539.998 0 2.055.316 2.762.823l.166.12-.446.956-.243-.168A4.05 4.05 0 0 0 57.862 92c-1.373 0-2.192.553-2.192 1.477 0 1.037 1.077 1.299 2.322 1.602 1.38.335 3.095.751 3.095 2.585 0 1.865-1.817 2.525-3.373 2.525zm-2.846-1.454c.629.577 1.755.96 2.846.96 2.12 0 2.874-1.05 2.874-2.031 0-1.444-1.317-1.764-2.711-2.104-1.268-.308-2.704-.657-2.704-2.083 0-.953.706-1.972 2.69-1.972.783 0 1.602.223 2.273.614l.026-.057c-.618-.381-1.487-.616-2.3-.616-2.082 0-2.824 1.056-2.824 2.044 0 1.476 1.325 1.797 2.727 2.137 1.262.307 2.689.654 2.689 2.073 0 1.212-1.028 1.935-2.752 1.935-1.044 0-2.103-.357-2.808-.943l-.026.043z"/>
        </g>
    </g>
</svg>
