<svg xmlns="http://www.w3.org/2000/svg" width="40" height="40" viewBox="0 0 40 40">
    <g fill="none" fill-rule="evenodd">
        <path stroke="#1F2C5E" stroke-linecap="round" stroke-linejoin="round" stroke-width=".588" d="M20.65 8.307a1.048 1.048 0 0 0-1.483 0l-5.43 5.432 1.85 1.848s.341.897.13 1.424a1.528 1.528 0 0 0-1.613.354 1.539 1.539 0 1 0 2.175 2.175 1.531 1.531 0 0 0 .354-1.613c.53-.21 1.424.13 1.424.13l1.851 1.854 1.85-1.85s.342-.896.13-1.424a1.536 1.536 0 0 1-1.613-.352 1.54 1.54 0 1 1 2.178-2.178 1.53 1.53 0 0 1 .351 1.614c.531.21 1.424-.131 1.424-.131l1.852-1.851-5.43-5.432z"/>
        <path fill="#F2665D" d="M31.512 20.652c.41-.41.409-1.073 0-1.483l-5.431-5.43-1.85 1.85s-.895.341-1.422.13a1.532 1.532 0 0 0-.354-1.614 1.543 1.543 0 0 0-2.178 0c-.6.602-.598 1.575.002 2.177a1.53 1.53 0 0 0 1.613.352c.21.531-.131 1.424-.131 1.424l-1.853 1.853 1.85 1.848s.896.343 1.424.13a1.532 1.532 0 0 1 .352-1.61 1.538 1.538 0 0 1 2.179 0 1.534 1.534 0 1 1-1.614 2.528c-.21.53.13 1.422.13 1.422l1.852 1.854 5.43-5.43z"/>
        <path stroke="#1F2C5E" stroke-linecap="round" stroke-linejoin="round" stroke-width=".588" d="M31.512 20.652c.41-.41.409-1.073 0-1.483l-5.431-5.43-1.85 1.85s-.895.341-1.422.13a1.532 1.532 0 0 0-.354-1.614 1.543 1.543 0 0 0-2.178 0c-.6.602-.598 1.575.002 2.177a1.53 1.53 0 0 0 1.613.352c.21.531-.131 1.424-.131 1.424l-1.853 1.853 1.85 1.848s.896.343 1.424.13a1.532 1.532 0 0 1 .352-1.61 1.538 1.538 0 0 1 2.179 0 1.534 1.534 0 1 1-1.614 2.528c-.21.53.13 1.422.13 1.422l1.852 1.854 5.43-5.43z"/>
        <path fill="#1DBCEE" d="M19.169 31.512c.41.41 1.074.41 1.483 0l5.43-5.432-1.85-1.848s-.342-.895-.13-1.423a1.531 1.531 0 0 0 1.613-.354 1.54 1.54 0 0 0 0-2.178 1.54 1.54 0 0 0-2.176.002 1.531 1.531 0 0 0-.353 1.613c-.531.21-1.424-.131-1.424-.131l-1.852-1.853-1.848 1.85s-.343.896-.131 1.424a1.538 1.538 0 0 1 1.612.352 1.54 1.54 0 1 1-2.18 2.179 1.536 1.536 0 0 1-.35-1.614c-.53-.21-1.422.13-1.422.13l-1.853 1.85 5.43 5.433z"/>
        <path stroke="#1F2C5E" stroke-linecap="round" stroke-linejoin="round" stroke-width=".588" d="M19.169 31.512c.41.41 1.074.41 1.483 0l5.43-5.432-1.85-1.848s-.342-.895-.13-1.423a1.531 1.531 0 0 0 1.613-.354 1.54 1.54 0 0 0 0-2.178 1.54 1.54 0 0 0-2.176.002 1.531 1.531 0 0 0-.353 1.613c-.531.21-1.424-.131-1.424-.131l-1.852-1.853-1.848 1.85s-.343.896-.131 1.424a1.538 1.538 0 0 1 1.612.352 1.54 1.54 0 1 1-2.18 2.179 1.536 1.536 0 0 1-.35-1.614c-.53-.21-1.422.13-1.422.13l-1.853 1.85 5.43 5.433z"/>
        <path fill="#008ED4" d="M8.307 19.167a1.047 1.047 0 0 0 0 1.482l5.431 5.432 1.85-1.85s.894-.343 1.423-.13c-.2.544-.084 1.175.353 1.612a1.538 1.538 0 1 0 .563-2.529c-.21-.53.132-1.424.132-1.424l1.852-1.852-1.85-1.849s-.896-.342-1.424-.13a1.534 1.534 0 0 1-.352 1.612 1.541 1.541 0 0 1-2.178-2.179 1.535 1.535 0 0 1 1.614-.35c.21-.53-.131-1.423-.131-1.423l-1.852-1.854-5.43 5.432z"/>
        <path stroke="#1F2C5E" stroke-linecap="round" stroke-linejoin="round" stroke-width=".588" d="M8.307 19.167a1.047 1.047 0 0 0 0 1.482l5.431 5.432 1.85-1.85s.894-.343 1.423-.13c-.2.544-.084 1.175.353 1.612a1.538 1.538 0 1 0 .563-2.529c-.21-.53.132-1.424.132-1.424l1.852-1.852-1.85-1.849s-.896-.342-1.424-.13a1.534 1.534 0 0 1-.352 1.612 1.541 1.541 0 0 1-2.178-2.179 1.535 1.535 0 0 1 1.614-.35c.21-.53-.131-1.423-.131-1.423l-1.852-1.854-5.43 5.432z"/>
    </g>
</svg>
