<svg xmlns="http://www.w3.org/2000/svg" width="81" height="81" viewBox="0 0 81 81">
    <g fill="none" fill-rule="evenodd">
        <path fill="#008ED4" d="M72.704 39.033L67.6 41.485l-10.585 5.083v-7.46c0-2.325-6.988-4.218-15.605-4.218-8.61 0-15.598 1.893-15.643 4.218v7.436l-15.643-7.51 31.286-14.862 31.293 14.861z"/>
        <path stroke="#1F2C5E" stroke-linecap="round" stroke-linejoin="round" stroke-width=".588" d="M72.704 39.033L67.6 41.485l-10.585 5.083v-7.46c0-2.325-6.988-4.218-15.605-4.218-8.61 0-15.598 1.893-15.643 4.218v7.436l-15.643-7.51 31.286-14.862 31.293 14.861zM25.806 46.561l-.036-.02M57.014 46.568h-.006"/>
        <path fill="#EE2F68" d="M72.704 37.14v1.894L41.41 24.172 10.125 39.034V37.14l31.286-14.866z"/>
        <path stroke="#1F2C5E" stroke-linecap="round" stroke-linejoin="round" stroke-width=".588" d="M72.704 37.14v1.894L41.41 24.172 10.125 39.034V37.14l31.286-14.866z"/>
        <path fill="#008ED4" d="M57.014 54.046c0 2.327-6.986 4.22-15.605 4.22-8.61 0-15.596-1.893-15.596-4.22 0-.601.463-1.166 1.29-1.69 0-.007.006 0 .006 0 .233-.134.49-.28.767-.41.19-.09.387-.172.602-.257.143-.056.285-.111.435-.166.154-.05.31-.107.466-.154.557-.186 1.17-.352 1.836-.51.187-.044.375-.083.571-.127.221-.047.442-.096.673-.136.233-.043.47-.083.71-.126.237-.042.48-.077.723-.117a50.343 50.343 0 0 1 3.293-.365c.233-.018.47-.03.71-.046a54.71 54.71 0 0 1 3.514-.108c8.619 0 15.605 1.888 15.605 4.212"/>
        <path stroke="#1F2C5E" stroke-linecap="round" stroke-linejoin="round" stroke-width=".588" d="M57.014 54.046c0 2.327-6.986 4.22-15.605 4.22-8.61 0-15.596-1.893-15.596-4.22 0-.601.463-1.166 1.29-1.69 0-.007.006 0 .006 0 .233-.134.49-.28.767-.41.19-.09.387-.172.602-.257.143-.056.285-.111.435-.166.154-.05.31-.107.466-.154.557-.186 1.17-.352 1.836-.51.187-.044.375-.083.571-.127.221-.047.442-.096.673-.136.233-.043.47-.083.71-.126.237-.042.48-.077.723-.117a50.343 50.343 0 0 1 3.293-.365c.233-.018.47-.03.71-.046a54.71 54.71 0 0 1 3.514-.108c8.619 0 15.605 1.888 15.605 4.212z"/>
        <path fill="#1DBCEE" d="M57.014 39.11v14.938c0-2.326-6.986-4.214-15.605-4.214a54.71 54.71 0 0 0-3.513.108c-.241.016-.478.028-.71.046-1.161.09-2.263.215-3.294.365-.243.04-.486.077-.723.115-.24.045-.477.085-.71.128-.231.04-.452.089-.673.136a23.813 23.813 0 0 0-2.873.794c-.15.05-.292.107-.435.165a9.43 9.43 0 0 0-.602.256c-.277.13-.534.263-.767.41 0 0-.006-.005-.006 0-.849.513-1.327 1.084-1.333 1.691V39.11c.043-2.327 7.029-4.22 15.64-4.22 8.618 0 15.604 1.893 15.604 4.22"/>
        <path stroke="#1F2C5E" stroke-linecap="round" stroke-linejoin="round" stroke-width=".588" d="M57.014 39.11v14.938c0-2.326-6.986-4.214-15.605-4.214a54.71 54.71 0 0 0-3.513.108c-.241.016-.478.028-.71.046-1.161.09-2.263.215-3.294.365-.243.04-.486.077-.723.115-.24.045-.477.085-.71.128-.231.04-.452.089-.673.136a23.813 23.813 0 0 0-2.873.794c-.15.05-.292.107-.435.165a9.43 9.43 0 0 0-.602.256c-.277.13-.534.263-.767.41 0 0-.006-.005-.006 0-.849.513-1.327 1.084-1.333 1.691V39.11c.043-2.327 7.029-4.22 15.64-4.22 8.618 0 15.604 1.893 15.604 4.22zM67.604 41.481v12.57"/>
        <path fill="#EE2F68" d="M68.893 55.34a1.289 1.289 0 1 1-2.576 0c0-.717.573-1.294 1.284-1.294a1.29 1.29 0 0 1 1.292 1.294"/>
        <path stroke="#1F2C5E" stroke-linecap="round" stroke-linejoin="round" stroke-width=".588" d="M68.893 55.34a1.289 1.289 0 1 1-2.576 0c0-.717.573-1.294 1.284-1.294a1.29 1.29 0 0 1 1.292 1.294z"/>
    </g>
</svg>
