<svg xmlns="http://www.w3.org/2000/svg" xmlns:xlink="http://www.w3.org/1999/xlink" width="127" height="203"
	viewBox="0 0 127 203">
	<defs>
		<path id="a" d="M.782.15h66.465v51.856H.782z" />
		<path id="c" d="M.057.817h37.88v59.347H.058z" />
	</defs>
	<g fill="none" fill-rule="evenodd">
		<path fill="#005E9E" d="M78 87l10 5.016v21.557L78 116z" />
		<path fill="#008FD4" d="M59 64.741L67.953 57l11.68 7.741L81 116.8 67.953 121 59 92.288z" />
		<path fill="#ED2E69" d="M71.456 60H36V29h36z" />
		<path fill="#D4F0FC" d="M56 202.673L35 203v-6h20.535z" />
		<path fill="#D4F0FC" d="M70 202.673L49 203v-6h20.535z" />
		<g transform="translate(58.918 51.24)">
			<mask id="b" fill="#fff">
				<use xlink:href="#a" />
			</mask>
			<path fill="#F58573"
				d="M.782 6.158s31.501 14.691 48.827 34.784c17.328 20.092 21.236 8.55 14.573-1.233C57.52 29.93 28.696 5.22 2.178.15L.782 6.159z"
				mask="url(#b)" />
		</g>
		<path fill="#F58573"
			d="M66.722 29.798c0 9.19-7.42 16.638-16.579 16.638-9.16 0-16.583-7.448-16.583-16.638 0-9.189 7.424-16.641 16.583-16.641 9.159 0 16.579 7.452 16.579 16.64" />
		<path fill="#ED2E69"
			d="M72.419 29.213c0-11.675 1.147-21.143-21.064-21.143-21.07 0-21.07 9.468-21.07 21.143h24.62l1.441-4.436v4.436H72.42z" />
		<path fill="#1F2B5E"
			d="M40.323 33.23c0 .666-.542 1.215-1.21 1.215a1.218 1.218 0 0 1 0-2.434c.668 0 1.21.548 1.21 1.219m12.239 0c0 .666-.543 1.215-1.208 1.215a1.217 1.217 0 1 1 0-2.435c.665 0 1.208.549 1.208 1.22" />
		<mask id="d" fill="#fff">
			<use xlink:href="#c" />
		</mask>
		<path fill="#F58573"
			d="M37.938 55.353s-19.75-20.11-24.772-41.454C8.144-7.448-.806 1.5.125 11.469c.932 9.966 13.522 38.015 33.696 48.695l4.117-4.811z"
			mask="url(#d)" />
		<path fill="#8FC7B0"
			d="M66.707 197L69 108.097l-2.293-20.03L37.797 87 35 106.989 47.6 197h5.552l-3.073-81.833h3.783L60.096 197z" />
		<path fill="#F2F5D6"
			d="M33.712 48.46L29.458 41 24 57.148l4.16 1.677-1.022 67.057L75.303 127l-3.115-60.507L81 53.836 64.443 48.53l-27.375 1.242-2.146-2.553z" />
		<path fill="#1CBDED" d="M68.575 45L63 50.698 75.488 89 78 83.085z" />
		<g fill="#CCE8D4">
			<path
				d="M52.78 106.228h-7.849c.212.413.322.843.376 1.284h7.42c-.006-.33 0-.66.002-.99a.85.85 0 0 1 .052-.294m-14.7-21.781l-.038-.168s-.025.036-.062.096c.033.024.07.049.1.072m21.917 0l.041-.168s.025.036.061.096a3.49 3.49 0 0 1-.102.072" />
			<path
				d="M61.161 84.419a7.77 7.77 0 0 0 2.667-5.875c0-3.45-2.238-6.38-5.314-7.367l.002-.001a7.518 7.518 0 0 0-1.356-.298l-.354-3.077-.003-.022a5.27 5.27 0 0 1-.035-.24c-.079-.586-.174-1.314-.768-1.495-.556-.169-1.058.311-1.424.737l-1.69 1.839-.01.015a12.264 12.264 0 0 0-3.584-.533c-1.07 0-2.364.117-3.688.5l-1.64-1.788c-.375-.436-.878-.916-1.434-.748-.594.181-.69.908-.77 1.493a5.91 5.91 0 0 1-.032.24l-.354 3.058a3.938 3.938 0 0 0-.207.026c-.065.006-.13.016-.197.025l-.16.029a6.129 6.129 0 0 0-.215.04.572.572 0 0 0-.057.011v.001c-3.434.738-6.02 3.845-6.02 7.555 0 2.242.943 4.262 2.446 5.675l.14.627c-.977 1.844-2.913 6.36-1.499 11.01 1.26 4.151 4.116 6.838 5.77 8.107l.36 1.605a1.336 1.336 0 0 0-.383.256 1.444 1.444 0 0 0-1.005-.396c-.762 0-1.383.562-1.383 1.255v2.122c0 .693.621 1.257 1.383 1.257a1.44 1.44 0 0 0 1.005-.398 1.45 1.45 0 0 0 1.008.398c.396 0 .753-.154 1.006-.398.253.244.608.398 1.009.398.76 0 1.38-.564 1.38-1.257v-1.293h6.623v1.293c0 .693.621 1.257 1.382 1.257a1.45 1.45 0 0 0 1.007-.398 1.44 1.44 0 0 0 1.007.398c.397 0 .753-.154 1.004-.398.254.244.611.398 1.008.398.763 0 1.382-.564 1.382-1.257v-2.122c0-.693-.619-1.255-1.382-1.255-.397 0-.754.153-1.008.396a1.325 1.325 0 0 0-.348-.243h.002l.39-1.745c1.672-1.314 4.388-3.961 5.609-7.98 1.373-4.507-.407-8.886-1.406-10.83l.136-.607zm-20.258 24.386c0 .226-.255.416-.556.416-.302 0-.557-.19-.557-.416v-2.122c0-.225.255-.416.557-.416.301 0 .556.191.556.416v2.122zm16.328-2.122c0-.225.253-.416.555-.416.302 0 .557.191.557.416v2.122c0 .226-.255.416-.557.416-.302 0-.555-.19-.555-.416v-2.122zm5.543-28.14c0 3.669-2.933 6.654-6.538 6.654-3.604 0-6.535-2.985-6.535-6.653a6.684 6.684 0 0 1 2.87-5.503l.002.001.138-.094.079-.05a5.22 5.22 0 0 1 .143-.087l.097-.06c.047-.025.09-.052.138-.077l.13-.067a5.12 5.12 0 0 1 .346-.167l.124-.052.148-.06.114-.043a8.429 8.429 0 0 1 .321-.109 5.12 5.12 0 0 1 .314-.087 4.75 4.75 0 0 1 .197-.046l.091-.02a9.67 9.67 0 0 1 .288-.052c.004 0 .01 0 .016-.003a6.25 6.25 0 0 1 .279-.035l.086-.01c.077-.006.15-.012.226-.016l.084-.004a5.775 5.775 0 0 1 .604 0c.028.001.06.001.089.004a5.148 5.148 0 0 1 .308.026c.087.008.171.02.256.033.052.008.105.014.155.025l.107.02.18.036a7.572 7.572 0 0 1 .448.117c2.71.811 4.695 3.364 4.695 6.38zm-12.13 5.22v-.001l-1.435 1.872-1.387-2.012a7.736 7.736 0 0 0 1.351-2.251 7.805 7.805 0 0 0 1.471 2.392zm2.528-13.918l.773-.832 1.401-1.526a2.88 2.88 0 0 1 .311-.32c.038.158.067.375.084.512l.036.256.052.442.032.243.256 2.201a7.408 7.408 0 0 0-3.238.8 5.36 5.36 0 0 0-.389.208 7.431 7.431 0 0 0-.422.267c-.01.007-.023.013-.034.021v.001a7.731 7.731 0 0 0-2.86 3.603 7.72 7.72 0 0 0-3.218-3.826v-.005a7.443 7.443 0 0 0-3.536-1.064l.128-1.123-.002-.002.075-.655.068-.593v.001l.039-.347.006-.006.017-.145c.013-.08.026-.167.034-.255.022-.138.05-.355.087-.514.074.066.18.168.325.335l2.101 2.288c1.418-.508 2.844-.654 3.994-.654l3.88.689zm-17.6 8.699c0-3.246 2.302-5.96 5.33-6.535a7.68 7.68 0 0 1 .287-.048c.007 0 .012-.002.018-.003.093-.012.184-.024.28-.034l.09-.007c.07-.005.142-.012.213-.014a6.422 6.422 0 0 1 1.29.065c.026.003.056.01.082.012.068.012.137.024.203.038.036.007.07.016.107.021.064.016.133.03.2.048l.15.04a3.713 3.713 0 0 1 .307.096 6.36 6.36 0 0 1 .65.254c.02.008.041.019.06.028.061.027.122.058.18.086l.01.007c.2.101.393.213.582.335a6.675 6.675 0 0 1 3.035 5.61c0 3.669-2.932 6.654-6.537 6.654s-6.537-2.985-6.537-6.653zm1.041 16.995c-1.05-3.453-.026-6.917.868-9.004l3.508 15.7c-1.518-1.382-3.443-3.625-4.376-6.696zm6.303 13.266c0 .226-.255.416-.556.416-.301 0-.557-.19-.557-.416v-2.122c0-.225.256-.416.557-.416.3 0 .556.191.556.416v2.122zm2.013 0c0 .226-.256.416-.554.416-.303 0-.558-.19-.558-.416v-2.122c0-.225.255-.416.558-.416.298 0 .554.191.554.416v2.122zm9.388 0c0 .226-.255.416-.557.416-.301 0-.557-.19-.557-.416v-2.122c0-.225.256-.416.557-.416.302 0 .557.191.557.416v2.122zm2.012 0c0 .226-.254.416-.555.416-.303 0-.557-.19-.557-.416v-2.122c0-.225.254-.416.557-.416.3 0 .555.191.555.416v2.122zm-.957-3.32l.002-.004a1.416 1.416 0 0 0-.607.343 1.453 1.453 0 0 0-1.007-.396c-.67 0-1.231.435-1.355 1.009h-6.677l.003.017c-.119-.584-.683-1.026-1.356-1.026-.4 0-.756.153-1.01.396a1.42 1.42 0 0 0-.565-.33l-4.534-20.29a7.438 7.438 0 0 0 3.843 1.065c1.894 0 3.626-.71 4.955-1.88l2.099 3.047 2.252-2.932a7.47 7.47 0 0 0 8.46.818l-4.503 20.162zm6.051-9.946c-.9 2.961-2.719 5.145-4.21 6.538l3.429-15.333c.87 2.103 1.797 5.455.781 8.795z" />
			<path
				d="M42.109 79.701c.628 0 1.135-.517 1.135-1.156 0-.639-.507-1.157-1.135-1.157-.626 0-1.137.518-1.137 1.157s.51 1.156 1.137 1.156m4.145 9.565c-1.434.394-2.037-.657-2.104-.78a.523.523 0 0 0-.71-.228.542.542 0 0 0-.227.724c.285.56 1.114 1.446 2.433 1.446.273 0 .57-.038.884-.124a.54.54 0 0 0 .371-.66.527.527 0 0 0-.647-.378m9.983-11.877c-.627 0-1.137.518-1.137 1.155 0 .64.51 1.158 1.137 1.158s1.136-.518 1.136-1.158c0-.637-.509-1.155-1.136-1.155" />
		</g>
		<path fill="#ED2E69" d="M66.538 85h-3.59L61 29h8z" />
		<path fill="#1CBDED" d="M32.643 44L38 49.503 27.22 85 25 75.07z" />
	</g>
</svg>