<svg xmlns="http://www.w3.org/2000/svg" xmlns:xlink="http://www.w3.org/1999/xlink" width="74" height="89" viewBox="0 0 74 89">
    <defs>
        <path id="a" d="M.448.293h37.174v54.785H.448z"/>
    </defs>
    <g fill="none" fill-rule="evenodd">
        <path fill="#212F59" d="M0 88.707h73.75V76.743H0z"/>
        <path fill="#FEFEFE" d="M45.833 7.31c-4.936 0-8.938 3.983-8.957 8.904h-.002c-.019-4.921-4.022-8.905-8.958-8.905-4.948 0-8.96 4.003-8.96 8.94 0 4.937 4.012 8.939 8.96 8.939a8.94 8.94 0 0 0 6.399-2.685l.051.092 2.525 3.592 2.687-3.431.03-.083a8.935 8.935 0 0 0 6.225 2.515c4.95 0 8.96-4.002 8.96-8.94 0-4.936-4.01-8.939-8.96-8.939"/>
        <path fill="#148CCC" d="M0 74.782h73.75V51.476H0z"/>
        <g fill="#FEFEFE">
            <path d="M8.747 57.208c0 .608-.495 1.08-1.083 1.08a1.081 1.081 0 0 1-1.083-1.08c0-.587.494-1.08 1.083-1.08.588 0 1.083.493 1.083 1.08zM6.904 69.472h1.52v-8.909h-1.52v8.909zM17.865 62.63c-.21-.475-.666-.91-1.217-.91-.532 0-1.101.416-1.101.985 0 .815 1.025 1.12 2.07 1.555 1.045.436 2.071 1.061 2.071 2.558 0 1.687-1.368 2.9-3.02 2.9-1.501 0-2.679-.853-3.154-2.255l1.349-.569c.38.834.817 1.422 1.823 1.422.818 0 1.444-.55 1.444-1.365 0-1.99-4.027-1.308-4.027-4.113 0-1.497 1.216-2.52 2.66-2.52 1.025 0 1.976.72 2.374 1.648l-1.272.663zM26.013 61.53h.038c.475-.74 1.235-1.213 2.147-1.213 1.045 0 1.994.55 2.47 1.479.531-.986 1.595-1.48 2.678-1.48 2.28 0 2.85 1.859 2.85 3.735v5.421h-1.52v-5.175c0-1.156-.076-2.577-1.634-2.577-1.747 0-1.938 1.686-1.938 3.032v4.72h-1.52v-5.06c0-1.1-.132-2.692-1.595-2.692-1.786 0-1.976 1.8-1.976 3.146v4.606h-1.52v-8.909h1.52v.967zM49.891 69.472h-1.52V68.24h-.038c-.778.986-1.823 1.478-3.077 1.478-2.621 0-4.274-2.217-4.274-4.681 0-2.54 1.615-4.72 4.293-4.72 1.216 0 2.318.569 3.058 1.517h.039v-1.27h1.52v8.908zm-7.351-4.55c0 1.745 1.026 3.394 2.925 3.394 1.957 0 2.983-1.573 2.983-3.374 0-1.782-1.12-3.222-3.002-3.222-1.767 0-2.906 1.535-2.906 3.203zM56.806 61.53h.038c.532-.702.988-1.213 1.975-1.213.514 0 .932.17 1.369.417l-.723 1.384c-.303-.209-.512-.398-.912-.398-1.67 0-1.747 2.142-1.747 3.297v4.455h-1.52v-8.909h1.52v.967z"/>
        </g>
        <path fill="#FEFEFE" d="M66.356 69.472h-1.52v-7.506h-.93v-1.403h.93V57.36h1.52v3.203h1.596v1.403h-1.596z"/>
        <path fill="#148CCC" d="M22.81 23.59l-.052-.21s-.03.044-.077.12l.129.09M22.28 24.19c-1.13 2.047-3.745 7.683-1.974 13.391 1.587 5.12 5.293 8.42 7.275 9.883L22.279 24.19M50.605 23.59l.052-.21.076.12-.128.09M51.136 24.19c1.13 2.047 3.743 7.683 1.973 13.391-1.587 5.12-5.294 8.42-7.275 9.883l5.302-23.274"/>
        <path fill="#1EBBEE" d="M27.476 7.32a8.87 8.87 0 0 1 .44-.01c4.936 0 8.94 3.983 8.958 8.904h.002c.019-4.92 4.022-8.905 8.958-8.905.24 0 .476.012.712.031a29.756 29.756 0 0 0-.923-.72l.075-.006-.553-4.629s-1.758 1.91-2.69 2.931a15.16 15.16 0 0 0-5.428-1c-1.707 0-3.668.234-5.57.95a1717.38 1717.38 0 0 0-2.62-2.855l-.554 4.63h.004c-.226.18-.45.364-.668.566l-.143.113M45.833 25.188a8.933 8.933 0 0 1-6.225-2.515l-.03.083-2.687 3.43-2.525-3.592-.051-.09a8.94 8.94 0 0 1-6.4 2.684 8.936 8.936 0 0 1-5.917-2.23l6.526 28.647h16.477L51.175 24.5c.184-.475.343-.962.478-1.458a8.93 8.93 0 0 1-5.82 2.146"/>
        <path fill="#FEFEFE" d="M26.91 53.884c0 .572-.55 1.038-1.23 1.038-.678 0-1.227-.466-1.227-1.038v-2.642c0-.573.55-1.038 1.228-1.038.68 0 1.23.465 1.23 1.038v2.642zM29.463 53.884c0 .572-.55 1.038-1.228 1.038-.68 0-1.23-.466-1.23-1.038v-2.642c0-.573.55-1.038 1.23-1.038.678 0 1.228.465 1.228 1.038v2.642zM32.016 53.884c0 .572-.55 1.038-1.23 1.038-.678 0-1.228-.466-1.228-1.038v-2.642c0-.573.55-1.038 1.229-1.038.68 0 1.23.465 1.23 1.038v2.642zM43.922 53.884c0 .572-.55 1.038-1.23 1.038-.678 0-1.229-.466-1.229-1.038v-2.642c0-.573.551-1.038 1.23-1.038.678 0 1.229.465 1.229 1.038v2.642zM46.475 53.884c0 .572-.55 1.038-1.23 1.038-.678 0-1.229-.466-1.229-1.038v-2.642c0-.573.55-1.038 1.23-1.038.678 0 1.229.465 1.229 1.038v2.642zM49.028 53.884c0 .572-.55 1.038-1.23 1.038-.678 0-1.229-.466-1.229-1.038v-2.642c0-.573.551-1.038 1.229-1.038.68 0 1.23.465 1.23 1.038v2.642z"/>
        <g transform="translate(17.84 .366)">
            <mask id="b" fill="#fff">
                <use xlink:href="#a"/>
            </mask>
            <path fill="#020203" d="M34.238 23.187a9.577 9.577 0 0 0 3.384-7.304c0-4.294-2.838-7.936-6.74-9.163v-.002a9.554 9.554 0 0 0-1.718-.37l-.449-3.827-.004-.028c-.015-.093-.028-.195-.043-.3-.098-.726-.221-1.63-.974-1.856-.706-.211-1.343.386-1.804.914l-2.145 2.29-.014.018a15.847 15.847 0 0 0-4.543-.663c-1.358 0-2.997.144-4.679.622l-2.08-2.225C11.951.75 11.314.153 10.61.363c-.753.226-.876 1.13-.974 1.857-.015.105-.029.207-.044.3l-.447 3.8-.029.005c-.078.008-.155.018-.232.028-.085.01-.169.02-.252.033-.069.01-.136.022-.204.034-.09.016-.181.031-.27.05l-.074.013.002.003c-4.357.917-7.638 4.78-7.638 9.397 0 2.787 1.197 5.3 3.104 7.057l.178.78C2.492 26.013.033 31.627 1.827 37.412c1.6 5.161 5.223 8.503 7.318 10.08L9.6 49.49c-.18.083-.344.19-.482.321a1.85 1.85 0 0 0-1.276-.494c-.967 0-1.753.7-1.753 1.56v2.641c0 .861.786 1.561 1.753 1.561.503 0 .957-.19 1.276-.494.32.303.773.494 1.277.494.503 0 .957-.19 1.276-.494.32.303.773.494 1.277.494.966 0 1.753-.7 1.753-1.56v-1.611H23.1v1.61c0 .861.787 1.561 1.753 1.561.504 0 .957-.19 1.277-.494.32.303.773.494 1.276.494.504 0 .957-.19 1.277-.494.32.303.773.494 1.276.494.967 0 1.753-.7 1.753-1.56v-2.642c0-.86-.786-1.56-1.753-1.56-.503 0-.956.19-1.276.494a1.765 1.765 0 0 0-.444-.304l.004.002.494-2.172c2.12-1.636 5.564-4.925 7.113-9.923 1.74-5.607-.517-11.052-1.784-13.47l.172-.756zm-25.69 30.33c0 .28-.324.516-.706.516-.382 0-.705-.236-.705-.516v-2.64c0-.28.323-.516.705-.516.382 0 .705.236.705.515v2.641zm20.706-2.64c0-.28.323-.516.705-.516.382 0 .705.236.705.515v2.641c0 .28-.323.516-.705.516-.382 0-.705-.236-.705-.516v-2.64zm7.03-34.994c0 4.56-3.718 8.27-8.29 8.27-4.57 0-8.29-3.71-8.29-8.27a8.267 8.267 0 0 1 3.641-6.844l.178-.116c.033-.021.066-.043.1-.063a8.732 8.732 0 0 1 .481-.278c.053-.029.108-.056.161-.083a8.877 8.877 0 0 1 .785-.347l.146-.055a7.621 7.621 0 0 1 .678-.21c.042-.012.085-.022.128-.033a7.923 7.923 0 0 1 .366-.081c.12-.025.24-.047.362-.066.008-.001.015-.001.021-.003.117-.017.236-.032.355-.045l.11-.01a10.006 10.006 0 0 1 .778-.038 7.964 7.964 0 0 1 .759.036l.125.012a6.723 6.723 0 0 1 .52.074l.138.024a6.85 6.85 0 0 1 .273.056c.176.04.35.084.522.135 3.436 1.01 5.953 4.184 5.953 7.935zm-15.38 6.488l-1.823 2.327-1.759-2.5a9.627 9.627 0 0 0 1.714-2.803 9.626 9.626 0 0 0 1.867 2.976zM10.63 4.884l.095-.817.085-.737.002.003.05-.43.008-.009.02-.18c.017-.1.031-.207.046-.318.023-.171.06-.44.107-.638.096.08.23.21.41.414l2.668 2.849c1.8-.633 3.607-.814 5.066-.814 1.692 0 3.353.292 4.92.855l.978-1.034 1.778-1.899c.172-.195.302-.32.396-.398.046.198.083.468.106.639.015.11.03.218.046.317l.064.549.045.303.32 2.74a9.563 9.563 0 0 0-4.042.96l-.063.032c-.164.082-.327.166-.486.256l-.014.008c-.15.086-.296.176-.44.27-.03.018-.06.037-.089.057l-.043.026.002.002a9.671 9.671 0 0 0-3.63 4.48 9.664 9.664 0 0 0-4.08-4.759l.002-.006a9.562 9.562 0 0 0-4.485-1.32l.16-1.399-.002-.002zM1.787 15.883c0-4.04 2.918-7.41 6.761-8.128a8.35 8.35 0 0 1 .364-.06c.007 0 .014-.002.02-.003.118-.017.237-.03.355-.043l.114-.008c.09-.008.18-.015.272-.02a8.184 8.184 0 0 1 .786 0l.102.006c.1.005.2.013.299.022l.088.008c.121.013.241.028.36.046l.106.018c.085.013.17.029.255.045.045.01.09.018.136.027a8.367 8.367 0 0 1 .836.226 8.376 8.376 0 0 1 .823.318 6.61 6.61 0 0 1 .304.143l.013.006c.252.127.498.266.736.417 2.312 1.47 3.85 4.048 3.85 6.98 0 4.56-3.72 8.27-8.29 8.27-4.571 0-8.29-3.71-8.29-8.27zm1.319 21.135c-1.332-4.293-.034-8.603 1.103-11.197l4.447 19.524c-1.925-1.72-4.366-4.507-5.55-8.327zm7.994 16.5c0 .279-.323.515-.705.515-.382 0-.706-.236-.706-.516v-2.64c0-.28.324-.516.706-.516.382 0 .705.236.705.515v2.641zm2.553 0c0 .279-.323.515-.705.515-.382 0-.706-.236-.706-.516v-2.64c0-.28.324-.516.706-.516.382 0 .705.236.705.515v2.641zm11.906 0c0 .279-.323.515-.706.515-.382 0-.705-.236-.705-.516v-2.64c0-.28.323-.516.705-.516.383 0 .706.236.706.515v2.641zm2.553 0c0 .279-.324.515-.706.515-.382 0-.705-.236-.705-.516v-2.64c0-.28.323-.516.705-.516.382 0 .706.236.706.515v2.641zm-1.214-4.134h.001c-.297.08-.561.228-.77.426a1.852 1.852 0 0 0-1.276-.494c-.85 0-1.56.54-1.719 1.255h-8.467l.003.02c-.15-.725-.865-1.275-1.722-1.275-.504 0-.956.19-1.277.494a1.804 1.804 0 0 0-.72-.412L5.205 24.164a9.583 9.583 0 0 0 4.872 1.326 9.593 9.593 0 0 0 6.286-2.338l2.66 3.79 2.857-3.648a9.586 9.586 0 0 0 6.115 2.196c1.67 0 3.243-.428 4.615-1.178l-5.71 25.072zm7.674-12.366c-1.142 3.68-3.448 6.4-5.336 8.13l4.343-19.07c1.107 2.616 2.28 6.786.993 10.94z" mask="url(#b)"/>
        </g>
        <path fill="#020203" d="M27.916 17.687a1.44 1.44 0 1 0 0-2.877 1.439 1.439 0 0 0 0 2.877M33.174 29.582c-1.82.49-2.586-.817-2.67-.97a.668.668 0 1 0-1.188.616c.362.698 1.412 1.799 3.087 1.799.346 0 .72-.047 1.119-.155a.668.668 0 1 0-.348-1.29M45.833 14.81a1.44 1.44 0 0 0 0 2.877 1.44 1.44 0 0 0 1.443-1.438 1.44 1.44 0 0 0-1.443-1.439"/>
        <path fill="#FEFEFE" d="M12.777 84.633v1.67H6.965v-1.319l2.793-2.607c.598-.553.683-.893.683-1.202 0-.48-.32-.767-.96-.767-.543 0-1.034.246-1.333.724l-1.567-.873c.565-.936 1.62-1.553 3.092-1.553 1.717 0 2.9.883 2.9 2.267 0 .723-.201 1.383-1.268 2.362l-1.408 1.298h2.88zM13.385 82.58c0-2.458 1.387-3.874 3.295-3.874 1.899 0 3.286 1.416 3.286 3.873 0 2.458-1.387 3.873-3.286 3.873-1.908 0-3.295-1.415-3.295-3.873m4.458 0c0-1.564-.49-2.149-1.163-2.149-.682 0-1.172.585-1.172 2.15 0 1.564.49 2.148 1.172 2.148.672 0 1.163-.584 1.163-2.149M27.178 84.207h-4.33l-.949 2.096h-.586l3.433-7.448h.544l3.434 7.448h-.586l-.96-2.096zm-.203-.457l-1.962-4.3-1.951 4.3h3.913z"/>
        <path fill="#FEFEFE" d="M28.906 86.42h-.843l-.96-2.097h-4.18l-.949 2.097h-.843l3.541-7.682h.693l3.541 7.682zm-.694-.232h.33l-3.326-7.217h-.395l-3.327 7.217h.33l.95-2.097h4.478l.96 2.097zm-1.056-2.322h-4.275l2.132-4.695 2.143 4.695zm-3.914-.232h3.552l-1.78-3.903-1.772 3.903z"/>
        <path fill="#FEFEFE" d="M28.877 86.401h-.803l-.959-2.096h-4.203l-.95 2.096h-.802l3.524-7.644h.669l3.524 7.644zm-.676-.196h.37l-3.344-7.252h-.418l-3.343 7.252h.37l.949-2.095h4.456l.96 2.095zm-1.073-2.358H22.91l2.103-4.632 2.115 4.632zm-3.914-.196h3.609l-1.81-3.964-1.8 3.964z"/>
        <path fill="#FEFEFE" d="M29.06 86.517H28l-.96-2.095h-4.053l-.95 2.095h-1.06l3.632-7.876h.819l.03.068 3.601 7.808zm-.784-.427h.113l-3.236-7.021h-.079l2.234 4.895H22.73l2.222-4.895h-.068l-3.236 7.02h.114l.95-2.095h4.605l.96 2.096zm-4.882-2.554h3.248l-1.628-3.568-1.62 3.568zM36.158 78.855v7.448h-.448l-5.087-6.469v6.47h-.544v-7.449h.459l5.076 6.47v-6.47z"/>
        <path fill="#FEFEFE" d="M36.274 86.42h-.62l-.035-.044-4.88-6.206v6.25h-.776v-7.682h.632l.035.045 4.867 6.205v-6.25h.777v7.682zm-.507-.232h.275V78.97h-.312v6.69l-5.249-6.69h-.285v7.217h.311v-6.69l5.26 6.69z"/>
        <path fill="#FEFEFE" d="M36.256 86.401h-.593l-4.942-6.284v6.284h-.74v-7.644h.605l4.93 6.284v-6.284h.74v7.644zm-.498-.196h.302v-7.252h-.348v6.655l-5.222-6.655h-.313v7.252h.348v-6.654l5.233 6.654z"/>
        <path fill="#FEFEFE" d="M36.372 86.517h-.766l-.035-.044-4.733-6.02v6.064h-.973V78.64h.777l4.758 6.064V78.64h.972v7.876zm-.558-.427h.13v-7.021h-.116v6.876l-5.394-6.876h-.14v7.02h.115v-6.875l5.405 6.876z"/>
        <g fill="#FEFEFE">
            <path d="M38.047 82.58c0-2.16 1.653-3.778 3.881-3.778 2.218 0 3.882 1.606 3.882 3.777 0 2.171-1.664 3.778-3.882 3.778-2.228 0-3.881-1.618-3.881-3.778m7.209 0c0-1.883-1.43-3.277-3.328-3.277-1.909 0-3.338 1.394-3.338 3.277 0 1.884 1.43 3.277 3.338 3.277 1.898 0 3.328-1.393 3.328-3.277"/>
            <path d="M41.928 86.473c-2.279 0-3.998-1.674-3.998-3.894s1.72-3.893 3.998-3.893c2.28 0 3.998 1.674 3.998 3.893 0 2.22-1.718 3.894-3.998 3.894m0-7.555c-2.146 0-3.765 1.574-3.765 3.66 0 2.088 1.619 3.662 3.765 3.662 2.147 0 3.766-1.574 3.766-3.661 0-2.087-1.62-3.66-3.766-3.66m0 7.054c-1.969 0-3.454-1.46-3.454-3.394 0-1.934 1.485-3.393 3.454-3.393 1.963 0 3.444 1.459 3.444 3.393 0 1.935-1.48 3.394-3.444 3.394m0-6.555c-1.836 0-3.22 1.359-3.22 3.16 0 1.804 1.384 3.163 3.22 3.163 1.83 0 3.211-1.359 3.211-3.162 0-1.802-1.38-3.161-3.21-3.161"/>
            <path d="M41.928 86.454c-2.269 0-3.98-1.666-3.98-3.875s1.711-3.875 3.98-3.875c2.27 0 3.98 1.666 3.98 3.875 0 2.21-1.71 3.875-3.98 3.875m0-7.554c-2.157 0-3.784 1.582-3.784 3.68 0 2.097 1.627 3.679 3.784 3.679 2.158 0 3.784-1.582 3.784-3.68 0-2.097-1.626-3.68-3.784-3.68m0 7.055c-1.959 0-3.435-1.45-3.435-3.375 0-1.924 1.476-3.375 3.435-3.375 1.953 0 3.425 1.45 3.425 3.375s-1.472 3.375-3.425 3.375m0-6.554c-1.847 0-3.24 1.366-3.24 3.18 0 1.812 1.393 3.179 3.24 3.179 1.841 0 3.23-1.367 3.23-3.18 0-1.813-1.389-3.18-3.23-3.18"/>
            <path d="M41.928 86.57c-2.335 0-4.096-1.715-4.096-3.99 0-2.276 1.761-3.992 4.096-3.992s4.097 1.716 4.097 3.991c0 2.276-1.762 3.991-4.097 3.991m0-7.554c-2.091 0-3.667 1.532-3.667 3.563s1.576 3.564 3.667 3.564c2.091 0 3.668-1.533 3.668-3.564 0-2.03-1.577-3.563-3.668-3.563m0 7.054c-2.025 0-3.552-1.5-3.552-3.49 0-1.991 1.527-3.492 3.552-3.492 2.02 0 3.542 1.501 3.542 3.491 0 1.99-1.523 3.491-3.542 3.491m0-6.554c-1.78 0-3.124 1.317-3.124 3.063 0 1.747 1.344 3.064 3.124 3.064 1.775 0 3.113-1.317 3.113-3.064 0-1.746-1.338-3.063-3.113-3.063M46.942 85.346l.245-.404c.512.532 1.461.936 2.463.936 1.493 0 2.154-.65 2.154-1.458 0-2.235-4.66-.894-4.66-3.639 0-1.053.81-1.979 2.645-1.979.82 0 1.674.255 2.25.67l-.203.436a3.698 3.698 0 0 0-2.047-.627c-1.45 0-2.1.67-2.1 1.49 0 2.234 4.66.915 4.66 3.617 0 1.053-.843 1.968-2.688 1.968-1.11 0-2.176-.414-2.72-1.01"/>
            <path d="M49.661 86.473c-1.124 0-2.225-.412-2.805-1.05l-.06-.064.37-.607.105.109c.526.547 1.46.9 2.379.9 1.276 0 2.038-.5 2.038-1.341 0-.969-.955-1.202-2.062-1.47-1.218-.299-2.599-.635-2.599-2.169 0-1.012.726-2.095 2.762-2.095.838 0 1.727.265 2.318.692l.078.056-.3.648-.114-.079a3.584 3.584 0 0 0-1.982-.606c-1.243 0-1.985.513-1.985 1.374 0 .973.962 1.208 2.076 1.479 1.211.297 2.585.63 2.585 2.138 0 .962-.735 2.085-2.804 2.085zm-2.574-1.143c.547.547 1.567.91 2.574.91 1.896 0 2.57-.956 2.57-1.852 0-1.324-1.169-1.61-2.406-1.912-1.108-.27-2.254-.55-2.254-1.705 0-.777.583-1.606 2.218-1.606.698 0 1.418.207 1.999.572l.104-.225c-.552-.368-1.348-.594-2.103-.594-1.864 0-2.528.963-2.528 1.863 0 1.352 1.23 1.652 2.42 1.942 1.101.269 2.24.546 2.24 1.697 0 .985-.85 1.574-2.271 1.574-.92 0-1.858-.338-2.44-.868l-.123.204z"/>
            <path d="M49.66 86.454c-1.117 0-2.213-.409-2.79-1.043l-.05-.054.35-.575.088.091c.53.551 1.469.907 2.392.907 1.287 0 2.056-.508 2.056-1.36 0-.983-.962-1.217-2.076-1.489-1.21-.295-2.584-.63-2.584-2.15 0-1.004.72-2.077 2.743-2.077.834 0 1.718.264 2.307.69l.066.046-.286.615-.096-.066a3.59 3.59 0 0 0-1.991-.61c-1.254 0-2.003.52-2.003 1.391 0 .988 1.015 1.236 2.09 1.498 1.205.294 2.57.628 2.57 2.12 0 1.525-1.5 2.066-2.785 2.066zm-2.596-1.122c.549.557 1.58.927 2.597.927 1.909 0 2.59-.967 2.59-1.87 0-1.34-1.232-1.64-2.422-1.931-1.101-.268-2.239-.547-2.239-1.688 0-.767.578-1.587 2.199-1.587.701 0 1.426.21 2.006.581l.12-.259c-.556-.374-1.362-.605-2.126-.605-1.878 0-2.547.972-2.547 1.88 0 1.367 1.238 1.67 2.435 1.96 1.094.268 2.226.543 2.226 1.68 0 .974-.843 1.556-2.253 1.556-.924 0-1.867-.342-2.444-.878l-.142.234z"/>
            <path d="M49.661 86.57c-1.15 0-2.28-.424-2.877-1.08l-.109-.12.473-.778.193.2c.509.53 1.415.872 2.31.872 1.214 0 1.94-.465 1.94-1.244 0-.89-.876-1.104-1.984-1.376-1.196-.29-2.677-.653-2.677-2.263 0-1.06.75-2.193 2.859-2.193.858 0 1.768.273 2.375.71l.144.104-.384.827-.21-.145a3.475 3.475 0 0 0-1.925-.59c-1.182 0-1.887.478-1.887 1.276 0 .896.927 1.123 1.998 1.385 1.188.29 2.663.65 2.663 2.233C52.563 86 51 86.57 49.66 86.57zm-2.45-1.256c.542.498 1.511.829 2.45.829 1.824 0 2.473-.907 2.473-1.755 0-1.248-1.133-1.524-2.333-1.818-1.09-.266-2.327-.568-2.327-1.8 0-.823.608-1.703 2.315-1.703a3.96 3.96 0 0 1 1.956.53l.022-.049c-.532-.33-1.28-.532-1.978-.532-1.792 0-2.43.912-2.43 1.765 0 1.276 1.14 1.554 2.346 1.847 1.086.266 2.313.566 2.313 1.792 0 1.047-.884 1.672-2.368 1.672-.898 0-1.81-.31-2.416-.816l-.022.038z"/>
        </g>
    </g>
</svg>
