<svg xmlns="http://www.w3.org/2000/svg" width="81" height="81" viewBox="0 0 81 81">
    <g fill="none" fill-rule="evenodd">
        <path stroke="#1F2C5E" stroke-linecap="round" stroke-linejoin="round" stroke-width=".588" d="M41.401 45.382c-5.546 0-10.046-4.502-10.046-10.046 0-5.553 4.5-10.046 10.046-10.046 5.553 0 10.052 4.493 10.052 10.046 0 5.544-4.5 10.046-10.052 10.046zm0-22.27c-6.737 0-12.219 5.48-12.219 12.224 0 6.735 5.482 12.215 12.22 12.215 6.742 0 12.224-5.48 12.224-12.215 0-6.743-5.482-12.223-12.225-12.223zm9.655 27.53l3.259 5.944-4.921-.283-1.551-2.698a.47.47 0 0 0-.644-.172.47.47 0 0 0-.174.644l1.53 2.657-1.98 4.398-4.621-7.81 9.102-2.68zm-19.302 0l-3.266 5.944 4.975-.283 1.547-2.698a.475.475 0 0 1 .648-.172.47.47 0 0 1 .172.644l-1.553 2.708 1.958 4.347 4.613-7.81-9.094-2.68z"/>
        <path fill="#F2665D" d="M41.401 47.553c-6.737 0-12.219-5.48-12.219-12.217 0-6.743 5.482-12.225 12.22-12.225 6.742 0 12.224 5.482 12.224 12.225 0 6.737-5.482 12.217-12.225 12.217m14.831-8.106l1.946-.78-1.5-1.464a.464.464 0 0 1-.14-.38.478.478 0 0 1 .213-.35l1.753-1.143-1.753-1.138a.478.478 0 0 1-.213-.35.464.464 0 0 1 .14-.38l1.5-1.465-1.946-.774a.484.484 0 0 1-.28-.303.487.487 0 0 1 .066-.405l1.192-1.728-2.067-.378a.468.468 0 0 1-.326-.245.466.466 0 0 1-.018-.411l.826-1.924-2.094.026a.47.47 0 0 1-.472-.565l.444-2.053-2.056.44a.462.462 0 0 1-.397-.102.453.453 0 0 1-.166-.369l.02-2.097-1.921.83a.466.466 0 0 1-.411-.018.5.5 0 0 1-.243-.326l-.381-2.066-1.725 1.189a.484.484 0 0 1-.403.06.493.493 0 0 1-.306-.273l-.774-1.952-1.466 1.505a.464.464 0 0 1-.378.143.501.501 0 0 1-.353-.214l-1.142-1.762-1.136 1.762a.514.514 0 0 1-.35.214.496.496 0 0 1-.389-.143l-1.458-1.505-.78 1.952a.46.46 0 0 1-.297.274.458.458 0 0 1-.403-.061l-1.726-1.189-.388 2.066a.467.467 0 0 1-.648.344l-1.928-.83.03 2.097a.455.455 0 0 1-.174.369.455.455 0 0 1-.399.101l-2.047-.44.435 2.054a.48.48 0 0 1-.095.4.476.476 0 0 1-.369.165l-2.095-.026.826 1.924a.494.494 0 0 1-.016.41.51.51 0 0 1-.335.246l-2.059.378 1.19 1.728a.485.485 0 0 1-.212.708l-1.948.774 1.5 1.464a.48.48 0 0 1 .144.38.49.49 0 0 1-.216.351L24.3 35.33l1.758 1.142a.49.49 0 0 1 .216.35.48.48 0 0 1-.143.381l-1.5 1.464 1.947.78a.472.472 0 0 1 .213.703l-1.19 1.727 2.058.385a.477.477 0 0 1 .335.239c.064.123.07.28.016.41l-.826 1.922 2.095-.024a.47.47 0 0 1 .464.567l-.435 2.052 2.047-.434a.471.471 0 0 1 .399.095.452.452 0 0 1 .174.369l-.03 2.094 1.928-.826a.502.502 0 0 1 .41.018c.124.065.213.19.238.334l.388 2.06 1.726-1.191a.486.486 0 0 1 .403-.061c.14.042.245.144.297.275l.78 1.95 1.458-1.504a.494.494 0 0 1 .34-.144h.049a.5.5 0 0 1 .35.215l1.136 1.761 1.142-1.761a.488.488 0 0 1 .353-.215.47.47 0 0 1 .378.144l1.466 1.504.774-1.95a.496.496 0 0 1 .306-.275.491.491 0 0 1 .403.06l1.725 1.191.38-2.06a.496.496 0 0 1 .244-.333.502.502 0 0 1 .41-.018l1.922.826-.02-2.094a.45.45 0 0 1 .166-.369c.112-.095.255-.125.397-.095l2.056.434-.444-2.052a.453.453 0 0 1 .103-.395.462.462 0 0 1 .369-.172l2.094.024-.826-1.921a.466.466 0 0 1 .018-.411.44.44 0 0 1 .326-.24l2.067-.384-1.192-1.727a.487.487 0 0 1-.065-.405.474.474 0 0 1 .28-.298"/>
        <path stroke="#1F2C5E" stroke-linecap="round" stroke-linejoin="round" stroke-width=".588" d="M41.401 47.553c-6.737 0-12.219-5.48-12.219-12.217 0-6.743 5.482-12.225 12.22-12.225 6.742 0 12.224 5.482 12.224 12.225 0 6.737-5.482 12.217-12.225 12.217zm14.831-8.106l1.946-.78-1.5-1.464a.464.464 0 0 1-.14-.38.478.478 0 0 1 .213-.35l1.753-1.143-1.753-1.138a.478.478 0 0 1-.213-.35.464.464 0 0 1 .14-.38l1.5-1.465-1.946-.774a.484.484 0 0 1-.28-.303.487.487 0 0 1 .066-.405l1.192-1.728-2.067-.378a.468.468 0 0 1-.326-.245.466.466 0 0 1-.018-.411l.826-1.924-2.094.026a.47.47 0 0 1-.472-.565l.444-2.053-2.056.44a.462.462 0 0 1-.397-.102.453.453 0 0 1-.166-.369l.02-2.097-1.921.83a.466.466 0 0 1-.411-.018.5.5 0 0 1-.243-.326l-.381-2.066-1.725 1.189a.484.484 0 0 1-.403.06.493.493 0 0 1-.306-.273l-.774-1.952-1.466 1.505a.464.464 0 0 1-.378.143.501.501 0 0 1-.353-.214l-1.142-1.762-1.136 1.762a.514.514 0 0 1-.35.214.496.496 0 0 1-.389-.143l-1.458-1.505-.78 1.952a.46.46 0 0 1-.297.274.458.458 0 0 1-.403-.061l-1.726-1.189-.388 2.066a.467.467 0 0 1-.648.344l-1.928-.83.03 2.097a.455.455 0 0 1-.174.369.455.455 0 0 1-.399.101l-2.047-.44.435 2.054a.48.48 0 0 1-.095.4.476.476 0 0 1-.369.165l-2.095-.026.826 1.924a.494.494 0 0 1-.016.41.51.51 0 0 1-.335.246l-2.059.378 1.19 1.728a.485.485 0 0 1-.212.708l-1.948.774 1.5 1.464a.48.48 0 0 1 .144.38.49.49 0 0 1-.216.351L24.3 35.33l1.758 1.142a.49.49 0 0 1 .216.35.48.48 0 0 1-.143.381l-1.5 1.464 1.947.78a.472.472 0 0 1 .213.703l-1.19 1.727 2.058.385a.477.477 0 0 1 .335.239c.064.123.07.28.016.41l-.826 1.922 2.095-.024a.47.47 0 0 1 .464.567l-.435 2.052 2.047-.434a.471.471 0 0 1 .399.095.452.452 0 0 1 .174.369l-.03 2.094 1.928-.826a.502.502 0 0 1 .41.018c.124.065.213.19.238.334l.388 2.06 1.726-1.191a.486.486 0 0 1 .403-.061c.14.042.245.144.297.275l.78 1.95 1.458-1.504a.494.494 0 0 1 .34-.144h.049a.5.5 0 0 1 .35.215l1.136 1.761 1.142-1.761a.488.488 0 0 1 .353-.215.47.47 0 0 1 .378.144l1.466 1.504.774-1.95a.496.496 0 0 1 .306-.275.491.491 0 0 1 .403.06l1.725 1.191.38-2.06a.496.496 0 0 1 .244-.333.502.502 0 0 1 .41-.018l1.922.826-.02-2.094a.45.45 0 0 1 .166-.369c.112-.095.255-.125.397-.095l2.056.434-.444-2.052a.453.453 0 0 1 .103-.395.462.462 0 0 1 .369-.172l2.094.024-.826-1.921a.466.466 0 0 1 .018-.411.44.44 0 0 1 .326-.24l2.067-.384-1.192-1.727a.487.487 0 0 1-.065-.405.474.474 0 0 1 .28-.298z"/>
        <path stroke="#1F2C5E" stroke-linecap="round" stroke-linejoin="round" stroke-width=".588" d="M41.401 45.382c-5.546 0-10.046-4.502-10.046-10.046 0-5.553 4.5-10.046 10.046-10.046 5.553 0 10.052 4.493 10.052 10.046 0 5.544-4.5 10.046-10.052 10.046zm0-22.27c-6.737 0-12.219 5.48-12.219 12.224 0 6.735 5.482 12.215 12.22 12.215 6.742 0 12.224-5.48 12.224-12.215 0-6.743-5.482-12.223-12.225-12.223z"/>
        <path fill="#EAEA72" d="M41.401 25.29c-5.546 0-10.046 4.493-10.046 10.046 0 5.547 4.5 10.046 10.046 10.046 5.553 0 10.052-4.5 10.052-10.046 0-5.553-4.5-10.046-10.052-10.046"/>
        <path stroke="#1F2C5E" stroke-linecap="round" stroke-linejoin="round" stroke-width=".588" d="M41.401 25.29c-5.546 0-10.046 4.493-10.046 10.046 0 5.547 4.5 10.046 10.046 10.046 5.553 0 10.052-4.5 10.052-10.046 0-5.553-4.5-10.046-10.052-10.046z"/>
        <path fill="#1F2C5E" d="M42.855 31.021v9.021H40.92v-7.308h-1.723v-1.713z"/>
    </g>
</svg>
