<svg xmlns="http://www.w3.org/2000/svg" width="40" height="40" viewBox="0 0 40 40">
    <g fill="none" fill-rule="evenodd">
        <path fill="#F2665D" d="M23.591 20.969a3.018 3.018 0 1 1-6.036 0 3.018 3.018 0 0 1 6.037 0"/>
        <path stroke="#1F2C5E" stroke-linecap="round" stroke-linejoin="round" stroke-width=".588" d="M23.591 20.969a3.018 3.018 0 1 1-6.036 0 3.018 3.018 0 0 1 6.037 0z"/>
        <path fill="#1DBCEE" d="M20.573 17.95V8.544"/>
        <path stroke="#1F2C5E" stroke-linecap="round" stroke-linejoin="round" stroke-width=".588" d="M20.573 17.95V8.544"/>
        <path fill="#1DBCEE" d="M23.096 19.314l3.175-3.176"/>
        <path stroke="#1F2C5E" stroke-linecap="round" stroke-linejoin="round" stroke-width=".588" d="M23.096 19.314l3.175-3.176"/>
        <path fill="#1DBCEE" d="M23.591 20.969h7.721"/>
        <path stroke="#1F2C5E" stroke-linecap="round" stroke-linejoin="round" stroke-width=".588" d="M23.591 20.969h7.721"/>
        <path fill="#1DBCEE" d="M18.05 19.314l-8.932-8.931"/>
        <path stroke="#1F2C5E" stroke-linecap="round" stroke-linejoin="round" stroke-width=".588" d="M18.05 19.314l-8.932-8.931"/>
        <path fill="#1DBCEE" d="M18.05 22.623l-4.459 4.46"/>
        <path stroke="#1F2C5E" stroke-linecap="round" stroke-linejoin="round" stroke-width=".588" d="M18.05 22.623l-4.459 4.46"/>
        <path fill="#1DBCEE" d="M17.555 20.969H9.833"/>
        <path stroke="#1F2C5E" stroke-linecap="round" stroke-linejoin="round" stroke-width=".588" d="M17.555 20.969H9.833"/>
        <path fill="#1DBCEE" d="M20.573 23.986v6.598"/>
        <path stroke="#1F2C5E" stroke-linecap="round" stroke-linejoin="round" stroke-width=".588" d="M20.573 23.986v6.598"/>
        <path fill="#1DBCEE" d="M19.084 23.82l-4.056 7.747"/>
        <path stroke="#1F2C5E" stroke-linecap="round" stroke-linejoin="round" stroke-width=".588" d="M19.084 23.82l-4.056 7.747"/>
        <path fill="#1DBCEE" d="M23.096 23.045l2.678 2.677"/>
        <path stroke="#1F2C5E" stroke-linecap="round" stroke-linejoin="round" stroke-width=".588" d="M23.096 23.045l2.678 2.677"/>
        <path fill="#1DBCEE" d="M22.118 8.544a1.544 1.544 0 1 0-3.087 0 1.544 1.544 0 0 0 3.087 0"/>
        <path stroke="#1F2C5E" stroke-linecap="round" stroke-linejoin="round" stroke-width=".588" d="M22.118 8.544a1.544 1.544 0 1 0-3.087 0 1.544 1.544 0 0 0 3.087 0z"/>
        <path fill="#1DBCEE" d="M11.238 10.383a2.12 2.12 0 1 0-4.239 0 2.12 2.12 0 0 0 4.239 0"/>
        <path stroke="#1F2C5E" stroke-linecap="round" stroke-linejoin="round" stroke-width=".588" d="M11.238 10.383a2.12 2.12 0 1 0-4.239 0 2.12 2.12 0 0 0 4.239 0z"/>
        <path fill="#1DBCEE" d="M10.886 20.969a1.053 1.053 0 1 0-2.106 0 1.053 1.053 0 0 0 2.106 0"/>
        <path stroke="#1F2C5E" stroke-linecap="round" stroke-linejoin="round" stroke-width=".588" d="M10.886 20.969a1.053 1.053 0 1 0-2.106 0 1.053 1.053 0 0 0 2.106 0z"/>
        <path fill="#1DBCEE" d="M15.493 27.081a1.9 1.9 0 0 0-1.902-1.9 1.9 1.9 0 1 0 0 3.802 1.9 1.9 0 0 0 1.902-1.902"/>
        <path stroke="#1F2C5E" stroke-linecap="round" stroke-linejoin="round" stroke-width=".588" d="M15.493 27.081a1.9 1.9 0 0 0-1.902-1.9 1.9 1.9 0 1 0 0 3.802 1.9 1.9 0 0 0 1.902-1.902z"/>
        <path fill="#1DBCEE" d="M15.942 31.567a.914.914 0 1 0-1.829.001.914.914 0 0 0 1.83 0"/>
        <path stroke="#1F2C5E" stroke-linecap="round" stroke-linejoin="round" stroke-width=".588" d="M15.942 31.567a.914.914 0 1 0-1.829.001.914.914 0 0 0 1.83 0z"/>
        <path fill="#1DBCEE" d="M22.175 30.584a1.6 1.6 0 1 0-3.202 0 1.6 1.6 0 0 0 3.202 0"/>
        <path stroke="#1F2C5E" stroke-linecap="round" stroke-linejoin="round" stroke-width=".588" d="M22.175 30.584a1.6 1.6 0 1 0-3.202 0 1.6 1.6 0 0 0 3.202 0z"/>
        <path fill="#1DBCEE" d="M27.452 25.722a1.679 1.679 0 1 1-3.358 0 1.679 1.679 0 0 1 3.358 0"/>
        <path stroke="#1F2C5E" stroke-linecap="round" stroke-linejoin="round" stroke-width=".588" d="M27.452 25.722a1.679 1.679 0 1 1-3.358 0 1.679 1.679 0 0 1 3.358 0z"/>
        <path fill="#1DBCEE" d="M33.84 20.969a2.527 2.527 0 1 0-5.055 0 2.527 2.527 0 0 0 5.055 0"/>
        <path stroke="#1F2C5E" stroke-linecap="round" stroke-linejoin="round" stroke-width=".588" d="M33.84 20.969a2.527 2.527 0 1 0-5.055 0 2.527 2.527 0 0 0 5.055 0z"/>
        <path fill="#1DBCEE" d="M27.562 16.138a1.29 1.29 0 1 0-2.58 0 1.29 1.29 0 0 0 2.58 0"/>
        <path stroke="#1F2C5E" stroke-linecap="round" stroke-linejoin="round" stroke-width=".588" d="M27.562 16.138a1.29 1.29 0 1 0-2.58 0 1.29 1.29 0 0 0 2.58 0z"/>
    </g>
</svg>
