<svg xmlns="http://www.w3.org/2000/svg" width="40" height="40" viewBox="0 0 40 40">
    <g fill="none" fill-rule="evenodd">
        <path fill="#EE2F68" d="M14.796 27.94a2.226 2.226 0 0 1-1.573.655 2.222 2.222 0 0 1-1.569-.652 2.224 2.224 0 0 1-.654-1.57 2.229 2.229 0 0 1 .654-1.575l1.964-1.963 3.143 3.142-1.965 1.964z"/>
        <path stroke="#1F2C5E" stroke-linecap="round" stroke-linejoin="round" stroke-width=".588" d="M14.796 27.94a2.226 2.226 0 0 1-1.573.655 2.222 2.222 0 0 1-1.569-.652 2.224 2.224 0 0 1-.654-1.57 2.229 2.229 0 0 1 .654-1.575l1.964-1.963 3.143 3.142-1.965 1.964z"/>
        <path fill="#EAEA72" d="M25.386 17.352L28.595 11l-6.352 3.208z"/>
        <path stroke="#1F2C5E" stroke-linecap="round" stroke-linejoin="round" stroke-width=".588" d="M25.386 17.352L28.595 11l-6.352 3.208z"/>
        <path fill="#F2665D" d="M22.243 14.208l3.142 3.144-6.8 6.8-3.143-3.142z"/>
        <path stroke="#1F2C5E" stroke-linecap="round" stroke-linejoin="round" stroke-width=".588" d="M22.243 14.208l3.142 3.144-6.8 6.8-3.143-3.142z"/>
        <path fill="#EE2F68" d="M27.121 13.916L28.595 11l-2.916 1.474z"/>
        <path stroke="#1F2C5E" stroke-linecap="round" stroke-linejoin="round" stroke-width=".588" d="M27.121 13.916L28.595 11l-2.916 1.474z"/>
        <path fill="#EAEA72" d="M13.618 22.834l3.143 3.143 1.824-1.825-3.144-3.143z"/>
        <path stroke="#1F2C5E" stroke-linecap="round" stroke-linejoin="round" stroke-width=".588" d="M13.618 22.834l3.143 3.143 1.824-1.825-3.144-3.143z"/>
    </g>
</svg>
