<?xml version="1.0" standalone="no"?>
<!DOCTYPE svg PUBLIC "-//W3C//DTD SVG 20010904//EN"
 "http://www.w3.org/TR/2001/REC-SVG-20010904/DTD/svg10.dtd">
<svg version="1.0" xmlns="http://www.w3.org/2000/svg"
 width="512.000000pt" height="512.000000pt" viewBox="0 0 512.000000 512.000000"
 preserveAspectRatio="xMidYMid meet">
<metadata>
Created by potrace 1.11, written by Peter Selinger 2001-2013
</metadata>
<g transform="translate(0.000000,512.000000) scale(0.100000,-0.100000)"
fill="#000000" stroke="none">
<path d="M1805 5072 c-35 -12 -52 -26 -69 -59 -17 -35 -24 -69 -41 -228 -4
-33 -8 -71 -10 -85 -6 -42 -18 -144 -18 -158 0 -7 -10 -14 -21 -17 -133 -26
-182 -40 -246 -68 -266 -116 -452 -346 -515 -637 -14 -66 -15 -283 -1 -345 22
-97 65 -203 121 -295 33 -55 48 -73 112 -141 49 -51 58 -101 29 -153 -52 -95
-138 -326 -162 -436 -4 -19 -9 -39 -10 -45 -1 -5 -5 -26 -8 -45 -4 -19 -8 -46
-11 -60 -23 -130 -23 -339 1 -460 2 -14 6 -34 8 -45 9 -44 38 -150 53 -189 36
-97 113 -259 125 -264 4 -2 8 -8 8 -14 0 -14 90 -147 158 -233 68 -86 206
-225 287 -290 67 -54 72 -60 79 -101 3 -16 12 -53 19 -81 14 -51 13 -53 -8
-67 -20 -13 -27 -13 -61 5 -79 41 -197 5 -227 -69 -20 -51 -16 -317 6 -359 38
-71 144 -99 221 -58 42 22 42 22 69 3 38 -27 124 -28 169 -1 33 19 33 19 67
-1 44 -26 129 -26 168 0 60 39 75 76 74 182 0 58 3 82 12 83 6 1 180 2 384 3
l373 1 0 -85 c0 -122 35 -180 123 -200 43 -9 120 5 138 26 10 12 17 11 47 -8
47 -29 128 -29 173 0 l32 20 35 -21 c69 -41 167 -20 216 46 19 25 21 44 24
182 4 173 -5 207 -61 247 -44 32 -130 36 -181 9 -31 -16 -42 -18 -56 -8 -16
11 -16 18 5 111 21 95 24 100 66 134 67 54 259 250 310 317 175 229 294 485
334 715 3 19 8 49 12 65 11 60 9 269 -4 367 -25 193 -95 424 -179 590 -38 75
-30 107 48 188 105 111 180 243 221 390 16 58 20 107 21 215 1 155 -17 246
-73 370 -114 251 -365 448 -635 499 -39 7 -60 16 -61 26 -1 8 -6 47 -10 85 -4
39 -9 86 -11 105 -4 36 -6 51 -24 180 -18 128 -60 179 -136 166 -34 -6 -58
-27 -179 -152 l-140 -144 -35 10 c-116 35 -209 45 -405 44 -136 0 -193 -5
-286 -23 l-115 -24 -60 64 c-134 143 -191 197 -221 213 -34 17 -37 17 -68 8z"/>
</g>
</svg>
