<svg xmlns="http://www.w3.org/2000/svg" width="1366" height="3749" viewBox="0 0 1366 3749">
    <g fill="none" fill-rule="evenodd" opacity=".28">
        <path fill="#9DDCF9" d="M-139.351 780v131.299l150.608-65.65z"/>
        <path fill="#D4EFFC" d="M113.594 1002.656l150.59-65.65-150.59-65.632z"/>
        <path fill="#9DDCF9" d="M366.536 1094.006l150.591-65.615-150.59-65.684z"/>
        <path fill="#D4EFFC" d="M619 1054v131.566l150.608-65.775z"/>
        <path fill="#9DDCF9" d="M363.619 1295.861l150.625-35.182-150.625-96.117z"/>
        <path fill="#D4EFFC" d="M107.8 1436.791l150.625-35.166-150.625-96.081z"/>
        <path fill="#9DDCF9" d="M-148 1577.765l150.574-35.183L-148 1446.483z"/>
        <g>
            <path fill="#9DDCF9" d="M969.649 0v131.299l150.608-65.65z"/>
            <path fill="#D4EFFC" d="M1222.593 222.656l150.592-65.65-150.592-65.632zM1216.8 656.791l150.626-35.166-150.626-96.081z"/>
            <path fill="#9DDCF9" d="M961 797.765l150.574-35.183L961 666.483z"/>
        </g>
        <g>
            <path fill="#9DDCF9" d="M683.649 1898v131.299l150.608-65.65z"/>
            <path fill="#D4EFFC" d="M936.593 2120.656l150.592-65.65-150.592-65.632z"/>
            <path fill="#9DDCF9" d="M1189.536 2212.006l150.591-65.615-150.59-65.684zM1186.619 2413.861l150.625-35.182-150.625-96.117z"/>
            <path fill="#D4EFFC" d="M930.8 2554.791l150.626-35.166-150.626-96.081z"/>
            <path fill="#9DDCF9" d="M675 2695.765l150.574-35.183L675 2564.483z"/>
        </g>
        <g>
            <path fill="#9DDCF9" d="M-67.351 2969v131.299l150.608-65.65z"/>
            <path fill="#D4EFFC" d="M185.594 3191.656l150.59-65.65-150.59-65.632z"/>
            <path fill="#9DDCF9" d="M438.536 3283.006l150.591-65.615-150.59-65.684z"/>
            <path fill="#D4EFFC" d="M691 3243v131.566l150.608-65.774z"/>
            <path fill="#9DDCF9" d="M435.619 3484.861l150.625-35.182-150.625-96.117z"/>
            <path fill="#D4EFFC" d="M179.8 3625.791l150.625-35.166-150.625-96.081z"/>
            <path fill="#9DDCF9" d="M-76 3766.765l150.574-35.183L-76 3635.483z"/>
        </g>
    </g>
</svg>
