<svg xmlns="http://www.w3.org/2000/svg" width="66" height="58" viewBox="0 0 66 58">
    <path fill="#9DDCF9" fill-rule="evenodd" d="M26.398 11.517c-3.87 1.645-6.732 3.768-8.64 6.367-2.333 3.237-3.605 7.535-3.71 12.895h9.965c1.749 0 3.18 1.432 3.18 3.183v20.854A3.191 3.191 0 0 1 24.013 58H3.18A3.191 3.191 0 0 1 0 54.816v-16.29c0-7.907.742-14.114 2.12-18.678C3.5 15.338 6.043 11.25 9.806 7.697c3.075-3.025 6.945-5.519 11.45-7.43 1.59-.69 3.393 0 4.135 1.54l2.597 5.465c.742 1.592.053 3.555-1.59 4.245zm37.71-.043c-3.876 1.647-6.744 3.771-8.656 6.373-2.336 3.24-3.611 7.542-3.717 12.907h10.037a3.196 3.196 0 0 1 3.187 3.187v20.872A3.196 3.196 0 0 1 61.772 58H40.901a3.196 3.196 0 0 1-3.187-3.187V38.508c0-7.967.69-14.181 2.071-18.642 1.381-4.514 3.983-8.604 7.754-12.216 3.133-2.974 6.957-5.47 11.418-7.382 1.594-.69 3.4 0 4.143 1.54l2.602 5.417c.743 1.593.053 3.558-1.593 4.249z"/>
</svg>
